<?xml version="1.0" encoding="UTF-8" standalone="no"?>
<svg
   xmlns:dc="http://purl.org/dc/elements/1.1/"
   xmlns:cc="http://creativecommons.org/ns#"
   xmlns:rdf="http://www.w3.org/1999/02/22-rdf-syntax-ns#"
   xmlns:svg="http://www.w3.org/2000/svg"
   xmlns="http://www.w3.org/2000/svg"
   xmlns:sodipodi="http://sodipodi.sourceforge.net/DTD/sodipodi-0.dtd"
   xmlns:inkscape="http://www.inkscape.org/namespaces/inkscape"
   class="marks"
   width="340"
   height="738"
   viewBox="0 0 340 738"
   version="1.1"
   id="svg4987"
   inkscape:version="0.48.4 r9939"
   sodipodi:docname="pandhist_overlay.svg">
  <metadata
     id="metadata5183">
    <rdf:RDF>
      <cc:Work
         rdf:about="">
        <dc:format>image/svg+xml</dc:format>
        <dc:type
           rdf:resource="http://purl.org/dc/dcmitype/StillImage" />
      </cc:Work>
    </rdf:RDF>
  </metadata>
  <defs
     id="defs5181" />
  <sodipodi:namedview
     pagecolor="#ffffff"
     bordercolor="#666666"
     borderopacity="1"
     objecttolerance="10"
     gridtolerance="10"
     guidetolerance="10"
     inkscape:pageopacity="0"
     inkscape:pageshadow="2"
     inkscape:window-width="954"
     inkscape:window-height="1027"
     id="namedview5179"
     showgrid="false"
     inkscape:zoom="0.96326531"
     inkscape:cx="121.97458"
     inkscape:cy="288.6017"
     inkscape:window-x="960"
     inkscape:window-y="0"
     inkscape:window-maximized="0"
     inkscape:current-layer="svg4987" />
  <g
     transform="translate(52,18)"
     id="g4989">
    <g
       class="mark-group role-frame root"
       id="g4991">
      <g
         id="g4993">
        <path
           class="background"
           d="m 0.5,0.5 h 200 v 200 H 0.5 z"
           style="fill:none;stroke:#dddddd"
           id="path4995"
           inkscape:connector-curvature="0" />
        <g
           id="g4997">
          <g
             class="mark-group role-axis"
             id="g4999">
            <g
               transform="translate(0.5,200.5)"
               id="g5001">
              <path
                 class="background"
                 d="M 0,0 H 0 V 0 H 0 z"
                 style="fill:none"
                 id="path5003"
                 inkscape:connector-curvature="0" />
              <g
                 id="g5005">
                <g
                   class="mark-rule role-axis-grid"
                   id="g5007">
                  <line
                     transform="translate(0,-200)"
                     x2="0"
                     y2="200"
                     style="fill:none;stroke:#dddddd;stroke-width:1"
                     id="line5009"
                     x1="0"
                     y1="0" />
                  <line
                     transform="translate(40,-200)"
                     x2="0"
                     y2="200"
                     style="fill:none;stroke:#dddddd;stroke-width:1"
                     id="line5011"
                     x1="0"
                     y1="0" />
                  <line
                     transform="translate(80,-200)"
                     x2="0"
                     y2="200"
                     style="fill:none;stroke:#dddddd;stroke-width:1"
                     id="line5013"
                     x1="0"
                     y1="0" />
                  <line
                     transform="translate(120,-200)"
                     x2="0"
                     y2="200"
                     style="fill:none;stroke:#dddddd;stroke-width:1"
                     id="line5015"
                     x1="0"
                     y1="0" />
                  <line
                     transform="translate(160,-200)"
                     x2="0"
                     y2="200"
                     style="fill:none;stroke:#dddddd;stroke-width:1"
                     id="line5017"
                     x1="0"
                     y1="0" />
                  <line
                     transform="translate(200,-200)"
                     x2="0"
                     y2="200"
                     style="fill:none;stroke:#dddddd;stroke-width:1"
                     id="line5019"
                     x1="0"
                     y1="0" />
                </g>
              </g>
            </g>
          </g>
          <g
             class="mark-group role-axis"
             id="g5021">
            <g
               transform="translate(0.5,0.5)"
               id="g5023">
              <path
                 class="background"
                 d="M 0,0 H 0 V 0 H 0 z"
                 style="fill:none"
                 id="path5025"
                 inkscape:connector-curvature="0" />
              <g
                 id="g5027">
                <g
                   class="mark-rule role-axis-grid"
                   id="g5029">
                  <line
                     transform="translate(0,200)"
                     x2="200"
                     y2="0"
                     style="fill:none;stroke:#dddddd;stroke-width:1"
                     id="line5031"
                     x1="0"
                     y1="0" />
                  <line
                     transform="translate(0,156)"
                     x2="200"
                     y2="0"
                     style="fill:none;stroke:#dddddd;stroke-width:1"
                     id="line5033"
                     x1="0"
                     y1="0" />
                  <line
                     transform="translate(0,111)"
                     x2="200"
                     y2="0"
                     style="fill:none;stroke:#dddddd;stroke-width:1"
                     id="line5035"
                     x1="0"
                     y1="0" />
                  <line
                     transform="translate(0,67)"
                     x2="200"
                     y2="0"
                     style="fill:none;stroke:#dddddd;stroke-width:1"
                     id="line5037"
                     x1="0"
                     y1="0" />
                  <line
                     transform="translate(0,22)"
                     x2="200"
                     y2="0"
                     style="fill:none;stroke:#dddddd;stroke-width:1"
                     id="line5039"
                     x1="0"
                     y1="0" />
                </g>
              </g>
            </g>
          </g>
          <g
             class="mark-group role-scope layer_0_pathgroup"
             id="g5041">
            <g
               id="g5043">
              <path
                 class="background"
                 d="M 0,0 H 200 V 200 H 0 z"
                 style="fill:none"
                 id="path5045"
                 inkscape:connector-curvature="0" />
              <g
                 id="g5047">
                <g
                   class="mark-line role-mark layer_0_marks"
                   id="g5049">
                  <path
                     d="M 200,175.55556 200,200 l -2,0 0,0 -2,0 0,-2.22222 -2,0 0,0 -2,0 0,2.22222 -2,0 0,0 -2,0 0,0 -2,0 0,0 -2,0 0,0 -2,0 0,0 -2,0 0,0 -2,0 0,0 -2,0 0,-6.66667 -2,0 0,6.66667 -2,0 0,0 -2,0 0,0 -2,0 0,0 -2,0 0,0 -2,0 0,0 -2,0 0,0 -2,0 0,0 -2,0 0,0 -2,0 0,-4.44444 -2,0 0,2.22222 -2,0 0,2.22222 -2,0 0,-2.22222 -2,0 0,0 -2,0 0,-2.22222 -2,0 0,2.22222 -2,0 0,2.22222 -2,0 0,0 -2,0 0,-4.44444 -2,0 0,4.44444 -2,0 0,-6.66667 -2,0 0,-2.22222 -2,0 0,8.88889 -2,0 0,-6.66667 -2,0 0,2.22223 -2,0 0,0 -2,0 0,2.22222 -2,0 0,0 -2,0 0,0 -2,0 0,-4.44445 -2,0 0,2.22223 -2,0 0,2.22222 -2,0 0,-4.44445 -2,0 0,-2.22222 -2,0 0,6.66667 -2,0 0,-4.44445 -2,0 0,-2.22222 -2,0 0,8.88889 -2,0 0,-15.55556 -2,0 0,2.22223 -2,0 0,0 -2,0 0,-6.66667 -2,0 0,4.44444 -2,0 0,6.66667 -2,0 0,-2.22222 -2,0 0,-6.66667 -2,0 0,4.44445 -2,0 0,0 -2,0 0,-6.66667 -2,0 0,2.22222 -2,0 0,-6.66666 -2,0 0,13.33333 -2,0 0,-11.11111 -2,0 0,-4.44445 -2,0 0,8.88889 -2,0 0,2.22222 -2,0 0,-20 -2,0 0,13.33334 -2,0 0,-6.66667 -2,0 0,0 -2,0 0,0 -2,0 0,8.88889 -2,0 0,-13.33333 -2,0 0,-15.55556 -2,0 0,-8.88889 -2,0 0,2.22222 -2,0 0,-11.11111 -2,0 0,13.33334 -2,0 0,-4.44445 -2,0 0,-8.88889 -2,0 0,2.22223 -2,0 0,-26.66667 -2,0 0,8.88889 -2,0 0,4.44444 -2,0 0,6.66667 -2,0 0,-11.11111 -2,0 0,11.11111 -2,0 0,2.22222 -2,0 0,0 -2,0 0,-35.555554 -2,0 0,26.666664 -2,0 0,33.33334 -2,0 0,6.66666 -2,0 0,2.22222 -2,0 0,8.88889 -2,0 0,15.55556 -2,0 0,4.44444 -2,0"
                     style="fill:none;stroke:#4c78a8;stroke-width:2"
                     id="path5051"
                     inkscape:connector-curvature="0" />
                </g>
              </g>
            </g>
            <g
               id="g5053">
              <path
                 class="background"
                 d="M 0,0 H 200 V 200 H 0 z"
                 style="fill:none"
                 id="path5055"
                 inkscape:connector-curvature="0" />
              <g
                 id="g5057">
                <g
                   class="mark-line role-mark layer_0_marks"
                   id="g5059">
                  <path
                     d="M 200,162.22222 200,200 l -2,0 0,0 -2,0 0,0 -2,0 0,0 -2,0 0,0 -2,0 0,-4.44444 -2,0 0,4.44444 -2,0 0,0 -2,0 0,-4.44444 -2,0 0,4.44444 -2,0 0,0 -2,0 0,0 -2,0 0,0 -2,0 0,-2.22222 -2,0 0,0 -2,0 0,2.22222 -2,0 0,0 -2,0 0,-2.22222 -2,0 0,0 -2,0 0,2.22222 -2,0 0,-2.22222 -2,0 0,-6.66667 -2,0 0,4.44445 -2,0 0,2.22222 -2,0 0,-2.22222 -2,0 0,4.44444 -2,0 0,0 -2,0 0,-4.44444 -2,0 0,2.22222 -2,0 0,0 -2,0 0,2.22222 -2,0 0,-4.44444 -2,0 0,2.22222 -2,0 0,-4.44445 -2,0 0,0 -2,0 0,0 -2,0 0,-2.22222 -2,0 0,8.88889 -2,0 0,-4.44444 -2,0 0,2.22222 -2,0 0,-6.66667 -2,0 0,2.22222 -2,0 0,-6.66666 -2,0 0,4.44444 -2,0 0,8.88889 -2,0 0,-4.44444 -2,0 0,-4.44445 -2,0 0,-2.22222 -2,0 0,0 -2,0 0,-6.66667 -2,0 0,8.88889 -2,0 0,-2.22222 -2,0 0,-2.22222 -2,0 0,6.66666 -2,0 0,-8.88889 -2,0 0,8.88889 -2,0 0,-26.66666 -2,0 0,28.88889 -2,0 0,-17.77778 -2,0 0,2.22222 -2,0 0,-2.22222 -2,0 0,-8.88889 -2,0 0,4.44444 -2,0 0,-2.22222 -2,0 0,8.88889 -2,0 0,-33.33333 -2,0 0,15.55555 -2,0 0,-4.44444 -2,0 0,2.22222 -2,0 0,8.88889 -2,0 0,-13.33333 -2,0 0,-20 -2,0 0,24.44444 -2,0 0,-15.55556 -2,0 0,11.11112 -2,0 0,-24.44445 -2,0 0,-64.444443 -2,0 0,68.888893 -2,0 0,-31.11112 -2,0 0,2.22223 -2,0 0,0 -2,0 0,-28.888892 -2,0 L 36,40 l -2,0 0,6.666667 -2,0 0,15.555555 -2,0 0,6.666667 -2,0 L 28,60 l -2,0 0,-35.555556 -2,0 0,11.111112 -2,0 0,-17.777778 -2,0 0,20 -2,0 0,-11.111111 -2,0 0,15.555555 -2,0 0,55.555556 -2,0 0,-2.222222 -2,0 0,26.666664 -2,0 0,-15.55555 -2,0 0,51.11111 -2,0 0,4.44444 -2,0 0,22.22222 -2,0"
                     style="fill:none;stroke:#f58518;stroke-width:2"
                     id="path5061"
                     inkscape:connector-curvature="0" />
                </g>
              </g>
            </g>
          </g>
          <g
             class="mark-group role-legend"
             id="g5063">
            <g
               transform="translate(220,0)"
               id="g5065">
              <path
                 class="background"
                 d="M 0,0 H 50 V 43 H 0 z"
                 style="fill:none"
                 id="path5067"
                 inkscape:connector-curvature="0" />
              <g
                 id="g5069">
                <g
                   class="mark-group role-legend-entry"
                   id="g5071">
                  <g
                     transform="translate(0,16)"
                     id="g5073">
                    <path
                       class="background"
                       d="M 0,0 H 0 V 0 H 0 z"
                       style="fill:none"
                       id="path5075"
                       inkscape:connector-curvature="0" />
                    <g
                       id="g5077">
                      <g
                         class="mark-symbol role-legend-symbol"
                         id="g5079">
                        <path
                           transform="translate(5,5)"
                           d="M 5,0 A 5,5 0 1 1 -5,0 5,5 0 1 1 5,0"
                           style="fill:none;stroke:#4c78a8;stroke-width:1.5"
                           id="path5081"
                           inkscape:connector-curvature="0" />
                        <path
                           transform="translate(5,20)"
                           d="M 5,0 A 5,5 0 1 1 -5,0 5,5 0 1 1 5,0"
                           style="fill:none;stroke:#f58518;stroke-width:1.5"
                           id="path5083"
                           inkscape:connector-curvature="0" />
                      </g>
                      <g
                         class="mark-text role-legend-label"
                         id="g5085">
                        <text
                           transform="translate(18,8)"
                           style="text-anchor:start;fill:#000000"
                           id="text5087">fail</text>
                        <text
                           transform="translate(18,23)"
                           style="text-anchor:start;fill:#000000"
                           id="text5089">pass</text>
                      </g>
                    </g>
                  </g>
                </g>
                <g
                   class="mark-text role-legend-title"
                   id="g5091">
                  <text
                     transform="translate(0,9)"
                     style="text-anchor:start;fill:#000000"
                     id="text5093">q1*q2 &lt; 0</text>
                </g>
              </g>
            </g>
          </g>
          <g
             class="mark-group role-axis"
             id="g5095">
            <g
               transform="translate(0.5,200.5)"
               id="g5097">
              <path
                 class="background"
                 d="M 0,0 H 0 V 0 H 0 z"
                 style="fill:none"
                 id="path5099"
                 inkscape:connector-curvature="0" />
              <g
                 id="g5101">
                <g
                   class="mark-rule role-axis-tick"
                   id="g5103">
                  <line
                     x2="0"
                     y2="5"
                     style="fill:none;stroke:#888888;stroke-width:1"
                     id="line5105"
                     x1="0"
                     y1="0" />
                  <line
                     transform="translate(40,0)"
                     x2="0"
                     y2="5"
                     style="fill:none;stroke:#888888;stroke-width:1"
                     id="line5107"
                     x1="0"
                     y1="0" />
                  <line
                     transform="translate(80,0)"
                     x2="0"
                     y2="5"
                     style="fill:none;stroke:#888888;stroke-width:1"
                     id="line5109"
                     x1="0"
                     y1="0" />
                  <line
                     transform="translate(120,0)"
                     x2="0"
                     y2="5"
                     style="fill:none;stroke:#888888;stroke-width:1"
                     id="line5111"
                     x1="0"
                     y1="0" />
                  <line
                     transform="translate(160,0)"
                     x2="0"
                     y2="5"
                     style="fill:none;stroke:#888888;stroke-width:1"
                     id="line5113"
                     x1="0"
                     y1="0" />
                  <line
                     transform="translate(200,0)"
                     x2="0"
                     y2="5"
                     style="fill:none;stroke:#888888;stroke-width:1"
                     id="line5115"
                     x1="0"
                     y1="0" />
                </g>
                <g
                   class="mark-text role-axis-label"
                   id="g5117">
                  <text
                     transform="translate(0,15)"
                     style="text-anchor:start;fill:#000000"
                     id="text5119">0</text>
                  <text
                     transform="translate(40,15)"
                     style="text-anchor:middle;fill:#000000"
                     id="text5121">100</text>
                  <text
                     transform="translate(80,15)"
                     style="text-anchor:middle;fill:#000000"
                     id="text5123">200</text>
                  <text
                     transform="translate(120,15)"
                     style="text-anchor:middle;fill:#000000"
                     id="text5125">300</text>
                  <text
                     transform="translate(160,15)"
                     style="text-anchor:middle;fill:#000000"
                     id="text5127">400</text>
                  <text
                     transform="translate(200,15)"
                     style="text-anchor:end;fill:#000000"
                     id="text5129">500</text>
                </g>
                <g
                   class="mark-rule role-axis-domain"
                   id="g5131">
                  <line
                     x2="200"
                     y2="0"
                     style="fill:none;stroke:#888888;stroke-width:1"
                     id="line5133"
                     x1="0"
                     y1="0" />
                </g>
                <g
                   class="mark-text role-axis-title"
                   id="g5135">
                  <text
                     transform="translate(100,31)"
                     style="text-anchor:middle;fill:#000000"
                     id="text5137">mass</text>
                </g>
              </g>
            </g>
          </g>
          <g
             class="mark-group role-axis"
             id="g5139">
            <g
               transform="translate(0.5,0.5)"
               id="g5141">
              <path
                 class="background"
                 d="M 0,0 H 0 V 0 H 0 z"
                 style="fill:none"
                 id="path5143"
                 inkscape:connector-curvature="0" />
              <g
                 id="g5145">
                <g
                   class="mark-rule role-axis-tick"
                   id="g5147">
                  <line
                     transform="translate(0,200)"
                     x2="-5"
                     y2="0"
                     style="fill:none;stroke:#888888;stroke-width:1"
                     id="line5149"
                     x1="0"
                     y1="0" />
                  <line
                     transform="translate(0,156)"
                     x2="-5"
                     y2="0"
                     style="fill:none;stroke:#888888;stroke-width:1"
                     id="line5151"
                     x1="0"
                     y1="0" />
                  <line
                     transform="translate(0,111)"
                     x2="-5"
                     y2="0"
                     style="fill:none;stroke:#888888;stroke-width:1"
                     id="line5153"
                     x1="0"
                     y1="0" />
                  <line
                     transform="translate(0,67)"
                     x2="-5"
                     y2="0"
                     style="fill:none;stroke:#888888;stroke-width:1"
                     id="line5155"
                     x1="0"
                     y1="0" />
                  <line
                     transform="translate(0,22)"
                     x2="-5"
                     y2="0"
                     style="fill:none;stroke:#888888;stroke-width:1"
                     id="line5157"
                     x1="0"
                     y1="0" />
                </g>
                <g
                   class="mark-text role-axis-label"
                   id="g5159">
                  <text
                     transform="translate(-7,203)"
                     style="text-anchor:end;fill:#000000"
                     id="text5161">0</text>
                  <text
                     transform="translate(-7,158.55556)"
                     style="text-anchor:end;fill:#000000"
                     id="text5163">20</text>
                  <text
                     transform="translate(-7,114.11111)"
                     style="text-anchor:end;fill:#000000"
                     id="text5165">40</text>
                  <text
                     transform="translate(-7,69.666667)"
                     style="text-anchor:end;fill:#000000"
                     id="text5167">60</text>
                  <text
                     transform="translate(-7,25.222222)"
                     style="text-anchor:end;fill:#000000"
                     id="text5169">80</text>
                </g>
                <g
                   class="mark-rule role-axis-domain"
                   id="g5171">
                  <line
                     transform="translate(0,200)"
                     x2="0"
                     y2="-200"
                     style="fill:none;stroke:#888888;stroke-width:1"
                     id="line5173"
                     x1="0"
                     y1="0" />
                </g>
                <g
                   class="mark-text role-axis-title"
                   id="g5175">
                  <text
                     transform="matrix(0,-1,1,0,-36,100)"
                     style="text-anchor:middle;fill:#000000"
                     id="text5177">count</text>
                </g>
              </g>
            </g>
          </g>
        </g>
      </g>
    </g>
  </g>
</svg>
