<svg class="marks" width="814" height="738" viewBox="0 0 814 738" version="1.1" xmlns="http://www.w3.org/2000/svg" xmlns:xlink="http://www.w3.org/1999/xlink"><g transform="translate(106,57)"><g class="mark-group role-frame root"><g transform="translate(0,0)"><path class="background" d="M0,0h0v0h0Z" style="fill: none;"></path><g><g class="mark-group role-row-title row_title"><g transform="translate(-91,315)"><path class="background" d="M0,0h0v0h0Z" style="fill: none;"></path><g><g class="mark-text role-row-title-text"><text text-anchor="middle" transform="translate(0,0) rotate(270)" style="font: bold 11px sans-serif; fill: #000;">mt1</text></g></g></g></g><g class="mark-group role-column-title column_title"><g transform="translate(316,-42)"><path class="background" d="M0,0h0v0h0Z" style="fill: none;"></path><g><g class="mark-text role-column-title-text"><text text-anchor="middle" transform="translate(0,0)" style="font: bold 11px sans-serif; fill: #000;">mt2</text></g></g></g></g><g class="mark-group role-row-header row_header"><g transform="translate(-13,0)"><path class="background" d="M0,0h0v200h0Z" style="fill: none;"></path><g><g class="mark-text role-title" style="pointer-events: none;"><text text-anchor="middle" transform="translate(-57,100) rotate(-90) translate(0,-2)" style="font: 10px sans-serif; fill: #000; opacity: 1;">[-inf, 0.2)</text></g><g class="mark-group role-axis"><g transform="translate(0.5,0.5)"><path class="background" d="M0,0h0v0h0Z" style="pointer-events: none; fill: none;"></path><g><g class="mark-rule role-axis-tick" style="pointer-events: none;"><line transform="translate(0,200)" x2="-5" y2="0" style="fill: none; stroke: #888; stroke-width: 1; opacity: 1;"></line><line transform="translate(0,164)" x2="-5" y2="0" style="fill: none; stroke: #888; stroke-width: 1; opacity: 1;"></line><line transform="translate(0,127)" x2="-5" y2="0" style="fill: none; stroke: #888; stroke-width: 1; opacity: 1;"></line><line transform="translate(0,91)" x2="-5" y2="0" style="fill: none; stroke: #888; stroke-width: 1; opacity: 1;"></line><line transform="translate(0,55)" x2="-5" y2="0" style="fill: none; stroke: #888; stroke-width: 1; opacity: 1;"></line><line transform="translate(0,18)" x2="-5" y2="0" style="fill: none; stroke: #888; stroke-width: 1; opacity: 1;"></line></g><g class="mark-text role-axis-label" style="pointer-events: none;"><text text-anchor="end" transform="translate(-7,203)" style="font: 10px sans-serif; fill: #000; opacity: 1;">0</text><text text-anchor="end" transform="translate(-7,166.63636363636363)" style="font: 10px sans-serif; fill: #000; opacity: 1;">10</text><text text-anchor="end" transform="translate(-7,130.27272727272725)" style="font: 10px sans-serif; fill: #000; opacity: 1;">20</text><text text-anchor="end" transform="translate(-7,93.90909090909092)" style="font: 10px sans-serif; fill: #000; opacity: 1;">30</text><text text-anchor="end" transform="translate(-7,57.54545454545453)" style="font: 10px sans-serif; fill: #000; opacity: 1;">40</text><text text-anchor="end" transform="translate(-7,21.181818181818187)" style="font: 10px sans-serif; fill: #000; opacity: 1;">50</text></g><g class="mark-rule role-axis-domain" style="pointer-events: none;"><line transform="translate(0,200)" x2="0" y2="-200" style="fill: none; stroke: #888; stroke-width: 1; opacity: 1;"></line></g><g class="mark-text role-axis-title" style="pointer-events: none;"><text text-anchor="middle" transform="translate(-34,100) rotate(-90) translate(0,-2)" style="font: bold 11px sans-serif; fill: #000; opacity: 1;">count</text></g></g></g></g></g></g><g transform="translate(-13,214)"><path class="background" d="M0,0h0v200h0Z" style="fill: none;"></path><g><g class="mark-text role-title" style="pointer-events: none;"><text text-anchor="middle" transform="translate(-57,100) rotate(-90) translate(0,-2)" style="font: 10px sans-serif; fill: #000; opacity: 1;">[0.2, 0.5)</text></g><g class="mark-group role-axis"><g transform="translate(0.5,0.5)"><path class="background" d="M0,0h0v0h0Z" style="pointer-events: none; fill: none;"></path><g><g class="mark-rule role-axis-tick" style="pointer-events: none;"><line transform="translate(0,200)" x2="-5" y2="0" style="fill: none; stroke: #888; stroke-width: 1; opacity: 1;"></line><line transform="translate(0,164)" x2="-5" y2="0" style="fill: none; stroke: #888; stroke-width: 1; opacity: 1;"></line><line transform="translate(0,127)" x2="-5" y2="0" style="fill: none; stroke: #888; stroke-width: 1; opacity: 1;"></line><line transform="translate(0,91)" x2="-5" y2="0" style="fill: none; stroke: #888; stroke-width: 1; opacity: 1;"></line><line transform="translate(0,55)" x2="-5" y2="0" style="fill: none; stroke: #888; stroke-width: 1; opacity: 1;"></line><line transform="translate(0,18)" x2="-5" y2="0" style="fill: none; stroke: #888; stroke-width: 1; opacity: 1;"></line></g><g class="mark-text role-axis-label" style="pointer-events: none;"><text text-anchor="end" transform="translate(-7,203)" style="font: 10px sans-serif; fill: #000; opacity: 1;">0</text><text text-anchor="end" transform="translate(-7,166.63636363636363)" style="font: 10px sans-serif; fill: #000; opacity: 1;">10</text><text text-anchor="end" transform="translate(-7,130.27272727272725)" style="font: 10px sans-serif; fill: #000; opacity: 1;">20</text><text text-anchor="end" transform="translate(-7,93.90909090909092)" style="font: 10px sans-serif; fill: #000; opacity: 1;">30</text><text text-anchor="end" transform="translate(-7,57.54545454545453)" style="font: 10px sans-serif; fill: #000; opacity: 1;">40</text><text text-anchor="end" transform="translate(-7,21.181818181818187)" style="font: 10px sans-serif; fill: #000; opacity: 1;">50</text></g><g class="mark-rule role-axis-domain" style="pointer-events: none;"><line transform="translate(0,200)" x2="0" y2="-200" style="fill: none; stroke: #888; stroke-width: 1; opacity: 1;"></line></g><g class="mark-text role-axis-title" style="pointer-events: none;"><text text-anchor="middle" transform="translate(-34,100) rotate(-90) translate(0,-2)" style="font: bold 11px sans-serif; fill: #000; opacity: 1;">count</text></g></g></g></g></g></g><g transform="translate(-13,428)"><path class="background" d="M0,0h0v200h0Z" style="fill: none;"></path><g><g class="mark-text role-title" style="pointer-events: none;"><text text-anchor="middle" transform="translate(-57,100) rotate(-90) translate(0,-2)" style="font: 10px sans-serif; fill: #000; opacity: 1;">[0.5, inf)</text></g><g class="mark-group role-axis"><g transform="translate(0.5,0.5)"><path class="background" d="M0,0h0v0h0Z" style="pointer-events: none; fill: none;"></path><g><g class="mark-rule role-axis-tick" style="pointer-events: none;"><line transform="translate(0,200)" x2="-5" y2="0" style="fill: none; stroke: #888; stroke-width: 1; opacity: 1;"></line><line transform="translate(0,164)" x2="-5" y2="0" style="fill: none; stroke: #888; stroke-width: 1; opacity: 1;"></line><line transform="translate(0,127)" x2="-5" y2="0" style="fill: none; stroke: #888; stroke-width: 1; opacity: 1;"></line><line transform="translate(0,91)" x2="-5" y2="0" style="fill: none; stroke: #888; stroke-width: 1; opacity: 1;"></line><line transform="translate(0,55)" x2="-5" y2="0" style="fill: none; stroke: #888; stroke-width: 1; opacity: 1;"></line><line transform="translate(0,18)" x2="-5" y2="0" style="fill: none; stroke: #888; stroke-width: 1; opacity: 1;"></line></g><g class="mark-text role-axis-label" style="pointer-events: none;"><text text-anchor="end" transform="translate(-7,203)" style="font: 10px sans-serif; fill: #000; opacity: 1;">0</text><text text-anchor="end" transform="translate(-7,166.63636363636363)" style="font: 10px sans-serif; fill: #000; opacity: 1;">10</text><text text-anchor="end" transform="translate(-7,130.27272727272725)" style="font: 10px sans-serif; fill: #000; opacity: 1;">20</text><text text-anchor="end" transform="translate(-7,93.90909090909092)" style="font: 10px sans-serif; fill: #000; opacity: 1;">30</text><text text-anchor="end" transform="translate(-7,57.54545454545453)" style="font: 10px sans-serif; fill: #000; opacity: 1;">40</text><text text-anchor="end" transform="translate(-7,21.181818181818187)" style="font: 10px sans-serif; fill: #000; opacity: 1;">50</text></g><g class="mark-rule role-axis-domain" style="pointer-events: none;"><line transform="translate(0,200)" x2="0" y2="-200" style="fill: none; stroke: #888; stroke-width: 1; opacity: 1;"></line></g><g class="mark-text role-axis-title" style="pointer-events: none;"><text text-anchor="middle" transform="translate(-34,100) rotate(-90) translate(0,-2)" style="font: bold 11px sans-serif; fill: #000; opacity: 1;">count</text></g></g></g></g></g></g></g><g class="mark-group role-column-header column_header"><g transform="translate(0,-11)"><path class="background" d="M0,0h200v0h-200Z" style="fill: none;"></path><g><g class="mark-text role-title" style="pointer-events: none;"><text text-anchor="middle" transform="translate(100,-12)" style="font: 10px sans-serif; fill: #000; opacity: 1;">[-inf, 0.2)</text></g></g></g><g transform="translate(216,-11)"><path class="background" d="M0,0h200v0h-200Z" style="fill: none;"></path><g><g class="mark-text role-title" style="pointer-events: none;"><text text-anchor="middle" transform="translate(100,-12)" style="font: 10px sans-serif; fill: #000; opacity: 1;">[0.2, 0.5)</text></g></g></g><g transform="translate(432,-11)"><path class="background" d="M0,0h200v0h-200Z" style="fill: none;"></path><g><g class="mark-text role-title" style="pointer-events: none;"><text text-anchor="middle" transform="translate(100,-12)" style="font: 10px sans-serif; fill: #000; opacity: 1;">[0.5, inf)</text></g></g></g></g><g class="mark-group role-column-footer column_footer"><g transform="translate(0,641)"><path class="background" d="M0,0h200v0h-200Z" style="fill: none;"></path><g><g class="mark-group role-axis"><g transform="translate(0.5,0.5)"><path class="background" d="M0,0h0v0h0Z" style="pointer-events: none; fill: none;"></path><g><g class="mark-rule role-axis-tick" style="pointer-events: none;"><line transform="translate(0,0)" x2="0" y2="5" style="fill: none; stroke: #888; stroke-width: 1; opacity: 1;"></line><line transform="translate(40,0)" x2="0" y2="5" style="fill: none; stroke: #888; stroke-width: 1; opacity: 1;"></line><line transform="translate(80,0)" x2="0" y2="5" style="fill: none; stroke: #888; stroke-width: 1; opacity: 1;"></line><line transform="translate(120,0)" x2="0" y2="5" style="fill: none; stroke: #888; stroke-width: 1; opacity: 1;"></line><line transform="translate(160,0)" x2="0" y2="5" style="fill: none; stroke: #888; stroke-width: 1; opacity: 1;"></line><line transform="translate(200,0)" x2="0" y2="5" style="fill: none; stroke: #888; stroke-width: 1; opacity: 1;"></line></g><g class="mark-text role-axis-label" style="pointer-events: none;"><text text-anchor="start" transform="translate(0,15)" style="font: 10px sans-serif; fill: #000; opacity: 1;">0</text><text text-anchor="middle" transform="translate(40,15)" style="font: 10px sans-serif; fill: #000; opacity: 1;">100</text><text text-anchor="middle" transform="translate(80,15)" style="font: 10px sans-serif; fill: #000; opacity: 1;">200</text><text text-anchor="middle" transform="translate(120,15)" style="font: 10px sans-serif; fill: #000; opacity: 1;">300</text><text text-anchor="middle" transform="translate(160,15)" style="font: 10px sans-serif; fill: #000; opacity: 1;">400</text><text text-anchor="end" transform="translate(200,15)" style="font: 10px sans-serif; fill: #000; opacity: 1;">500</text></g><g class="mark-rule role-axis-domain" style="pointer-events: none;"><line transform="translate(0,0)" x2="200" y2="0" style="fill: none; stroke: #888; stroke-width: 1; opacity: 1;"></line></g><g class="mark-text role-axis-title" style="pointer-events: none;"><text text-anchor="middle" transform="translate(100,31)" style="font: bold 11px sans-serif; fill: #000; opacity: 1;">mass</text></g></g></g></g></g></g><g transform="translate(216,641)"><path class="background" d="M0,0h200v0h-200Z" style="fill: none;"></path><g><g class="mark-group role-axis"><g transform="translate(0.5,0.5)"><path class="background" d="M0,0h0v0h0Z" style="pointer-events: none; fill: none;"></path><g><g class="mark-rule role-axis-tick" style="pointer-events: none;"><line transform="translate(0,0)" x2="0" y2="5" style="fill: none; stroke: #888; stroke-width: 1; opacity: 1;"></line><line transform="translate(40,0)" x2="0" y2="5" style="fill: none; stroke: #888; stroke-width: 1; opacity: 1;"></line><line transform="translate(80,0)" x2="0" y2="5" style="fill: none; stroke: #888; stroke-width: 1; opacity: 1;"></line><line transform="translate(120,0)" x2="0" y2="5" style="fill: none; stroke: #888; stroke-width: 1; opacity: 1;"></line><line transform="translate(160,0)" x2="0" y2="5" style="fill: none; stroke: #888; stroke-width: 1; opacity: 1;"></line><line transform="translate(200,0)" x2="0" y2="5" style="fill: none; stroke: #888; stroke-width: 1; opacity: 1;"></line></g><g class="mark-text role-axis-label" style="pointer-events: none;"><text text-anchor="start" transform="translate(0,15)" style="font: 10px sans-serif; fill: #000; opacity: 1;">0</text><text text-anchor="middle" transform="translate(40,15)" style="font: 10px sans-serif; fill: #000; opacity: 1;">100</text><text text-anchor="middle" transform="translate(80,15)" style="font: 10px sans-serif; fill: #000; opacity: 1;">200</text><text text-anchor="middle" transform="translate(120,15)" style="font: 10px sans-serif; fill: #000; opacity: 1;">300</text><text text-anchor="middle" transform="translate(160,15)" style="font: 10px sans-serif; fill: #000; opacity: 1;">400</text><text text-anchor="end" transform="translate(200,15)" style="font: 10px sans-serif; fill: #000; opacity: 1;">500</text></g><g class="mark-rule role-axis-domain" style="pointer-events: none;"><line transform="translate(0,0)" x2="200" y2="0" style="fill: none; stroke: #888; stroke-width: 1; opacity: 1;"></line></g><g class="mark-text role-axis-title" style="pointer-events: none;"><text text-anchor="middle" transform="translate(100,31)" style="font: bold 11px sans-serif; fill: #000; opacity: 1;">mass</text></g></g></g></g></g></g><g transform="translate(432,641)"><path class="background" d="M0,0h200v0h-200Z" style="fill: none;"></path><g><g class="mark-group role-axis"><g transform="translate(0.5,0.5)"><path class="background" d="M0,0h0v0h0Z" style="pointer-events: none; fill: none;"></path><g><g class="mark-rule role-axis-tick" style="pointer-events: none;"><line transform="translate(0,0)" x2="0" y2="5" style="fill: none; stroke: #888; stroke-width: 1; opacity: 1;"></line><line transform="translate(40,0)" x2="0" y2="5" style="fill: none; stroke: #888; stroke-width: 1; opacity: 1;"></line><line transform="translate(80,0)" x2="0" y2="5" style="fill: none; stroke: #888; stroke-width: 1; opacity: 1;"></line><line transform="translate(120,0)" x2="0" y2="5" style="fill: none; stroke: #888; stroke-width: 1; opacity: 1;"></line><line transform="translate(160,0)" x2="0" y2="5" style="fill: none; stroke: #888; stroke-width: 1; opacity: 1;"></line><line transform="translate(200,0)" x2="0" y2="5" style="fill: none; stroke: #888; stroke-width: 1; opacity: 1;"></line></g><g class="mark-text role-axis-label" style="pointer-events: none;"><text text-anchor="start" transform="translate(0,15)" style="font: 10px sans-serif; fill: #000; opacity: 1;">0</text><text text-anchor="middle" transform="translate(40,15)" style="font: 10px sans-serif; fill: #000; opacity: 1;">100</text><text text-anchor="middle" transform="translate(80,15)" style="font: 10px sans-serif; fill: #000; opacity: 1;">200</text><text text-anchor="middle" transform="translate(120,15)" style="font: 10px sans-serif; fill: #000; opacity: 1;">300</text><text text-anchor="middle" transform="translate(160,15)" style="font: 10px sans-serif; fill: #000; opacity: 1;">400</text><text text-anchor="end" transform="translate(200,15)" style="font: 10px sans-serif; fill: #000; opacity: 1;">500</text></g><g class="mark-rule role-axis-domain" style="pointer-events: none;"><line transform="translate(0,0)" x2="200" y2="0" style="fill: none; stroke: #888; stroke-width: 1; opacity: 1;"></line></g><g class="mark-text role-axis-title" style="pointer-events: none;"><text text-anchor="middle" transform="translate(100,31)" style="font: bold 11px sans-serif; fill: #000; opacity: 1;">mass</text></g></g></g></g></g></g></g><g class="mark-group role-scope cell"><g transform="translate(0,0)"><path class="background" d="M0.5,0.5h200v200h-200Z" style="fill: none; stroke: #ddd;"></path><g><g class="mark-group role-axis"><g transform="translate(0.5,200.5)"><path class="background" d="M0,0h0v0h0Z" style="pointer-events: none; fill: none;"></path><g><g class="mark-rule role-axis-grid" style="pointer-events: none;"><line transform="translate(0,-200)" x2="0" y2="200" style="fill: none; stroke: #ddd; stroke-width: 1; opacity: 1;"></line><line transform="translate(40,-200)" x2="0" y2="200" style="fill: none; stroke: #ddd; stroke-width: 1; opacity: 1;"></line><line transform="translate(80,-200)" x2="0" y2="200" style="fill: none; stroke: #ddd; stroke-width: 1; opacity: 1;"></line><line transform="translate(120,-200)" x2="0" y2="200" style="fill: none; stroke: #ddd; stroke-width: 1; opacity: 1;"></line><line transform="translate(160,-200)" x2="0" y2="200" style="fill: none; stroke: #ddd; stroke-width: 1; opacity: 1;"></line><line transform="translate(200,-200)" x2="0" y2="200" style="fill: none; stroke: #ddd; stroke-width: 1; opacity: 1;"></line></g></g></g></g><g class="mark-group role-axis"><g transform="translate(0.5,0.5)"><path class="background" d="M0,0h0v0h0Z" style="pointer-events: none; fill: none;"></path><g><g class="mark-rule role-axis-grid" style="pointer-events: none;"><line transform="translate(0,200)" x2="200" y2="0" style="fill: none; stroke: #ddd; stroke-width: 1; opacity: 1;"></line><line transform="translate(0,164)" x2="200" y2="0" style="fill: none; stroke: #ddd; stroke-width: 1; opacity: 1;"></line><line transform="translate(0,127)" x2="200" y2="0" style="fill: none; stroke: #ddd; stroke-width: 1; opacity: 1;"></line><line transform="translate(0,91)" x2="200" y2="0" style="fill: none; stroke: #ddd; stroke-width: 1; opacity: 1;"></line><line transform="translate(0,55)" x2="200" y2="0" style="fill: none; stroke: #ddd; stroke-width: 1; opacity: 1;"></line><line transform="translate(0,18)" x2="200" y2="0" style="fill: none; stroke: #ddd; stroke-width: 1; opacity: 1;"></line></g></g></g></g><g class="mark-group role-scope child_pathgroup"><g transform="translate(0,0)"><path class="background" d="M0,0h200v200h-200Z" style="fill: none;"></path><g><g class="mark-line role-mark child_marks"><path d="M200,185.45454545454547L200,200L198,200L198,200L196,200L196,196.36363636363637L194,196.36363636363637L194,200L192,200L192,200L190,200L190,200L188,200L188,200L186,200L186,200L184,200L184,200L182,200L182,200L180,200L180,200L178,200L178,200L176,200L176,196.36363636363637L174,196.36363636363637L174,200L172,200L172,200L170,200L170,200L168,200L168,200L166,200L166,200L164,200L164,200L162,200L162,200L160,200L160,200L158,200L158,200L156,200L156,196.36363636363637L154,196.36363636363637L154,200L152,200L152,200L150,200L150,196.36363636363637L148,196.36363636363637L148,200L146,200L146,192.72727272727272L144,192.72727272727272L144,200L142,200L142,200L140,200L140,200L138,200L138,196.36363636363637L136,196.36363636363637L136,200L134,200L134,196.36363636363637L132,196.36363636363637L132,189.0909090909091L130,189.0909090909091L130,200L128,200L128,192.72727272727272L126,192.72727272727272L126,192.72727272727272L124,192.72727272727272L124,196.36363636363637L122,196.36363636363637L122,200L120,200L120,200L118,200L118,200L115.99999999999999,200L115.99999999999999,196.36363636363637L113.99999999999999,196.36363636363637L113.99999999999999,196.36363636363637L112.00000000000001,196.36363636363637L112.00000000000001,196.36363636363637L110.00000000000001,196.36363636363637L110.00000000000001,192.72727272727272L108,192.72727272727272L108,189.0909090909091L106,189.0909090909091L106,196.36363636363637L104,196.36363636363637L104,189.0909090909091L102,189.0909090909091L102,192.72727272727272L100,192.72727272727272L100,200L98,200L98,196.36363636363637L96,196.36363636363637L96,192.72727272727272L94,192.72727272727272L94,192.72727272727272L92,192.72727272727272L92,178.1818181818182L90,178.1818181818182L90,181.8181818181818L88,181.8181818181818L88,192.72727272727272L86,192.72727272727272L86,185.45454545454547L84,185.45454545454547L84,174.54545454545456L82,174.54545454545456L82,181.8181818181818L80,181.8181818181818L80,185.45454545454547L78,185.45454545454547L78,189.0909090909091L76,189.0909090909091L76,178.1818181818182L74,178.1818181818182L74,170.9090909090909L72,170.9090909090909L72,185.45454545454547L70,185.45454545454547L70,170.9090909090909L68,170.9090909090909L68,174.54545454545456L66,174.54545454545456L66,185.45454545454547L64,185.45454545454547L64,189.0909090909091L62,189.0909090909091L62,178.1818181818182L60,178.1818181818182L60,185.45454545454547L57.99999999999999,185.45454545454547L57.99999999999999,170.9090909090909L56.00000000000001,170.9090909090909L56.00000000000001,174.54545454545456L54,174.54545454545456L54,178.1818181818182L52,178.1818181818182L52,178.1818181818182L50,178.1818181818182L50,156.36363636363637L48,156.36363636363637L48,152.72727272727272L46,152.72727272727272L46,130.9090909090909L44,130.9090909090909L44,152.72727272727272L42,152.72727272727272L42,145.45454545454547L40,145.45454545454547L40,152.72727272727272L38,152.72727272727272L38,134.54545454545456L36,134.54545454545456L36,138.1818181818182L34,138.1818181818182L34,134.54545454545456L32,134.54545454545456L32,98.18181818181819L30,98.18181818181819L30,138.1818181818182L28.000000000000004,138.1818181818182L28.000000000000004,127.27272727272727L26,127.27272727272727L26,138.1818181818182L24,138.1818181818182L24,130.9090909090909L22,130.9090909090909L22,145.45454545454547L20,145.45454545454547L20,163.63636363636363L18,163.63636363636363L18,141.8181818181818L16,141.8181818181818L16,120L14.000000000000002,120L14.000000000000002,134.54545454545456L12,134.54545454545456L12,167.27272727272728L10,167.27272727272728L10,156.36363636363637L8,156.36363636363637L8,167.27272727272728L6,167.27272727272728L6,178.1818181818182L4,178.1818181818182L4,189.0909090909091L2,189.0909090909091L2,196.36363636363637L0,196.36363636363637" style="fill: none; stroke: #4c78a8; stroke-width: 2;"></path></g></g></g><g transform="translate(0,0)"><path class="background" d="M0,0h200v200h-200Z" style="fill: none;"></path><g><g class="mark-line role-mark child_marks"><path d="M200,170.9090909090909L200,200L198,200L198,200L196,200L196,200L194,200L194,200L192,200L192,200L190,200L190,196.36363636363637L188,196.36363636363637L188,200L186,200L186,200L184,200L184,192.72727272727272L182,192.72727272727272L182,200L180,200L180,200L178,200L178,200L176,200L176,200L174,200L174,196.36363636363637L172,196.36363636363637L172,196.36363636363637L170,196.36363636363637L170,200L168,200L168,200L166,200L166,200L164,200L164,196.36363636363637L162,196.36363636363637L162,200L160,200L160,200L158,200L158,200L156,200L156,196.36363636363637L154,196.36363636363637L154,196.36363636363637L152,196.36363636363637L152,196.36363636363637L150,196.36363636363637L150,200L148,200L148,200L146,200L146,196.36363636363637L144,196.36363636363637L144,200L142,200L142,196.36363636363637L140,196.36363636363637L140,200L138,200L138,196.36363636363637L136,196.36363636363637L136,200L134,200L134,200L132,200L132,196.36363636363637L130,196.36363636363637L130,189.0909090909091L128,189.0909090909091L128,189.0909090909091L126,189.0909090909091L126,200L124,200L124,192.72727272727272L122,192.72727272727272L122,200L120,200L120,192.72727272727272L118,192.72727272727272L118,200L115.99999999999999,200L115.99999999999999,185.45454545454547L113.99999999999999,185.45454545454547L113.99999999999999,189.0909090909091L112.00000000000001,189.0909090909091L112.00000000000001,200L110.00000000000001,200L110.00000000000001,196.36363636363637L108,196.36363636363637L108,189.0909090909091L106,189.0909090909091L106,196.36363636363637L104,196.36363636363637L104,189.0909090909091L102,189.0909090909091L102,178.1818181818182L100,178.1818181818182L100,189.0909090909091L98,189.0909090909091L98,185.45454545454547L96,185.45454545454547L96,185.45454545454547L94,185.45454545454547L94,192.72727272727272L92,192.72727272727272L92,181.8181818181818L90,181.8181818181818L90,192.72727272727272L88,192.72727272727272L88,170.9090909090909L86,170.9090909090909L86,196.36363636363637L84,196.36363636363637L84,178.1818181818182L82,178.1818181818182L82,174.54545454545456L80,174.54545454545456L80,170.9090909090909L78,170.9090909090909L78,170.9090909090909L76,170.9090909090909L76,178.1818181818182L74,178.1818181818182L74,181.8181818181818L72,181.8181818181818L72,181.8181818181818L70,181.8181818181818L70,156.36363636363637L68,156.36363636363637L68,160L66,160L66,149.0909090909091L64,149.0909090909091L64,170.9090909090909L62,170.9090909090909L62,181.8181818181818L60,181.8181818181818L60,160L57.99999999999999,160L57.99999999999999,134.54545454545456L56.00000000000001,134.54545454545456L56.00000000000001,160L54,160L54,149.0909090909091L52,149.0909090909091L52,163.63636363636363L50,163.63636363636363L50,134.54545454545456L48,134.54545454545456L48,69.0909090909091L46,69.0909090909091L46,127.27272727272727L44,127.27272727272727L44,109.0909090909091L42,109.0909090909091L42,116.36363636363637L40,116.36363636363637L40,112.72727272727273L38,112.72727272727273L38,80L36,80L36,43.636363636363626L34,43.636363636363626L34,47.27272727272725L32,47.27272727272725L32,69.0909090909091L30,69.0909090909091L30,54.54545454545453L28.000000000000004,54.54545454545453L28.000000000000004,83.63636363636364L26,83.63636363636364L26,83.63636363636364L24,83.63636363636364L24,65.45454545454547L22,65.45454545454547L22,7.2727272727272805L20,7.2727272727272805L20,50.90909090909091L18,50.90909090909091L18,32.72727272727275L16,32.72727272727275L16,76.36363636363637L14.000000000000002,76.36363636363637L14.000000000000002,116.36363636363637L12,116.36363636363637L12,116.36363636363637L10,116.36363636363637L10,138.1818181818182L8,138.1818181818182L8,101.81818181818181L6,101.81818181818181L6,160L4,160L4,167.27272727272728L2,167.27272727272728L2,185.45454545454547L0,185.45454545454547" style="fill: none; stroke: #f58518; stroke-width: 2;"></path></g></g></g></g></g></g><g transform="translate(216,0)"><path class="background" d="M0.5,0.5h200v200h-200Z" style="fill: none; stroke: #ddd;"></path><g><g class="mark-group role-axis"><g transform="translate(0.5,200.5)"><path class="background" d="M0,0h0v0h0Z" style="pointer-events: none; fill: none;"></path><g><g class="mark-rule role-axis-grid" style="pointer-events: none;"><line transform="translate(0,-200)" x2="0" y2="200" style="fill: none; stroke: #ddd; stroke-width: 1; opacity: 1;"></line><line transform="translate(40,-200)" x2="0" y2="200" style="fill: none; stroke: #ddd; stroke-width: 1; opacity: 1;"></line><line transform="translate(80,-200)" x2="0" y2="200" style="fill: none; stroke: #ddd; stroke-width: 1; opacity: 1;"></line><line transform="translate(120,-200)" x2="0" y2="200" style="fill: none; stroke: #ddd; stroke-width: 1; opacity: 1;"></line><line transform="translate(160,-200)" x2="0" y2="200" style="fill: none; stroke: #ddd; stroke-width: 1; opacity: 1;"></line><line transform="translate(200,-200)" x2="0" y2="200" style="fill: none; stroke: #ddd; stroke-width: 1; opacity: 1;"></line></g></g></g></g><g class="mark-group role-axis"><g transform="translate(0.5,0.5)"><path class="background" d="M0,0h0v0h0Z" style="pointer-events: none; fill: none;"></path><g><g class="mark-rule role-axis-grid" style="pointer-events: none;"><line transform="translate(0,200)" x2="200" y2="0" style="fill: none; stroke: #ddd; stroke-width: 1; opacity: 1;"></line><line transform="translate(0,164)" x2="200" y2="0" style="fill: none; stroke: #ddd; stroke-width: 1; opacity: 1;"></line><line transform="translate(0,127)" x2="200" y2="0" style="fill: none; stroke: #ddd; stroke-width: 1; opacity: 1;"></line><line transform="translate(0,91)" x2="200" y2="0" style="fill: none; stroke: #ddd; stroke-width: 1; opacity: 1;"></line><line transform="translate(0,55)" x2="200" y2="0" style="fill: none; stroke: #ddd; stroke-width: 1; opacity: 1;"></line><line transform="translate(0,18)" x2="200" y2="0" style="fill: none; stroke: #ddd; stroke-width: 1; opacity: 1;"></line></g></g></g></g><g class="mark-group role-scope child_pathgroup"><g transform="translate(0,0)"><path class="background" d="M0,0h200v200h-200Z" style="fill: none;"></path><g><g class="mark-line role-mark child_marks"><path d="M200,196.36363636363637L200,200L198,200L198,200L196,200L196,200L194,200L194,200L192,200L192,200L190,200L190,200L188,200L188,200L186,200L186,200L184,200L184,200L182,200L182,200L180,200L180,200L178,200L178,200L176,200L176,200L174,200L174,200L172,200L172,200L170,200L170,200L168,200L168,200L166,200L166,200L164,200L164,200L162,200L162,200L160,200L160,200L158,200L158,200L156,200L156,200L154,200L154,200L152,200L152,200L150,200L150,200L148,200L148,200L146,200L146,200L144,200L144,200L142,200L142,200L140,200L140,200L138,200L138,196.36363636363637L136,196.36363636363637L136,200L134,200L134,200L132,200L132,200L130,200L130,200L128,200L128,200L126,200L126,200L124,200L124,200L122,200L122,200L120,200L120,200L118,200L118,200L115.99999999999999,200L115.99999999999999,200L113.99999999999999,200L113.99999999999999,200L112.00000000000001,200L112.00000000000001,200L110.00000000000001,200L110.00000000000001,200L108,200L108,200L106,200L106,200L104,200L104,200L102,200L102,196.36363636363637L100,196.36363636363637L100,200L98,200L98,189.0909090909091L96,189.0909090909091L96,200L94,200L94,200L92,200L92,196.36363636363637L90,196.36363636363637L90,200L88,200L88,200L86,200L86,200L84,200L84,196.36363636363637L82,196.36363636363637L82,200L80,200L80,196.36363636363637L78,196.36363636363637L78,200L76,200L76,200L74,200L74,200L72,200L72,200L70,200L70,200L68,200L68,200L66,200L66,200L64,200L64,196.36363636363637L62,196.36363636363637L62,196.36363636363637L60,196.36363636363637L60,200L57.99999999999999,200L57.99999999999999,200L56.00000000000001,200L56.00000000000001,196.36363636363637L54,196.36363636363637L54,192.72727272727272L52,192.72727272727272L52,196.36363636363637L50,196.36363636363637L50,200L48,200L48,192.72727272727272L46,192.72727272727272L46,196.36363636363637L44,196.36363636363637L44,192.72727272727272L42,192.72727272727272L42,189.0909090909091L40,189.0909090909091L40,189.0909090909091L38,189.0909090909091L38,200L36,200L36,189.0909090909091L34,189.0909090909091L34,192.72727272727272L32,192.72727272727272L32,192.72727272727272L30,192.72727272727272L30,189.0909090909091L28.000000000000004,189.0909090909091L28.000000000000004,181.8181818181818L26,181.8181818181818L26,189.0909090909091L24,189.0909090909091L24,189.0909090909091L22,189.0909090909091L22,192.72727272727272L20,192.72727272727272L20,185.45454545454547L18,185.45454545454547L18,196.36363636363637L16,196.36363636363637L16,178.1818181818182L14.000000000000002,178.1818181818182L14.000000000000002,185.45454545454547L12,185.45454545454547L12,192.72727272727272L10,192.72727272727272L10,200L8,200L8,196.36363636363637L6,196.36363636363637L6,196.36363636363637L4,196.36363636363637L4,196.36363636363637L2,196.36363636363637L2,200L0,200" style="fill: none; stroke: #4c78a8; stroke-width: 2;"></path></g></g></g><g transform="translate(0,0)"><path class="background" d="M0,0h200v200h-200Z" style="fill: none;"></path><g><g class="mark-line role-mark child_marks"><path d="M200,192.72727272727272L200,200L198,200L198,200L196,200L196,200L194,200L194,200L192,200L192,200L190,200L190,200L188,200L188,200L186,200L186,200L184,200L184,200L182,200L182,200L180,200L180,200L178,200L178,200L176,200L176,200L174,200L174,200L172,200L172,200L170,200L170,200L168,200L168,200L166,200L166,200L164,200L164,200L162,200L162,200L160,200L160,200L158,200L158,200L156,200L156,200L154,200L154,200L152,200L152,200L150,200L150,200L148,200L148,200L146,200L146,200L144,200L144,200L142,200L142,200L140,200L140,200L138,200L138,200L136,200L136,200L134,200L134,200L132,200L132,200L130,200L130,200L128,200L128,200L126,200L126,200L124,200L124,200L122,200L122,200L120,200L120,200L118,200L118,196.36363636363637L115.99999999999999,196.36363636363637L115.99999999999999,200L113.99999999999999,200L113.99999999999999,200L112.00000000000001,200L112.00000000000001,200L110.00000000000001,200L110.00000000000001,200L108,200L108,196.36363636363637L106,196.36363636363637L106,200L104,200L104,196.36363636363637L102,196.36363636363637L102,196.36363636363637L100,196.36363636363637L100,200L98,200L98,200L96,200L96,200L94,200L94,200L92,200L92,200L90,200L90,196.36363636363637L88,196.36363636363637L88,200L86,200L86,200L84,200L84,200L82,200L82,200L80,200L80,200L78,200L78,200L76,200L76,196.36363636363637L74,196.36363636363637L74,196.36363636363637L72,196.36363636363637L72,196.36363636363637L70,196.36363636363637L70,196.36363636363637L68,196.36363636363637L68,189.0909090909091L66,189.0909090909091L66,196.36363636363637L64,196.36363636363637L64,192.72727272727272L62,192.72727272727272L62,196.36363636363637L60,196.36363636363637L60,196.36363636363637L57.99999999999999,196.36363636363637L57.99999999999999,189.0909090909091L56.00000000000001,189.0909090909091L56.00000000000001,192.72727272727272L54,192.72727272727272L54,192.72727272727272L52,192.72727272727272L52,200L50,200L50,189.0909090909091L48,189.0909090909091L48,189.0909090909091L46,189.0909090909091L46,196.36363636363637L44,196.36363636363637L44,192.72727272727272L42,192.72727272727272L42,181.8181818181818L40,181.8181818181818L40,174.54545454545456L38,174.54545454545456L38,170.9090909090909L36,170.9090909090909L36,170.9090909090909L34,170.9090909090909L34,181.8181818181818L32,181.8181818181818L32,156.36363636363637L30,156.36363636363637L30,185.45454545454547L28.000000000000004,185.45454545454547L28.000000000000004,174.54545454545456L26,174.54545454545456L26,163.63636363636363L24,163.63636363636363L24,160L22,160L22,163.63636363636363L20,163.63636363636363L20,160L18,160L18,174.54545454545456L16,174.54545454545456L16,156.36363636363637L14.000000000000002,156.36363636363637L14.000000000000002,181.8181818181818L12,181.8181818181818L12,181.8181818181818L10,181.8181818181818L10,174.54545454545456L8,174.54545454545456L8,181.8181818181818L6,181.8181818181818L6,192.72727272727272L4,192.72727272727272L4,196.36363636363637L2,196.36363636363637L2,196.36363636363637L0,196.36363636363637" style="fill: none; stroke: #f58518; stroke-width: 2;"></path></g></g></g></g></g></g><g transform="translate(432,0)"><path class="background" d="M0.5,0.5h200v200h-200Z" style="fill: none; stroke: #ddd;"></path><g><g class="mark-group role-axis"><g transform="translate(0.5,200.5)"><path class="background" d="M0,0h0v0h0Z" style="pointer-events: none; fill: none;"></path><g><g class="mark-rule role-axis-grid" style="pointer-events: none;"><line transform="translate(0,-200)" x2="0" y2="200" style="fill: none; stroke: #ddd; stroke-width: 1; opacity: 1;"></line><line transform="translate(40,-200)" x2="0" y2="200" style="fill: none; stroke: #ddd; stroke-width: 1; opacity: 1;"></line><line transform="translate(80,-200)" x2="0" y2="200" style="fill: none; stroke: #ddd; stroke-width: 1; opacity: 1;"></line><line transform="translate(120,-200)" x2="0" y2="200" style="fill: none; stroke: #ddd; stroke-width: 1; opacity: 1;"></line><line transform="translate(160,-200)" x2="0" y2="200" style="fill: none; stroke: #ddd; stroke-width: 1; opacity: 1;"></line><line transform="translate(200,-200)" x2="0" y2="200" style="fill: none; stroke: #ddd; stroke-width: 1; opacity: 1;"></line></g></g></g></g><g class="mark-group role-axis"><g transform="translate(0.5,0.5)"><path class="background" d="M0,0h0v0h0Z" style="pointer-events: none; fill: none;"></path><g><g class="mark-rule role-axis-grid" style="pointer-events: none;"><line transform="translate(0,200)" x2="200" y2="0" style="fill: none; stroke: #ddd; stroke-width: 1; opacity: 1;"></line><line transform="translate(0,164)" x2="200" y2="0" style="fill: none; stroke: #ddd; stroke-width: 1; opacity: 1;"></line><line transform="translate(0,127)" x2="200" y2="0" style="fill: none; stroke: #ddd; stroke-width: 1; opacity: 1;"></line><line transform="translate(0,91)" x2="200" y2="0" style="fill: none; stroke: #ddd; stroke-width: 1; opacity: 1;"></line><line transform="translate(0,55)" x2="200" y2="0" style="fill: none; stroke: #ddd; stroke-width: 1; opacity: 1;"></line><line transform="translate(0,18)" x2="200" y2="0" style="fill: none; stroke: #ddd; stroke-width: 1; opacity: 1;"></line></g></g></g></g><g class="mark-group role-scope child_pathgroup"><g transform="translate(0,0)"><path class="background" d="M0,0h200v200h-200Z" style="fill: none;"></path><g><g class="mark-line role-mark child_marks"><path d="M200,196.36363636363637L200,200L198,200L198,200L196,200L196,200L194,200L194,200L192,200L192,200L190,200L190,200L188,200L188,200L186,200L186,200L184,200L184,200L182,200L182,200L180,200L180,200L178,200L178,200L176,200L176,192.72727272727272L174,192.72727272727272L174,200L172,200L172,200L170,200L170,200L168,200L168,200L166,200L166,200L164,200L164,200L162,200L162,200L160,200L160,200L158,200L158,200L156,200L156,196.36363636363637L154,196.36363636363637L154,196.36363636363637L152,196.36363636363637L152,200L150,200L150,200L148,200L148,200L146,200L146,200L144,200L144,200L142,200L142,200L140,200L140,200L138,200L138,200L136,200L136,200L134,200L134,200L132,200L132,200L130,200L130,200L128,200L128,196.36363636363637L126,196.36363636363637L126,200L124,200L124,200L122,200L122,200L120,200L120,196.36363636363637L118,196.36363636363637L118,200L115.99999999999999,200L115.99999999999999,196.36363636363637L113.99999999999999,196.36363636363637L113.99999999999999,200L112.00000000000001,200L112.00000000000001,200L110.00000000000001,200L110.00000000000001,200L108,200L108,200L106,200L106,200L104,200L104,200L102,200L102,196.36363636363637L100,196.36363636363637L100,200L98,200L98,196.36363636363637L96,196.36363636363637L96,192.72727272727272L94,192.72727272727272L94,192.72727272727272L92,192.72727272727272L92,200L90,200L90,200L88,200L88,196.36363636363637L86,196.36363636363637L86,200L84,200L84,200L82,200L82,196.36363636363637L80,196.36363636363637L80,200L78,200L78,192.72727272727272L76,192.72727272727272L76,196.36363636363637L74,196.36363636363637L74,192.72727272727272L72,192.72727272727272L72,200L70,200L70,196.36363636363637L68,196.36363636363637L68,200L66,200L66,200L64,200L64,196.36363636363637L62,196.36363636363637L62,192.72727272727272L60,192.72727272727272L60,196.36363636363637L57.99999999999999,196.36363636363637L57.99999999999999,196.36363636363637L56.00000000000001,196.36363636363637L56.00000000000001,192.72727272727272L54,192.72727272727272L54,192.72727272727272L52,192.72727272727272L52,200L50,200L50,196.36363636363637L48,196.36363636363637L48,192.72727272727272L46,192.72727272727272L46,192.72727272727272L44,192.72727272727272L44,196.36363636363637L42,196.36363636363637L42,192.72727272727272L40,192.72727272727272L40,189.0909090909091L38,189.0909090909091L38,185.45454545454547L36,185.45454545454547L36,189.0909090909091L34,189.0909090909091L34,192.72727272727272L32,192.72727272727272L32,189.0909090909091L30,189.0909090909091L30,181.8181818181818L28.000000000000004,181.8181818181818L28.000000000000004,189.0909090909091L26,189.0909090909091L26,181.8181818181818L24,181.8181818181818L24,185.45454545454547L22,185.45454545454547L22,178.1818181818182L20,178.1818181818182L20,167.27272727272728L18,167.27272727272728L18,170.9090909090909L16,170.9090909090909L16,167.27272727272728L14.000000000000002,167.27272727272728L14.000000000000002,181.8181818181818L12,181.8181818181818L12,185.45454545454547L10,185.45454545454547L10,185.45454545454547L8,185.45454545454547L8,185.45454545454547L6,185.45454545454547L6,189.0909090909091L4,189.0909090909091L4,196.36363636363637L2,196.36363636363637L2,200L0,200" style="fill: none; stroke: #4c78a8; stroke-width: 2;"></path></g></g></g><g transform="translate(0,0)"><path class="background" d="M0,0h200v200h-200Z" style="fill: none;"></path><g><g class="mark-line role-mark child_marks"><path d="M200,196.36363636363637L200,200L198,200L198,200L196,200L196,200L194,200L194,200L192,200L192,200L190,200L190,200L188,200L188,200L186,200L186,200L184,200L184,200L182,200L182,200L180,200L180,200L178,200L178,200L176,200L176,200L174,200L174,200L172,200L172,200L170,200L170,200L168,200L168,200L166,200L166,196.36363636363637L164,196.36363636363637L164,200L162,200L162,200L160,200L160,196.36363636363637L158,196.36363636363637L158,192.72727272727272L156,192.72727272727272L156,200L154,200L154,200L152,200L152,200L150,200L150,200L148,200L148,200L146,200L146,200L144,200L144,196.36363636363637L142,196.36363636363637L142,200L140,200L140,200L138,200L138,200L136,200L136,200L134,200L134,196.36363636363637L132,196.36363636363637L132,200L130,200L130,200L128,200L128,200L126,200L126,200L124,200L124,200L122,200L122,200L120,200L120,200L118,200L118,192.72727272727272L115.99999999999999,192.72727272727272L115.99999999999999,196.36363636363637L113.99999999999999,196.36363636363637L113.99999999999999,200L112.00000000000001,200L112.00000000000001,200L110.00000000000001,200L110.00000000000001,200L108,200L108,200L106,200L106,200L104,200L104,200L102,200L102,200L100,200L100,200L98,200L98,196.36363636363637L96,196.36363636363637L96,196.36363636363637L94,196.36363636363637L94,200L92,200L92,200L90,200L90,200L88,200L88,196.36363636363637L86,196.36363636363637L86,200L84,200L84,192.72727272727272L82,192.72727272727272L82,200L80,200L80,196.36363636363637L78,196.36363636363637L78,192.72727272727272L76,192.72727272727272L76,196.36363636363637L74,196.36363636363637L74,192.72727272727272L72,192.72727272727272L72,196.36363636363637L70,196.36363636363637L70,192.72727272727272L68,192.72727272727272L68,196.36363636363637L66,196.36363636363637L66,196.36363636363637L64,196.36363636363637L64,192.72727272727272L62,192.72727272727272L62,189.0909090909091L60,189.0909090909091L60,189.0909090909091L57.99999999999999,189.0909090909091L57.99999999999999,196.36363636363637L56.00000000000001,196.36363636363637L56.00000000000001,196.36363636363637L54,196.36363636363637L54,196.36363636363637L52,196.36363636363637L52,189.0909090909091L50,189.0909090909091L50,189.0909090909091L48,189.0909090909091L48,178.1818181818182L46,178.1818181818182L46,185.45454545454547L44,185.45454545454547L44,196.36363636363637L42,196.36363636363637L42,178.1818181818182L40,178.1818181818182L40,189.0909090909091L38,189.0909090909091L38,192.72727272727272L36,192.72727272727272L36,178.1818181818182L34,178.1818181818182L34,178.1818181818182L32,178.1818181818182L32,181.8181818181818L30,181.8181818181818L30,189.0909090909091L28.000000000000004,189.0909090909091L28.000000000000004,160L26,160L26,145.45454545454547L24,145.45454545454547L24,163.63636363636363L22,163.63636363636363L22,174.54545454545456L20,174.54545454545456L20,174.54545454545456L18,174.54545454545456L18,152.72727272727272L16,152.72727272727272L16,178.1818181818182L14.000000000000002,178.1818181818182L14.000000000000002,167.27272727272728L12,167.27272727272728L12,170.9090909090909L10,170.9090909090909L10,192.72727272727272L8,192.72727272727272L8,181.8181818181818L6,181.8181818181818L6,189.0909090909091L4,189.0909090909091L4,189.0909090909091L2,189.0909090909091L2,200L0,200" style="fill: none; stroke: #f58518; stroke-width: 2;"></path></g></g></g></g></g></g><g transform="translate(0,214)"><path class="background" d="M0.5,0.5h200v200h-200Z" style="fill: none; stroke: #ddd;"></path><g><g class="mark-group role-axis"><g transform="translate(0.5,200.5)"><path class="background" d="M0,0h0v0h0Z" style="pointer-events: none; fill: none;"></path><g><g class="mark-rule role-axis-grid" style="pointer-events: none;"><line transform="translate(0,-200)" x2="0" y2="200" style="fill: none; stroke: #ddd; stroke-width: 1; opacity: 1;"></line><line transform="translate(40,-200)" x2="0" y2="200" style="fill: none; stroke: #ddd; stroke-width: 1; opacity: 1;"></line><line transform="translate(80,-200)" x2="0" y2="200" style="fill: none; stroke: #ddd; stroke-width: 1; opacity: 1;"></line><line transform="translate(120,-200)" x2="0" y2="200" style="fill: none; stroke: #ddd; stroke-width: 1; opacity: 1;"></line><line transform="translate(160,-200)" x2="0" y2="200" style="fill: none; stroke: #ddd; stroke-width: 1; opacity: 1;"></line><line transform="translate(200,-200)" x2="0" y2="200" style="fill: none; stroke: #ddd; stroke-width: 1; opacity: 1;"></line></g></g></g></g><g class="mark-group role-axis"><g transform="translate(0.5,0.5)"><path class="background" d="M0,0h0v0h0Z" style="pointer-events: none; fill: none;"></path><g><g class="mark-rule role-axis-grid" style="pointer-events: none;"><line transform="translate(0,200)" x2="200" y2="0" style="fill: none; stroke: #ddd; stroke-width: 1; opacity: 1;"></line><line transform="translate(0,164)" x2="200" y2="0" style="fill: none; stroke: #ddd; stroke-width: 1; opacity: 1;"></line><line transform="translate(0,127)" x2="200" y2="0" style="fill: none; stroke: #ddd; stroke-width: 1; opacity: 1;"></line><line transform="translate(0,91)" x2="200" y2="0" style="fill: none; stroke: #ddd; stroke-width: 1; opacity: 1;"></line><line transform="translate(0,55)" x2="200" y2="0" style="fill: none; stroke: #ddd; stroke-width: 1; opacity: 1;"></line><line transform="translate(0,18)" x2="200" y2="0" style="fill: none; stroke: #ddd; stroke-width: 1; opacity: 1;"></line></g></g></g></g><g class="mark-group role-scope child_pathgroup"><g transform="translate(0,0)"><path class="background" d="M0,0h200v200h-200Z" style="fill: none;"></path><g><g class="mark-line role-mark child_marks"><path d="M200,200L200,200L198,200L198,200L196,200L196,200L194,200L194,200L192,200L192,200L190,200L190,200L188,200L188,200L186,200L186,200L184,200L184,200L182,200L182,200L180,200L180,200L178,200L178,200L176,200L176,200L174,200L174,200L172,200L172,200L170,200L170,200L168,200L168,200L166,200L166,200L164,200L164,200L162,200L162,200L160,200L160,200L158,200L158,200L156,200L156,200L154,200L154,200L152,200L152,200L150,200L150,200L148,200L148,200L146,200L146,200L144,200L144,200L142,200L142,200L140,200L140,200L138,200L138,200L136,200L136,200L134,200L134,192.72727272727272L132,192.72727272727272L132,200L130,200L130,200L128,200L128,200L126,200L126,200L124,200L124,200L122,200L122,200L120,200L120,200L118,200L118,200L115.99999999999999,200L115.99999999999999,200L113.99999999999999,200L113.99999999999999,200L112.00000000000001,200L112.00000000000001,200L110.00000000000001,200L110.00000000000001,196.36363636363637L108,196.36363636363637L108,200L106,200L106,200L104,200L104,200L102,200L102,200L100,200L100,200L98,200L98,200L96,200L96,196.36363636363637L94,196.36363636363637L94,192.72727272727272L92,192.72727272727272L92,196.36363636363637L90,196.36363636363637L90,196.36363636363637L88,196.36363636363637L88,196.36363636363637L86,196.36363636363637L86,200L84,200L84,200L82,200L82,200L80,200L80,200L78,200L78,196.36363636363637L76,196.36363636363637L76,196.36363636363637L74,196.36363636363637L74,200L72,200L72,200L70,200L70,196.36363636363637L68,196.36363636363637L68,200L66,200L66,196.36363636363637L64,196.36363636363637L64,200L62,200L62,189.0909090909091L60,189.0909090909091L60,189.0909090909091L57.99999999999999,189.0909090909091L57.99999999999999,192.72727272727272L56.00000000000001,192.72727272727272L56.00000000000001,200L54,200L54,196.36363636363637L52,196.36363636363637L52,200L50,200L50,200L48,200L48,196.36363636363637L46,196.36363636363637L46,189.0909090909091L44,189.0909090909091L44,185.45454545454547L42,185.45454545454547L42,181.8181818181818L40,181.8181818181818L40,196.36363636363637L38,196.36363636363637L38,196.36363636363637L36,196.36363636363637L36,192.72727272727272L34,192.72727272727272L34,192.72727272727272L32,192.72727272727272L32,178.1818181818182L30,178.1818181818182L30,189.0909090909091L28.000000000000004,189.0909090909091L28.000000000000004,185.45454545454547L26,185.45454545454547L26,189.0909090909091L24,189.0909090909091L24,196.36363636363637L22,196.36363636363637L22,181.8181818181818L20,181.8181818181818L20,192.72727272727272L18,192.72727272727272L18,200L16,200L16,189.0909090909091L14.000000000000002,189.0909090909091L14.000000000000002,189.0909090909091L12,189.0909090909091L12,192.72727272727272L10,192.72727272727272L10,200L8,200L8,200L6,200L6,200L4,200L4,200L2,200L2,196.36363636363637L0,196.36363636363637" style="fill: none; stroke: #4c78a8; stroke-width: 2;"></path></g></g></g><g transform="translate(0,0)"><path class="background" d="M0,0h200v200h-200Z" style="fill: none;"></path><g><g class="mark-line role-mark child_marks"><path d="M200,192.72727272727272L200,200L198,200L198,200L196,200L196,200L194,200L194,200L192,200L192,200L190,200L190,200L188,200L188,200L186,200L186,200L184,200L184,200L182,200L182,200L180,200L180,200L178,200L178,200L176,200L176,200L174,200L174,200L172,200L172,200L170,200L170,200L168,200L168,200L166,200L166,200L164,200L164,200L162,200L162,200L160,200L160,200L158,200L158,200L156,200L156,196.36363636363637L154,196.36363636363637L154,200L152,200L152,200L150,200L150,200L148,200L148,200L146,200L146,200L144,200L144,200L142,200L142,200L140,200L140,200L138,200L138,200L136,200L136,200L134,200L134,200L132,200L132,196.36363636363637L130,196.36363636363637L130,200L128,200L128,200L126,200L126,200L124,200L124,200L122,200L122,200L120,200L120,200L118,200L118,200L115.99999999999999,200L115.99999999999999,200L113.99999999999999,200L113.99999999999999,200L112.00000000000001,200L112.00000000000001,200L110.00000000000001,200L110.00000000000001,196.36363636363637L108,196.36363636363637L108,200L106,200L106,192.72727272727272L104,192.72727272727272L104,196.36363636363637L102,196.36363636363637L102,196.36363636363637L100,196.36363636363637L100,200L98,200L98,200L96,200L96,200L94,200L94,200L92,200L92,196.36363636363637L90,196.36363636363637L90,200L88,200L88,189.0909090909091L86,189.0909090909091L86,200L84,200L84,196.36363636363637L82,196.36363636363637L82,196.36363636363637L80,196.36363636363637L80,200L78,200L78,196.36363636363637L76,196.36363636363637L76,200L74,200L74,192.72727272727272L72,192.72727272727272L72,196.36363636363637L70,196.36363636363637L70,192.72727272727272L68,192.72727272727272L68,200L66,200L66,192.72727272727272L64,192.72727272727272L64,189.0909090909091L62,189.0909090909091L62,200L60,200L60,196.36363636363637L57.99999999999999,196.36363636363637L57.99999999999999,196.36363636363637L56.00000000000001,196.36363636363637L56.00000000000001,196.36363636363637L54,196.36363636363637L54,200L52,200L52,192.72727272727272L50,192.72727272727272L50,196.36363636363637L48,196.36363636363637L48,185.45454545454547L46,185.45454545454547L46,200L44,200L44,192.72727272727272L42,192.72727272727272L42,192.72727272727272L40,192.72727272727272L40,189.0909090909091L38,189.0909090909091L38,189.0909090909091L36,189.0909090909091L36,192.72727272727272L34,192.72727272727272L34,181.8181818181818L32,181.8181818181818L32,185.45454545454547L30,185.45454545454547L30,192.72727272727272L28.000000000000004,192.72727272727272L28.000000000000004,185.45454545454547L26,185.45454545454547L26,170.9090909090909L24,170.9090909090909L24,170.9090909090909L22,170.9090909090909L22,181.8181818181818L20,181.8181818181818L20,178.1818181818182L18,178.1818181818182L18,167.27272727272728L16,167.27272727272728L16,178.1818181818182L14.000000000000002,178.1818181818182L14.000000000000002,185.45454545454547L12,185.45454545454547L12,192.72727272727272L10,192.72727272727272L10,192.72727272727272L8,192.72727272727272L8,192.72727272727272L6,192.72727272727272L6,192.72727272727272L4,192.72727272727272L4,196.36363636363637L2,196.36363636363637L2,200L0,200" style="fill: none; stroke: #f58518; stroke-width: 2;"></path></g></g></g></g></g></g><g transform="translate(216,214)"><path class="background" d="M0.5,0.5h200v200h-200Z" style="fill: none; stroke: #ddd;"></path><g><g class="mark-group role-axis"><g transform="translate(0.5,200.5)"><path class="background" d="M0,0h0v0h0Z" style="pointer-events: none; fill: none;"></path><g><g class="mark-rule role-axis-grid" style="pointer-events: none;"><line transform="translate(0,-200)" x2="0" y2="200" style="fill: none; stroke: #ddd; stroke-width: 1; opacity: 1;"></line><line transform="translate(40,-200)" x2="0" y2="200" style="fill: none; stroke: #ddd; stroke-width: 1; opacity: 1;"></line><line transform="translate(80,-200)" x2="0" y2="200" style="fill: none; stroke: #ddd; stroke-width: 1; opacity: 1;"></line><line transform="translate(120,-200)" x2="0" y2="200" style="fill: none; stroke: #ddd; stroke-width: 1; opacity: 1;"></line><line transform="translate(160,-200)" x2="0" y2="200" style="fill: none; stroke: #ddd; stroke-width: 1; opacity: 1;"></line><line transform="translate(200,-200)" x2="0" y2="200" style="fill: none; stroke: #ddd; stroke-width: 1; opacity: 1;"></line></g></g></g></g><g class="mark-group role-axis"><g transform="translate(0.5,0.5)"><path class="background" d="M0,0h0v0h0Z" style="pointer-events: none; fill: none;"></path><g><g class="mark-rule role-axis-grid" style="pointer-events: none;"><line transform="translate(0,200)" x2="200" y2="0" style="fill: none; stroke: #ddd; stroke-width: 1; opacity: 1;"></line><line transform="translate(0,164)" x2="200" y2="0" style="fill: none; stroke: #ddd; stroke-width: 1; opacity: 1;"></line><line transform="translate(0,127)" x2="200" y2="0" style="fill: none; stroke: #ddd; stroke-width: 1; opacity: 1;"></line><line transform="translate(0,91)" x2="200" y2="0" style="fill: none; stroke: #ddd; stroke-width: 1; opacity: 1;"></line><line transform="translate(0,55)" x2="200" y2="0" style="fill: none; stroke: #ddd; stroke-width: 1; opacity: 1;"></line><line transform="translate(0,18)" x2="200" y2="0" style="fill: none; stroke: #ddd; stroke-width: 1; opacity: 1;"></line></g></g></g></g><g class="mark-group role-scope child_pathgroup"><g transform="translate(0,0)"><path class="background" d="M0,0h200v200h-200Z" style="fill: none;"></path><g><g class="mark-line role-mark child_marks"><path d="M200,196.36363636363637L200,200L198,200L198,200L196,200L196,200L194,200L194,200L192,200L192,200L190,200L190,200L188,200L188,200L186,200L186,200L184,200L184,200L182,200L182,200L180,200L180,200L178,200L178,200L176,200L176,200L174,200L174,200L172,200L172,200L170,200L170,200L168,200L168,200L166,200L166,200L164,200L164,200L162,200L162,200L160,200L160,200L158,200L158,200L156,200L156,200L154,200L154,200L152,200L152,200L150,200L150,200L148,200L148,200L146,200L146,200L144,200L144,200L142,200L142,200L140,200L140,200L138,200L138,200L136,200L136,200L134,200L134,200L132,200L132,200L130,200L130,200L128,200L128,200L126,200L126,200L124,200L124,200L122,200L122,200L120,200L120,200L118,200L118,200L115.99999999999999,200L115.99999999999999,200L113.99999999999999,200L113.99999999999999,200L112.00000000000001,200L112.00000000000001,200L110.00000000000001,200L110.00000000000001,200L108,200L108,200L106,200L106,200L104,200L104,200L102,200L102,200L100,200L100,200L98,200L98,200L96,200L96,200L94,200L94,200L92,200L92,200L90,200L90,200L88,200L88,200L86,200L86,200L84,200L84,200L82,200L82,200L80,200L80,196.36363636363637L78,196.36363636363637L78,200L76,200L76,200L74,200L74,200L72,200L72,200L70,200L70,200L68,200L68,200L66,200L66,200L64,200L64,200L62,200L62,200L60,200L60,200L57.99999999999999,200L57.99999999999999,192.72727272727272L56.00000000000001,192.72727272727272L56.00000000000001,196.36363636363637L54,196.36363636363637L54,200L52,200L52,200L50,200L50,200L48,200L48,196.36363636363637L46,196.36363636363637L46,200L44,200L44,200L42,200L42,196.36363636363637L40,196.36363636363637L40,200L38,200L38,200L36,200L36,200L34,200L34,200L32,200L32,200L30,200L30,192.72727272727272L28.000000000000004,192.72727272727272L28.000000000000004,200L26,200L26,200L24,200L24,196.36363636363637L22,196.36363636363637L22,200L20,200L20,192.72727272727272L18,192.72727272727272L18,196.36363636363637L16,196.36363636363637L16,196.36363636363637L14.000000000000002,196.36363636363637L14.000000000000002,200L12,200L12,200L10,200L10,200L8,200L8,200L6,200L6,200L4,200L4,200L2,200L2,200L0,200" style="fill: none; stroke: #4c78a8; stroke-width: 2;"></path></g></g></g><g transform="translate(0,0)"><path class="background" d="M0,0h200v200h-200Z" style="fill: none;"></path><g><g class="mark-line role-mark child_marks"><path d="M200,200L200,200L198,200L198,200L196,200L196,200L194,200L194,200L192,200L192,200L190,200L190,200L188,200L188,200L186,200L186,200L184,200L184,200L182,200L182,200L180,200L180,200L178,200L178,200L176,200L176,200L174,200L174,200L172,200L172,200L170,200L170,200L168,200L168,200L166,200L166,200L164,200L164,200L162,200L162,200L160,200L160,200L158,200L158,200L156,200L156,200L154,200L154,200L152,200L152,200L150,200L150,200L148,200L148,200L146,200L146,200L144,200L144,200L142,200L142,200L140,200L140,200L138,200L138,200L136,200L136,200L134,200L134,200L132,200L132,200L130,200L130,200L128,200L128,200L126,200L126,200L124,200L124,200L122,200L122,200L120,200L120,200L118,200L118,200L115.99999999999999,200L115.99999999999999,200L113.99999999999999,200L113.99999999999999,200L112.00000000000001,200L112.00000000000001,200L110.00000000000001,200L110.00000000000001,200L108,200L108,200L106,200L106,200L104,200L104,200L102,200L102,200L100,200L100,200L98,200L98,200L96,200L96,200L94,200L94,200L92,200L92,200L90,200L90,200L88,200L88,200L86,200L86,200L84,200L84,196.36363636363637L82,196.36363636363637L82,200L80,200L80,200L78,200L78,200L76,200L76,200L74,200L74,200L72,200L72,200L70,200L70,200L68,200L68,200L66,200L66,200L64,200L64,200L62,200L62,200L60,200L60,200L57.99999999999999,200L57.99999999999999,200L56.00000000000001,200L56.00000000000001,200L54,200L54,200L52,200L52,200L50,200L50,200L48,200L48,196.36363636363637L46,196.36363636363637L46,200L44,200L44,200L42,200L42,196.36363636363637L40,196.36363636363637L40,200L38,200L38,200L36,200L36,200L34,200L34,196.36363636363637L32,196.36363636363637L32,196.36363636363637L30,196.36363636363637L30,200L28.000000000000004,200L28.000000000000004,196.36363636363637L26,196.36363636363637L26,196.36363636363637L24,196.36363636363637L24,200L22,200L22,196.36363636363637L20,196.36363636363637L20,196.36363636363637L18,196.36363636363637L18,200L16,200L16,196.36363636363637L14.000000000000002,196.36363636363637L14.000000000000002,200L12,200L12,185.45454545454547L10,185.45454545454547L10,200L8,200L8,196.36363636363637L6,196.36363636363637L6,200L4,200L4,200L2,200L2,196.36363636363637L0,196.36363636363637" style="fill: none; stroke: #f58518; stroke-width: 2;"></path></g></g></g></g></g></g><g transform="translate(432,214)"><path class="background" d="M0.5,0.5h200v200h-200Z" style="fill: none; stroke: #ddd;"></path><g><g class="mark-group role-axis"><g transform="translate(0.5,200.5)"><path class="background" d="M0,0h0v0h0Z" style="pointer-events: none; fill: none;"></path><g><g class="mark-rule role-axis-grid" style="pointer-events: none;"><line transform="translate(0,-200)" x2="0" y2="200" style="fill: none; stroke: #ddd; stroke-width: 1; opacity: 1;"></line><line transform="translate(40,-200)" x2="0" y2="200" style="fill: none; stroke: #ddd; stroke-width: 1; opacity: 1;"></line><line transform="translate(80,-200)" x2="0" y2="200" style="fill: none; stroke: #ddd; stroke-width: 1; opacity: 1;"></line><line transform="translate(120,-200)" x2="0" y2="200" style="fill: none; stroke: #ddd; stroke-width: 1; opacity: 1;"></line><line transform="translate(160,-200)" x2="0" y2="200" style="fill: none; stroke: #ddd; stroke-width: 1; opacity: 1;"></line><line transform="translate(200,-200)" x2="0" y2="200" style="fill: none; stroke: #ddd; stroke-width: 1; opacity: 1;"></line></g></g></g></g><g class="mark-group role-axis"><g transform="translate(0.5,0.5)"><path class="background" d="M0,0h0v0h0Z" style="pointer-events: none; fill: none;"></path><g><g class="mark-rule role-axis-grid" style="pointer-events: none;"><line transform="translate(0,200)" x2="200" y2="0" style="fill: none; stroke: #ddd; stroke-width: 1; opacity: 1;"></line><line transform="translate(0,164)" x2="200" y2="0" style="fill: none; stroke: #ddd; stroke-width: 1; opacity: 1;"></line><line transform="translate(0,127)" x2="200" y2="0" style="fill: none; stroke: #ddd; stroke-width: 1; opacity: 1;"></line><line transform="translate(0,91)" x2="200" y2="0" style="fill: none; stroke: #ddd; stroke-width: 1; opacity: 1;"></line><line transform="translate(0,55)" x2="200" y2="0" style="fill: none; stroke: #ddd; stroke-width: 1; opacity: 1;"></line><line transform="translate(0,18)" x2="200" y2="0" style="fill: none; stroke: #ddd; stroke-width: 1; opacity: 1;"></line></g></g></g></g><g class="mark-group role-scope child_pathgroup"><g transform="translate(0,0)"><path class="background" d="M0,0h200v200h-200Z" style="fill: none;"></path><g><g class="mark-line role-mark child_marks"><path d="M200,200L200,200L198,200L198,200L196,200L196,200L194,200L194,200L192,200L192,200L190,200L190,200L188,200L188,200L186,200L186,200L184,200L184,200L182,200L182,200L180,200L180,200L178,200L178,200L176,200L176,200L174,200L174,200L172,200L172,200L170,200L170,200L168,200L168,200L166,200L166,200L164,200L164,200L162,200L162,200L160,200L160,200L158,200L158,200L156,200L156,200L154,200L154,200L152,200L152,200L150,200L150,200L148,200L148,200L146,200L146,200L144,200L144,200L142,200L142,200L140,200L140,200L138,200L138,200L136,200L136,200L134,200L134,200L132,200L132,200L130,200L130,200L128,200L128,200L126,200L126,200L124,200L124,200L122,200L122,200L120,200L120,200L118,200L118,200L115.99999999999999,200L115.99999999999999,200L113.99999999999999,200L113.99999999999999,200L112.00000000000001,200L112.00000000000001,200L110.00000000000001,200L110.00000000000001,200L108,200L108,200L106,200L106,200L104,200L104,200L102,200L102,200L100,200L100,200L98,200L98,200L96,200L96,200L94,200L94,200L92,200L92,200L90,200L90,200L88,200L88,200L86,200L86,200L84,200L84,200L82,200L82,200L80,200L80,200L78,200L78,196.36363636363637L76,196.36363636363637L76,200L74,200L74,200L72,200L72,200L70,200L70,200L68,200L68,200L66,200L66,200L64,200L64,200L62,200L62,200L60,200L60,200L57.99999999999999,200L57.99999999999999,200L56.00000000000001,200L56.00000000000001,200L54,200L54,200L52,200L52,200L50,200L50,200L48,200L48,200L46,200L46,200L44,200L44,200L42,200L42,196.36363636363637L40,196.36363636363637L40,200L38,200L38,200L36,200L36,200L34,200L34,200L32,200L32,200L30,200L30,192.72727272727272L28.000000000000004,192.72727272727272L28.000000000000004,200L26,200L26,200L24,200L24,196.36363636363637L22,196.36363636363637L22,200L20,200L20,200L18,200L18,200L16,200L16,196.36363636363637L14.000000000000002,196.36363636363637L14.000000000000002,200L12,200L12,192.72727272727272L10,192.72727272727272L10,196.36363636363637L8,196.36363636363637L8,200L6,200L6,200L4,200L4,200L2,200L2,196.36363636363637L0,196.36363636363637" style="fill: none; stroke: #4c78a8; stroke-width: 2;"></path></g></g></g><g transform="translate(0,0)"><path class="background" d="M0,0h200v200h-200Z" style="fill: none;"></path><g><g class="mark-line role-mark child_marks"><path d="M200,196.36363636363637L200,200L198,200L198,200L196,200L196,200L194,200L194,200L192,200L192,200L190,200L190,196.36363636363637L188,196.36363636363637L188,200L186,200L186,200L184,200L184,200L182,200L182,200L180,200L180,200L178,200L178,200L176,200L176,200L174,200L174,200L172,200L172,200L170,200L170,200L168,200L168,200L166,200L166,200L164,200L164,200L162,200L162,200L160,200L160,200L158,200L158,200L156,200L156,200L154,200L154,200L152,200L152,200L150,200L150,200L148,200L148,200L146,200L146,200L144,200L144,200L142,200L142,200L140,200L140,200L138,200L138,200L136,200L136,200L134,200L134,200L132,200L132,200L130,200L130,200L128,200L128,200L126,200L126,200L124,200L124,200L122,200L122,200L120,200L120,200L118,200L118,200L115.99999999999999,200L115.99999999999999,200L113.99999999999999,200L113.99999999999999,200L112.00000000000001,200L112.00000000000001,200L110.00000000000001,200L110.00000000000001,200L108,200L108,200L106,200L106,200L104,200L104,200L102,200L102,200L100,200L100,200L98,200L98,200L96,200L96,200L94,200L94,200L92,200L92,196.36363636363637L90,196.36363636363637L90,200L88,200L88,196.36363636363637L86,196.36363636363637L86,200L84,200L84,200L82,200L82,200L80,200L80,200L78,200L78,200L76,200L76,196.36363636363637L74,196.36363636363637L74,200L72,200L72,200L70,200L70,200L68,200L68,200L66,200L66,200L64,200L64,200L62,200L62,200L60,200L60,200L57.99999999999999,200L57.99999999999999,200L56.00000000000001,200L56.00000000000001,196.36363636363637L54,196.36363636363637L54,200L52,200L52,200L50,200L50,196.36363636363637L48,196.36363636363637L48,196.36363636363637L46,196.36363636363637L46,200L44,200L44,192.72727272727272L42,192.72727272727272L42,196.36363636363637L40,196.36363636363637L40,200L38,200L38,196.36363636363637L36,196.36363636363637L36,196.36363636363637L34,196.36363636363637L34,200L32,200L32,200L30,200L30,196.36363636363637L28.000000000000004,196.36363636363637L28.000000000000004,200L26,200L26,200L24,200L24,189.0909090909091L22,189.0909090909091L22,200L20,200L20,196.36363636363637L18,196.36363636363637L18,192.72727272727272L16,192.72727272727272L16,185.45454545454547L14.000000000000002,185.45454545454547L14.000000000000002,189.0909090909091L12,189.0909090909091L12,196.36363636363637L10,196.36363636363637L10,196.36363636363637L8,196.36363636363637L8,192.72727272727272L6,192.72727272727272L6,200L4,200L4,196.36363636363637L2,196.36363636363637L2,200L0,200" style="fill: none; stroke: #f58518; stroke-width: 2;"></path></g></g></g></g></g></g><g transform="translate(0,428)"><path class="background" d="M0.5,0.5h200v200h-200Z" style="fill: none; stroke: #ddd;"></path><g><g class="mark-group role-axis"><g transform="translate(0.5,200.5)"><path class="background" d="M0,0h0v0h0Z" style="pointer-events: none; fill: none;"></path><g><g class="mark-rule role-axis-grid" style="pointer-events: none;"><line transform="translate(0,-200)" x2="0" y2="200" style="fill: none; stroke: #ddd; stroke-width: 1; opacity: 1;"></line><line transform="translate(40,-200)" x2="0" y2="200" style="fill: none; stroke: #ddd; stroke-width: 1; opacity: 1;"></line><line transform="translate(80,-200)" x2="0" y2="200" style="fill: none; stroke: #ddd; stroke-width: 1; opacity: 1;"></line><line transform="translate(120,-200)" x2="0" y2="200" style="fill: none; stroke: #ddd; stroke-width: 1; opacity: 1;"></line><line transform="translate(160,-200)" x2="0" y2="200" style="fill: none; stroke: #ddd; stroke-width: 1; opacity: 1;"></line><line transform="translate(200,-200)" x2="0" y2="200" style="fill: none; stroke: #ddd; stroke-width: 1; opacity: 1;"></line></g></g></g></g><g class="mark-group role-axis"><g transform="translate(0.5,0.5)"><path class="background" d="M0,0h0v0h0Z" style="pointer-events: none; fill: none;"></path><g><g class="mark-rule role-axis-grid" style="pointer-events: none;"><line transform="translate(0,200)" x2="200" y2="0" style="fill: none; stroke: #ddd; stroke-width: 1; opacity: 1;"></line><line transform="translate(0,164)" x2="200" y2="0" style="fill: none; stroke: #ddd; stroke-width: 1; opacity: 1;"></line><line transform="translate(0,127)" x2="200" y2="0" style="fill: none; stroke: #ddd; stroke-width: 1; opacity: 1;"></line><line transform="translate(0,91)" x2="200" y2="0" style="fill: none; stroke: #ddd; stroke-width: 1; opacity: 1;"></line><line transform="translate(0,55)" x2="200" y2="0" style="fill: none; stroke: #ddd; stroke-width: 1; opacity: 1;"></line><line transform="translate(0,18)" x2="200" y2="0" style="fill: none; stroke: #ddd; stroke-width: 1; opacity: 1;"></line></g></g></g></g><g class="mark-group role-scope child_pathgroup"><g transform="translate(0,0)"><path class="background" d="M0,0h200v200h-200Z" style="fill: none;"></path><g><g class="mark-line role-mark child_marks"><path d="M200,192.72727272727272L200,200L198,200L198,200L196,200L196,200L194,200L194,196.36363636363637L192,196.36363636363637L192,200L190,200L190,200L188,200L188,200L186,200L186,200L184,200L184,200L182,200L182,200L180,200L180,200L178,200L178,200L176,200L176,200L174,200L174,200L172,200L172,200L170,200L170,200L168,200L168,200L166,200L166,200L164,200L164,200L162,200L162,200L160,200L160,200L158,200L158,200L156,200L156,200L154,200L154,200L152,200L152,200L150,200L150,200L148,200L148,196.36363636363637L146,196.36363636363637L146,200L144,200L144,200L142,200L142,200L140,200L140,200L138,200L138,200L136,200L136,200L134,200L134,200L132,200L132,196.36363636363637L130,196.36363636363637L130,200L128,200L128,200L126,200L126,200L124,200L124,200L122,200L122,196.36363636363637L120,196.36363636363637L120,200L118,200L118,196.36363636363637L115.99999999999999,196.36363636363637L115.99999999999999,200L113.99999999999999,200L113.99999999999999,196.36363636363637L112.00000000000001,196.36363636363637L112.00000000000001,200L110.00000000000001,200L110.00000000000001,200L108,200L108,200L106,200L106,200L104,200L104,200L102,200L102,200L100,200L100,200L98,200L98,196.36363636363637L96,196.36363636363637L96,196.36363636363637L94,196.36363636363637L94,200L92,200L92,196.36363636363637L90,196.36363636363637L90,196.36363636363637L88,196.36363636363637L88,200L86,200L86,196.36363636363637L84,196.36363636363637L84,200L82,200L82,200L80,200L80,200L78,200L78,192.72727272727272L76,192.72727272727272L76,200L74,200L74,196.36363636363637L72,196.36363636363637L72,196.36363636363637L70,196.36363636363637L70,200L68,200L68,181.8181818181818L66,181.8181818181818L66,192.72727272727272L64,192.72727272727272L64,196.36363636363637L62,196.36363636363637L62,189.0909090909091L60,189.0909090909091L60,192.72727272727272L57.99999999999999,192.72727272727272L57.99999999999999,200L56.00000000000001,200L56.00000000000001,192.72727272727272L54,192.72727272727272L54,192.72727272727272L52,192.72727272727272L52,192.72727272727272L50,192.72727272727272L50,192.72727272727272L48,192.72727272727272L48,196.36363636363637L46,196.36363636363637L46,196.36363636363637L44,196.36363636363637L44,189.0909090909091L42,189.0909090909091L42,189.0909090909091L40,189.0909090909091L40,192.72727272727272L38,192.72727272727272L38,189.0909090909091L36,189.0909090909091L36,185.45454545454547L34,185.45454545454547L34,185.45454545454547L32,185.45454545454547L32,200L30,200L30,185.45454545454547L28.000000000000004,185.45454545454547L28.000000000000004,192.72727272727272L26,192.72727272727272L26,192.72727272727272L24,192.72727272727272L24,181.8181818181818L22,181.8181818181818L22,189.0909090909091L20,189.0909090909091L20,189.0909090909091L18,189.0909090909091L18,185.45454545454547L16,185.45454545454547L16,189.0909090909091L14.000000000000002,189.0909090909091L14.000000000000002,185.45454545454547L12,185.45454545454547L12,196.36363636363637L10,196.36363636363637L10,200L8,200L8,200L6,200L6,200L4,200L4,200L2,200L2,200L0,200" style="fill: none; stroke: #4c78a8; stroke-width: 2;"></path></g></g></g><g transform="translate(0,0)"><path class="background" d="M0,0h200v200h-200Z" style="fill: none;"></path><g><g class="mark-line role-mark child_marks"><path d="M200,196.36363636363637L200,200L198,200L198,200L196,200L196,200L194,200L194,200L192,200L192,200L190,200L190,200L188,200L188,200L186,200L186,200L184,200L184,200L182,200L182,200L180,200L180,200L178,200L178,200L176,200L176,200L174,200L174,200L172,200L172,200L170,200L170,200L168,200L168,200L166,200L166,200L164,200L164,200L162,200L162,200L160,200L160,200L158,200L158,192.72727272727272L156,192.72727272727272L156,200L154,200L154,200L152,200L152,196.36363636363637L150,196.36363636363637L150,200L148,200L148,200L146,200L146,200L144,200L144,200L142,200L142,200L140,200L140,200L138,200L138,196.36363636363637L136,196.36363636363637L136,196.36363636363637L134,196.36363636363637L134,200L132,200L132,196.36363636363637L130,196.36363636363637L130,200L128,200L128,196.36363636363637L126,196.36363636363637L126,200L124,200L124,200L122,200L122,196.36363636363637L120,196.36363636363637L120,192.72727272727272L118,192.72727272727272L118,200L115.99999999999999,200L115.99999999999999,200L113.99999999999999,200L113.99999999999999,196.36363636363637L112.00000000000001,196.36363636363637L112.00000000000001,200L110.00000000000001,200L110.00000000000001,200L108,200L108,200L106,200L106,192.72727272727272L104,192.72727272727272L104,200L102,200L102,200L100,200L100,196.36363636363637L98,196.36363636363637L98,200L96,200L96,196.36363636363637L94,196.36363636363637L94,196.36363636363637L92,196.36363636363637L92,200L90,200L90,200L88,200L88,192.72727272727272L86,192.72727272727272L86,200L84,200L84,200L82,200L82,196.36363636363637L80,196.36363636363637L80,196.36363636363637L78,196.36363636363637L78,192.72727272727272L76,192.72727272727272L76,189.0909090909091L74,189.0909090909091L74,192.72727272727272L72,192.72727272727272L72,196.36363636363637L70,196.36363636363637L70,178.1818181818182L68,178.1818181818182L68,196.36363636363637L66,196.36363636363637L66,196.36363636363637L64,196.36363636363637L64,189.0909090909091L62,189.0909090909091L62,181.8181818181818L60,181.8181818181818L60,192.72727272727272L57.99999999999999,192.72727272727272L57.99999999999999,181.8181818181818L56.00000000000001,181.8181818181818L56.00000000000001,192.72727272727272L54,192.72727272727272L54,174.54545454545456L52,174.54545454545456L52,185.45454545454547L50,185.45454545454547L50,181.8181818181818L48,181.8181818181818L48,174.54545454545456L46,174.54545454545456L46,185.45454545454547L44,185.45454545454547L44,167.27272727272728L42,167.27272727272728L42,192.72727272727272L40,192.72727272727272L40,181.8181818181818L38,181.8181818181818L38,181.8181818181818L36,181.8181818181818L36,167.27272727272728L34,167.27272727272728L34,167.27272727272728L32,167.27272727272728L32,189.0909090909091L30,189.0909090909091L30,167.27272727272728L28.000000000000004,167.27272727272728L28.000000000000004,170.9090909090909L26,170.9090909090909L26,160L24,160L24,185.45454545454547L22,185.45454545454547L22,178.1818181818182L20,178.1818181818182L20,189.0909090909091L18,189.0909090909091L18,196.36363636363637L16,196.36363636363637L16,174.54545454545456L14.000000000000002,174.54545454545456L14.000000000000002,192.72727272727272L12,192.72727272727272L12,192.72727272727272L10,192.72727272727272L10,189.0909090909091L8,189.0909090909091L8,200L6,200L6,196.36363636363637L4,196.36363636363637L4,200L2,200L2,200L0,200" style="fill: none; stroke: #f58518; stroke-width: 2;"></path></g></g></g></g></g></g><g transform="translate(216,428)"><path class="background" d="M0.5,0.5h200v200h-200Z" style="fill: none; stroke: #ddd;"></path><g><g class="mark-group role-axis"><g transform="translate(0.5,200.5)"><path class="background" d="M0,0h0v0h0Z" style="pointer-events: none; fill: none;"></path><g><g class="mark-rule role-axis-grid" style="pointer-events: none;"><line transform="translate(0,-200)" x2="0" y2="200" style="fill: none; stroke: #ddd; stroke-width: 1; opacity: 1;"></line><line transform="translate(40,-200)" x2="0" y2="200" style="fill: none; stroke: #ddd; stroke-width: 1; opacity: 1;"></line><line transform="translate(80,-200)" x2="0" y2="200" style="fill: none; stroke: #ddd; stroke-width: 1; opacity: 1;"></line><line transform="translate(120,-200)" x2="0" y2="200" style="fill: none; stroke: #ddd; stroke-width: 1; opacity: 1;"></line><line transform="translate(160,-200)" x2="0" y2="200" style="fill: none; stroke: #ddd; stroke-width: 1; opacity: 1;"></line><line transform="translate(200,-200)" x2="0" y2="200" style="fill: none; stroke: #ddd; stroke-width: 1; opacity: 1;"></line></g></g></g></g><g class="mark-group role-axis"><g transform="translate(0.5,0.5)"><path class="background" d="M0,0h0v0h0Z" style="pointer-events: none; fill: none;"></path><g><g class="mark-rule role-axis-grid" style="pointer-events: none;"><line transform="translate(0,200)" x2="200" y2="0" style="fill: none; stroke: #ddd; stroke-width: 1; opacity: 1;"></line><line transform="translate(0,164)" x2="200" y2="0" style="fill: none; stroke: #ddd; stroke-width: 1; opacity: 1;"></line><line transform="translate(0,127)" x2="200" y2="0" style="fill: none; stroke: #ddd; stroke-width: 1; opacity: 1;"></line><line transform="translate(0,91)" x2="200" y2="0" style="fill: none; stroke: #ddd; stroke-width: 1; opacity: 1;"></line><line transform="translate(0,55)" x2="200" y2="0" style="fill: none; stroke: #ddd; stroke-width: 1; opacity: 1;"></line><line transform="translate(0,18)" x2="200" y2="0" style="fill: none; stroke: #ddd; stroke-width: 1; opacity: 1;"></line></g></g></g></g><g class="mark-group role-scope child_pathgroup"><g transform="translate(0,0)"><path class="background" d="M0,0h200v200h-200Z" style="fill: none;"></path><g><g class="mark-line role-mark child_marks"><path d="M200,196.36363636363637L200,200L198,200L198,200L196,200L196,200L194,200L194,200L192,200L192,200L190,200L190,200L188,200L188,200L186,200L186,200L184,200L184,200L182,200L182,200L180,200L180,200L178,200L178,200L176,200L176,200L174,200L174,200L172,200L172,200L170,200L170,200L168,200L168,200L166,200L166,200L164,200L164,200L162,200L162,200L160,200L160,200L158,200L158,200L156,200L156,200L154,200L154,200L152,200L152,200L150,200L150,200L148,200L148,200L146,200L146,200L144,200L144,200L142,200L142,200L140,200L140,200L138,200L138,200L136,200L136,200L134,200L134,200L132,200L132,200L130,200L130,200L128,200L128,200L126,200L126,200L124,200L124,200L122,200L122,200L120,200L120,200L118,200L118,200L115.99999999999999,200L115.99999999999999,200L113.99999999999999,200L113.99999999999999,200L112.00000000000001,200L112.00000000000001,200L110.00000000000001,200L110.00000000000001,200L108,200L108,200L106,200L106,200L104,200L104,200L102,200L102,200L100,200L100,200L98,200L98,200L96,200L96,200L94,200L94,200L92,200L92,200L90,200L90,200L88,200L88,200L86,200L86,200L84,200L84,200L82,200L82,200L80,200L80,200L78,200L78,200L76,200L76,200L74,200L74,200L72,200L72,200L70,200L70,200L68,200L68,200L66,200L66,196.36363636363637L64,196.36363636363637L64,200L62,200L62,200L60,200L60,200L57.99999999999999,200L57.99999999999999,200L56.00000000000001,200L56.00000000000001,200L54,200L54,200L52,200L52,200L50,200L50,200L48,200L48,200L46,200L46,200L44,200L44,192.72727272727272L42,192.72727272727272L42,200L40,200L40,196.36363636363637L38,196.36363636363637L38,200L36,200L36,200L34,200L34,196.36363636363637L32,196.36363636363637L32,196.36363636363637L30,196.36363636363637L30,200L28.000000000000004,200L28.000000000000004,196.36363636363637L26,196.36363636363637L26,196.36363636363637L24,196.36363636363637L24,192.72727272727272L22,192.72727272727272L22,196.36363636363637L20,196.36363636363637L20,196.36363636363637L18,196.36363636363637L18,196.36363636363637L16,196.36363636363637L16,192.72727272727272L14.000000000000002,192.72727272727272L14.000000000000002,200L12,200L12,200L10,200L10,200L8,200L8,200L6,200L6,196.36363636363637L4,196.36363636363637L4,200L2,200L2,200L0,200" style="fill: none; stroke: #4c78a8; stroke-width: 2;"></path></g></g></g><g transform="translate(0,0)"><path class="background" d="M0,0h200v200h-200Z" style="fill: none;"></path><g><g class="mark-line role-mark child_marks"><path d="M200,200L200,200L198,200L198,200L196,200L196,200L194,200L194,200L192,200L192,200L190,200L190,200L188,200L188,200L186,200L186,200L184,200L184,200L182,200L182,200L180,200L180,200L178,200L178,200L176,200L176,200L174,200L174,200L172,200L172,200L170,200L170,200L168,200L168,200L166,200L166,200L164,200L164,200L162,200L162,200L160,200L160,200L158,200L158,200L156,200L156,200L154,200L154,200L152,200L152,200L150,200L150,200L148,200L148,200L146,200L146,200L144,200L144,200L142,200L142,200L140,200L140,200L138,200L138,200L136,200L136,200L134,200L134,200L132,200L132,200L130,200L130,200L128,200L128,200L126,200L126,200L124,200L124,200L122,200L122,200L120,200L120,200L118,200L118,200L115.99999999999999,200L115.99999999999999,200L113.99999999999999,200L113.99999999999999,200L112.00000000000001,200L112.00000000000001,200L110.00000000000001,200L110.00000000000001,200L108,200L108,200L106,200L106,200L104,200L104,200L102,200L102,200L100,200L100,200L98,200L98,200L96,200L96,200L94,200L94,200L92,200L92,200L90,200L90,200L88,200L88,200L86,200L86,200L84,200L84,200L82,200L82,200L80,200L80,200L78,200L78,196.36363636363637L76,196.36363636363637L76,200L74,200L74,200L72,200L72,200L70,200L70,196.36363636363637L68,196.36363636363637L68,196.36363636363637L66,196.36363636363637L66,200L64,200L64,200L62,200L62,200L60,200L60,200L57.99999999999999,200L57.99999999999999,196.36363636363637L56.00000000000001,196.36363636363637L56.00000000000001,200L54,200L54,196.36363636363637L52,196.36363636363637L52,200L50,200L50,200L48,200L48,196.36363636363637L46,196.36363636363637L46,200L44,200L44,192.72727272727272L42,192.72727272727272L42,196.36363636363637L40,196.36363636363637L40,200L38,200L38,192.72727272727272L36,192.72727272727272L36,196.36363636363637L34,196.36363636363637L34,196.36363636363637L32,196.36363636363637L32,196.36363636363637L30,196.36363636363637L30,200L28.000000000000004,200L28.000000000000004,200L26,200L26,196.36363636363637L24,196.36363636363637L24,196.36363636363637L22,196.36363636363637L22,200L20,200L20,196.36363636363637L18,196.36363636363637L18,200L16,200L16,196.36363636363637L14.000000000000002,196.36363636363637L14.000000000000002,200L12,200L12,196.36363636363637L10,196.36363636363637L10,200L8,200L8,200L6,200L6,200L4,200L4,196.36363636363637L2,196.36363636363637L2,200L0,200" style="fill: none; stroke: #f58518; stroke-width: 2;"></path></g></g></g></g></g></g><g transform="translate(432,428)"><path class="background" d="M0.5,0.5h200v200h-200Z" style="fill: none; stroke: #ddd;"></path><g><g class="mark-group role-axis"><g transform="translate(0.5,200.5)"><path class="background" d="M0,0h0v0h0Z" style="pointer-events: none; fill: none;"></path><g><g class="mark-rule role-axis-grid" style="pointer-events: none;"><line transform="translate(0,-200)" x2="0" y2="200" style="fill: none; stroke: #ddd; stroke-width: 1; opacity: 1;"></line><line transform="translate(40,-200)" x2="0" y2="200" style="fill: none; stroke: #ddd; stroke-width: 1; opacity: 1;"></line><line transform="translate(80,-200)" x2="0" y2="200" style="fill: none; stroke: #ddd; stroke-width: 1; opacity: 1;"></line><line transform="translate(120,-200)" x2="0" y2="200" style="fill: none; stroke: #ddd; stroke-width: 1; opacity: 1;"></line><line transform="translate(160,-200)" x2="0" y2="200" style="fill: none; stroke: #ddd; stroke-width: 1; opacity: 1;"></line><line transform="translate(200,-200)" x2="0" y2="200" style="fill: none; stroke: #ddd; stroke-width: 1; opacity: 1;"></line></g></g></g></g><g class="mark-group role-axis"><g transform="translate(0.5,0.5)"><path class="background" d="M0,0h0v0h0Z" style="pointer-events: none; fill: none;"></path><g><g class="mark-rule role-axis-grid" style="pointer-events: none;"><line transform="translate(0,200)" x2="200" y2="0" style="fill: none; stroke: #ddd; stroke-width: 1; opacity: 1;"></line><line transform="translate(0,164)" x2="200" y2="0" style="fill: none; stroke: #ddd; stroke-width: 1; opacity: 1;"></line><line transform="translate(0,127)" x2="200" y2="0" style="fill: none; stroke: #ddd; stroke-width: 1; opacity: 1;"></line><line transform="translate(0,91)" x2="200" y2="0" style="fill: none; stroke: #ddd; stroke-width: 1; opacity: 1;"></line><line transform="translate(0,55)" x2="200" y2="0" style="fill: none; stroke: #ddd; stroke-width: 1; opacity: 1;"></line><line transform="translate(0,18)" x2="200" y2="0" style="fill: none; stroke: #ddd; stroke-width: 1; opacity: 1;"></line></g></g></g></g><g class="mark-group role-scope child_pathgroup"><g transform="translate(0,0)"><path class="background" d="M0,0h200v200h-200Z" style="fill: none;"></path><g><g class="mark-line role-mark child_marks"><path d="M200,196.36363636363637L200,200L198,200L198,200L196,200L196,200L194,200L194,200L192,200L192,200L190,200L190,200L188,200L188,200L186,200L186,200L184,200L184,200L182,200L182,200L180,200L180,200L178,200L178,200L176,200L176,200L174,200L174,200L172,200L172,200L170,200L170,200L168,200L168,200L166,200L166,200L164,200L164,200L162,200L162,200L160,200L160,200L158,200L158,200L156,200L156,200L154,200L154,200L152,200L152,200L150,200L150,200L148,200L148,200L146,200L146,200L144,200L144,196.36363636363637L142,196.36363636363637L142,200L140,200L140,200L138,200L138,200L136,200L136,200L134,200L134,200L132,200L132,200L130,200L130,200L128,200L128,200L126,200L126,200L124,200L124,196.36363636363637L122,196.36363636363637L122,200L120,200L120,200L118,200L118,200L115.99999999999999,200L115.99999999999999,196.36363636363637L113.99999999999999,196.36363636363637L113.99999999999999,200L112.00000000000001,200L112.00000000000001,200L110.00000000000001,200L110.00000000000001,200L108,200L108,196.36363636363637L106,196.36363636363637L106,200L104,200L104,200L102,200L102,200L100,200L100,200L98,200L98,196.36363636363637L96,196.36363636363637L96,200L94,200L94,200L92,200L92,200L90,200L90,200L88,200L88,200L86,200L86,200L84,200L84,200L82,200L82,200L80,200L80,200L78,200L78,200L76,200L76,200L74,200L74,200L72,200L72,200L70,200L70,200L68,200L68,200L66,200L66,200L64,200L64,196.36363636363637L62,196.36363636363637L62,196.36363636363637L60,196.36363636363637L60,200L57.99999999999999,200L57.99999999999999,200L56.00000000000001,200L56.00000000000001,200L54,200L54,200L52,200L52,200L50,200L50,200L48,200L48,192.72727272727272L46,192.72727272727272L46,200L44,200L44,200L42,200L42,200L40,200L40,196.36363636363637L38,196.36363636363637L38,200L36,200L36,196.36363636363637L34,196.36363636363637L34,200L32,200L32,196.36363636363637L30,196.36363636363637L30,196.36363636363637L28.000000000000004,196.36363636363637L28.000000000000004,200L26,200L26,196.36363636363637L24,196.36363636363637L24,196.36363636363637L22,196.36363636363637L22,200L20,200L20,200L18,200L18,200L16,200L16,200L14.000000000000002,200L14.000000000000002,196.36363636363637L12,196.36363636363637L12,200L10,200L10,200L8,200L8,192.72727272727272L6,192.72727272727272L6,196.36363636363637L4,196.36363636363637L4,200L2,200L2,200L0,200" style="fill: none; stroke: #4c78a8; stroke-width: 2;"></path></g></g></g><g transform="translate(0,0)"><path class="background" d="M0,0h200v200h-200Z" style="fill: none;"></path><g><g class="mark-line role-mark child_marks"><path d="M200,192.72727272727272L200,200L198,200L198,200L196,200L196,200L194,200L194,200L192,200L192,200L190,200L190,200L188,200L188,200L186,200L186,200L184,200L184,200L182,200L182,200L180,200L180,200L178,200L178,200L176,200L176,200L174,200L174,200L172,200L172,200L170,200L170,200L168,200L168,200L166,200L166,200L164,200L164,200L162,200L162,200L160,200L160,200L158,200L158,200L156,200L156,200L154,200L154,200L152,200L152,200L150,200L150,200L148,200L148,200L146,200L146,196.36363636363637L144,196.36363636363637L144,200L142,200L142,200L140,200L140,200L138,200L138,200L136,200L136,200L134,200L134,192.72727272727272L132,192.72727272727272L132,200L130,200L130,200L128,200L128,200L126,200L126,200L124,200L124,200L122,200L122,200L120,200L120,200L118,200L118,200L115.99999999999999,200L115.99999999999999,196.36363636363637L113.99999999999999,196.36363636363637L113.99999999999999,200L112.00000000000001,200L112.00000000000001,200L110.00000000000001,200L110.00000000000001,200L108,200L108,200L106,200L106,200L104,200L104,200L102,200L102,200L100,200L100,200L98,200L98,200L96,200L96,200L94,200L94,200L92,200L92,200L90,200L90,200L88,200L88,200L86,200L86,196.36363636363637L84,196.36363636363637L84,200L82,200L82,200L80,200L80,200L78,200L78,200L76,200L76,200L74,200L74,196.36363636363637L72,196.36363636363637L72,200L70,200L70,200L68,200L68,200L66,200L66,200L64,200L64,200L62,200L62,200L60,200L60,192.72727272727272L57.99999999999999,192.72727272727272L57.99999999999999,200L56.00000000000001,200L56.00000000000001,200L54,200L54,200L52,200L52,196.36363636363637L50,196.36363636363637L50,200L48,200L48,196.36363636363637L46,196.36363636363637L46,200L44,200L44,200L42,200L42,196.36363636363637L40,196.36363636363637L40,200L38,200L38,196.36363636363637L36,196.36363636363637L36,192.72727272727272L34,192.72727272727272L34,200L32,200L32,200L30,200L30,200L28.000000000000004,200L28.000000000000004,200L26,200L26,196.36363636363637L24,196.36363636363637L24,200L22,200L22,200L20,200L20,192.72727272727272L18,192.72727272727272L18,200L16,200L16,200L14.000000000000002,200L14.000000000000002,200L12,200L12,196.36363636363637L10,196.36363636363637L10,189.0909090909091L8,189.0909090909091L8,200L6,200L6,200L4,200L4,196.36363636363637L2,196.36363636363637L2,196.36363636363637L0,196.36363636363637" style="fill: none; stroke: #f58518; stroke-width: 2;"></path></g></g></g></g></g></g></g><g class="mark-group role-legend"><g transform="translate(653,0)"><path class="background" d="M0,0h50v43h-50Z" style="pointer-events: none; fill: none;"></path><g><g class="mark-group role-legend-entry"><g transform="translate(0,16)"><path class="background" d="M0,0h0v0h0Z" style="pointer-events: none; fill: none;"></path><g><g class="mark-symbol role-legend-symbol" style="pointer-events: none;"><path transform="translate(5,5)" d="M5,0A5,5,0,1,1,-5,0A5,5,0,1,1,5,0" style="fill: none; stroke: #4c78a8; stroke-width: 1.5; opacity: 1;"></path><path transform="translate(5,20)" d="M5,0A5,5,0,1,1,-5,0A5,5,0,1,1,5,0" style="fill: none; stroke: #f58518; stroke-width: 1.5; opacity: 1;"></path></g><g class="mark-text role-legend-label" style="pointer-events: none;"><text text-anchor="start" transform="translate(18,8)" style="font: 10px sans-serif; fill: #000; opacity: 1;">fail</text><text text-anchor="start" transform="translate(18,23)" style="font: 10px sans-serif; fill: #000; opacity: 1;">pass</text></g></g></g></g><g class="mark-text role-legend-title" style="pointer-events: none;"><text text-anchor="start" transform="translate(0,9)" style="font: bold 11px sans-serif; fill: #000; opacity: 1;">q1*q2 &lt; 0</text></g></g></g></g></g></g></g></g></svg>