<svg class="marks" width="746" height="738" viewBox="0 0 746 738" version="1.1" xmlns="http://www.w3.org/2000/svg" xmlns:xlink="http://www.w3.org/1999/xlink"><g transform="translate(106,57)"><g class="mark-group role-frame root"><g transform="translate(0,0)"><path class="background" d="M0,0h0v0h0Z" style="fill: none;"></path><g><g class="mark-group role-row-title row_title"><g transform="translate(-91,315)"><path class="background" d="M0,0h0v0h0Z" style="fill: none;"></path><g><g class="mark-text role-row-title-text"><text text-anchor="middle" transform="translate(0,0) rotate(270)" style="font: bold 11px sans-serif; fill: #000;">mt1</text></g></g></g></g><g class="mark-group role-column-title column_title"><g transform="translate(316,-42)"><path class="background" d="M0,0h0v0h0Z" style="fill: none;"></path><g><g class="mark-text role-column-title-text"><text text-anchor="middle" transform="translate(0,0)" style="font: bold 11px sans-serif; fill: #000;">mt2</text></g></g></g></g><g class="mark-group role-row-header row_header"><g transform="translate(-13,0)"><path class="background" d="M0,0h0v200h0Z" style="fill: none;"></path><g><g class="mark-text role-title" style="pointer-events: none;"><text text-anchor="middle" transform="translate(-57,100) rotate(-90) translate(0,-2)" style="font: 10px sans-serif; fill: #000; opacity: 1;">[-inf, 0.2)</text></g><g class="mark-group role-axis"><g transform="translate(0.5,0.5)"><path class="background" d="M0,0h0v0h0Z" style="pointer-events: none; fill: none;"></path><g><g class="mark-rule role-axis-tick" style="pointer-events: none;"><line transform="translate(0,200)" x2="-5" y2="0" style="fill: none; stroke: #888; stroke-width: 1; opacity: 1;"></line><line transform="translate(0,171)" x2="-5" y2="0" style="fill: none; stroke: #888; stroke-width: 1; opacity: 1;"></line><line transform="translate(0,143)" x2="-5" y2="0" style="fill: none; stroke: #888; stroke-width: 1; opacity: 1;"></line><line transform="translate(0,114)" x2="-5" y2="0" style="fill: none; stroke: #888; stroke-width: 1; opacity: 1;"></line><line transform="translate(0,86)" x2="-5" y2="0" style="fill: none; stroke: #888; stroke-width: 1; opacity: 1;"></line><line transform="translate(0,57)" x2="-5" y2="0" style="fill: none; stroke: #888; stroke-width: 1; opacity: 1;"></line><line transform="translate(0,29)" x2="-5" y2="0" style="fill: none; stroke: #888; stroke-width: 1; opacity: 1;"></line><line transform="translate(0,0)" x2="-5" y2="0" style="fill: none; stroke: #888; stroke-width: 1; opacity: 1;"></line></g><g class="mark-text role-axis-label" style="pointer-events: none;"><text text-anchor="end" transform="translate(-7,203)" style="font: 10px sans-serif; fill: #000; opacity: 1;">0</text><text text-anchor="end" transform="translate(-7,174.42857142857144)" style="font: 10px sans-serif; fill: #000; opacity: 1;">10</text><text text-anchor="end" transform="translate(-7,145.85714285714286)" style="font: 10px sans-serif; fill: #000; opacity: 1;">20</text><text text-anchor="end" transform="translate(-7,117.28571428571429)" style="font: 10px sans-serif; fill: #000; opacity: 1;">30</text><text text-anchor="end" transform="translate(-7,88.71428571428572)" style="font: 10px sans-serif; fill: #000; opacity: 1;">40</text><text text-anchor="end" transform="translate(-7,60.14285714285714)" style="font: 10px sans-serif; fill: #000; opacity: 1;">50</text><text text-anchor="end" transform="translate(-7,31.571428571428584)" style="font: 10px sans-serif; fill: #000; opacity: 1;">60</text><text text-anchor="end" transform="translate(-7,3)" style="font: 10px sans-serif; fill: #000; opacity: 1;">70</text></g><g class="mark-rule role-axis-domain" style="pointer-events: none;"><line transform="translate(0,200)" x2="0" y2="-200" style="fill: none; stroke: #888; stroke-width: 1; opacity: 1;"></line></g><g class="mark-text role-axis-title" style="pointer-events: none;"><text text-anchor="middle" transform="translate(-34,100) rotate(-90) translate(0,-2)" style="font: bold 11px sans-serif; fill: #000; opacity: 1;">count</text></g></g></g></g></g></g><g transform="translate(-13,214)"><path class="background" d="M0,0h0v200h0Z" style="fill: none;"></path><g><g class="mark-text role-title" style="pointer-events: none;"><text text-anchor="middle" transform="translate(-57,100) rotate(-90) translate(0,-2)" style="font: 10px sans-serif; fill: #000; opacity: 1;">[0.2, 0.5)</text></g><g class="mark-group role-axis"><g transform="translate(0.5,0.5)"><path class="background" d="M0,0h0v0h0Z" style="pointer-events: none; fill: none;"></path><g><g class="mark-rule role-axis-tick" style="pointer-events: none;"><line transform="translate(0,200)" x2="-5" y2="0" style="fill: none; stroke: #888; stroke-width: 1; opacity: 1;"></line><line transform="translate(0,171)" x2="-5" y2="0" style="fill: none; stroke: #888; stroke-width: 1; opacity: 1;"></line><line transform="translate(0,143)" x2="-5" y2="0" style="fill: none; stroke: #888; stroke-width: 1; opacity: 1;"></line><line transform="translate(0,114)" x2="-5" y2="0" style="fill: none; stroke: #888; stroke-width: 1; opacity: 1;"></line><line transform="translate(0,86)" x2="-5" y2="0" style="fill: none; stroke: #888; stroke-width: 1; opacity: 1;"></line><line transform="translate(0,57)" x2="-5" y2="0" style="fill: none; stroke: #888; stroke-width: 1; opacity: 1;"></line><line transform="translate(0,29)" x2="-5" y2="0" style="fill: none; stroke: #888; stroke-width: 1; opacity: 1;"></line><line transform="translate(0,0)" x2="-5" y2="0" style="fill: none; stroke: #888; stroke-width: 1; opacity: 1;"></line></g><g class="mark-text role-axis-label" style="pointer-events: none;"><text text-anchor="end" transform="translate(-7,203)" style="font: 10px sans-serif; fill: #000; opacity: 1;">0</text><text text-anchor="end" transform="translate(-7,174.42857142857144)" style="font: 10px sans-serif; fill: #000; opacity: 1;">10</text><text text-anchor="end" transform="translate(-7,145.85714285714286)" style="font: 10px sans-serif; fill: #000; opacity: 1;">20</text><text text-anchor="end" transform="translate(-7,117.28571428571429)" style="font: 10px sans-serif; fill: #000; opacity: 1;">30</text><text text-anchor="end" transform="translate(-7,88.71428571428572)" style="font: 10px sans-serif; fill: #000; opacity: 1;">40</text><text text-anchor="end" transform="translate(-7,60.14285714285714)" style="font: 10px sans-serif; fill: #000; opacity: 1;">50</text><text text-anchor="end" transform="translate(-7,31.571428571428584)" style="font: 10px sans-serif; fill: #000; opacity: 1;">60</text><text text-anchor="end" transform="translate(-7,3)" style="font: 10px sans-serif; fill: #000; opacity: 1;">70</text></g><g class="mark-rule role-axis-domain" style="pointer-events: none;"><line transform="translate(0,200)" x2="0" y2="-200" style="fill: none; stroke: #888; stroke-width: 1; opacity: 1;"></line></g><g class="mark-text role-axis-title" style="pointer-events: none;"><text text-anchor="middle" transform="translate(-34,100) rotate(-90) translate(0,-2)" style="font: bold 11px sans-serif; fill: #000; opacity: 1;">count</text></g></g></g></g></g></g><g transform="translate(-13,428)"><path class="background" d="M0,0h0v200h0Z" style="fill: none;"></path><g><g class="mark-text role-title" style="pointer-events: none;"><text text-anchor="middle" transform="translate(-57,100) rotate(-90) translate(0,-2)" style="font: 10px sans-serif; fill: #000; opacity: 1;">[0.5, inf)</text></g><g class="mark-group role-axis"><g transform="translate(0.5,0.5)"><path class="background" d="M0,0h0v0h0Z" style="pointer-events: none; fill: none;"></path><g><g class="mark-rule role-axis-tick" style="pointer-events: none;"><line transform="translate(0,200)" x2="-5" y2="0" style="fill: none; stroke: #888; stroke-width: 1; opacity: 1;"></line><line transform="translate(0,171)" x2="-5" y2="0" style="fill: none; stroke: #888; stroke-width: 1; opacity: 1;"></line><line transform="translate(0,143)" x2="-5" y2="0" style="fill: none; stroke: #888; stroke-width: 1; opacity: 1;"></line><line transform="translate(0,114)" x2="-5" y2="0" style="fill: none; stroke: #888; stroke-width: 1; opacity: 1;"></line><line transform="translate(0,86)" x2="-5" y2="0" style="fill: none; stroke: #888; stroke-width: 1; opacity: 1;"></line><line transform="translate(0,57)" x2="-5" y2="0" style="fill: none; stroke: #888; stroke-width: 1; opacity: 1;"></line><line transform="translate(0,29)" x2="-5" y2="0" style="fill: none; stroke: #888; stroke-width: 1; opacity: 1;"></line><line transform="translate(0,0)" x2="-5" y2="0" style="fill: none; stroke: #888; stroke-width: 1; opacity: 1;"></line></g><g class="mark-text role-axis-label" style="pointer-events: none;"><text text-anchor="end" transform="translate(-7,203)" style="font: 10px sans-serif; fill: #000; opacity: 1;">0</text><text text-anchor="end" transform="translate(-7,174.42857142857144)" style="font: 10px sans-serif; fill: #000; opacity: 1;">10</text><text text-anchor="end" transform="translate(-7,145.85714285714286)" style="font: 10px sans-serif; fill: #000; opacity: 1;">20</text><text text-anchor="end" transform="translate(-7,117.28571428571429)" style="font: 10px sans-serif; fill: #000; opacity: 1;">30</text><text text-anchor="end" transform="translate(-7,88.71428571428572)" style="font: 10px sans-serif; fill: #000; opacity: 1;">40</text><text text-anchor="end" transform="translate(-7,60.14285714285714)" style="font: 10px sans-serif; fill: #000; opacity: 1;">50</text><text text-anchor="end" transform="translate(-7,31.571428571428584)" style="font: 10px sans-serif; fill: #000; opacity: 1;">60</text><text text-anchor="end" transform="translate(-7,3)" style="font: 10px sans-serif; fill: #000; opacity: 1;">70</text></g><g class="mark-rule role-axis-domain" style="pointer-events: none;"><line transform="translate(0,200)" x2="0" y2="-200" style="fill: none; stroke: #888; stroke-width: 1; opacity: 1;"></line></g><g class="mark-text role-axis-title" style="pointer-events: none;"><text text-anchor="middle" transform="translate(-34,100) rotate(-90) translate(0,-2)" style="font: bold 11px sans-serif; fill: #000; opacity: 1;">count</text></g></g></g></g></g></g></g><g class="mark-group role-column-header column_header"><g transform="translate(0,-11)"><path class="background" d="M0,0h200v0h-200Z" style="fill: none;"></path><g><g class="mark-text role-title" style="pointer-events: none;"><text text-anchor="middle" transform="translate(100,-12)" style="font: 10px sans-serif; fill: #000; opacity: 1;">[-inf, 0.2)</text></g></g></g><g transform="translate(216,-11)"><path class="background" d="M0,0h200v0h-200Z" style="fill: none;"></path><g><g class="mark-text role-title" style="pointer-events: none;"><text text-anchor="middle" transform="translate(100,-12)" style="font: 10px sans-serif; fill: #000; opacity: 1;">[0.2, 0.5)</text></g></g></g><g transform="translate(432,-11)"><path class="background" d="M0,0h200v0h-200Z" style="fill: none;"></path><g><g class="mark-text role-title" style="pointer-events: none;"><text text-anchor="middle" transform="translate(100,-12)" style="font: 10px sans-serif; fill: #000; opacity: 1;">[0.5, inf)</text></g></g></g></g><g class="mark-group role-column-footer column_footer"><g transform="translate(0,641)"><path class="background" d="M0,0h200v0h-200Z" style="fill: none;"></path><g><g class="mark-group role-axis"><g transform="translate(0.5,0.5)"><path class="background" d="M0,0h0v0h0Z" style="pointer-events: none; fill: none;"></path><g><g class="mark-rule role-axis-tick" style="pointer-events: none;"><line transform="translate(0,0)" x2="0" y2="5" style="fill: none; stroke: #888; stroke-width: 1; opacity: 1;"></line><line transform="translate(40,0)" x2="0" y2="5" style="fill: none; stroke: #888; stroke-width: 1; opacity: 1;"></line><line transform="translate(80,0)" x2="0" y2="5" style="fill: none; stroke: #888; stroke-width: 1; opacity: 1;"></line><line transform="translate(120,0)" x2="0" y2="5" style="fill: none; stroke: #888; stroke-width: 1; opacity: 1;"></line><line transform="translate(160,0)" x2="0" y2="5" style="fill: none; stroke: #888; stroke-width: 1; opacity: 1;"></line><line transform="translate(200,0)" x2="0" y2="5" style="fill: none; stroke: #888; stroke-width: 1; opacity: 1;"></line></g><g class="mark-text role-axis-label" style="pointer-events: none;"><text text-anchor="start" transform="translate(0,15)" style="font: 10px sans-serif; fill: #000; opacity: 1;">0</text><text text-anchor="middle" transform="translate(40,15)" style="font: 10px sans-serif; fill: #000; opacity: 1;">100</text><text text-anchor="middle" transform="translate(80,15)" style="font: 10px sans-serif; fill: #000; opacity: 1;">200</text><text text-anchor="middle" transform="translate(120,15)" style="font: 10px sans-serif; fill: #000; opacity: 1;">300</text><text text-anchor="middle" transform="translate(160,15)" style="font: 10px sans-serif; fill: #000; opacity: 1;">400</text><text text-anchor="end" transform="translate(200,15)" style="font: 10px sans-serif; fill: #000; opacity: 1;">500</text></g><g class="mark-rule role-axis-domain" style="pointer-events: none;"><line transform="translate(0,0)" x2="200" y2="0" style="fill: none; stroke: #888; stroke-width: 1; opacity: 1;"></line></g><g class="mark-text role-axis-title" style="pointer-events: none;"><text text-anchor="middle" transform="translate(100,31)" style="font: bold 11px sans-serif; fill: #000; opacity: 1;">mass</text></g></g></g></g></g></g><g transform="translate(216,641)"><path class="background" d="M0,0h200v0h-200Z" style="fill: none;"></path><g><g class="mark-group role-axis"><g transform="translate(0.5,0.5)"><path class="background" d="M0,0h0v0h0Z" style="pointer-events: none; fill: none;"></path><g><g class="mark-rule role-axis-tick" style="pointer-events: none;"><line transform="translate(0,0)" x2="0" y2="5" style="fill: none; stroke: #888; stroke-width: 1; opacity: 1;"></line><line transform="translate(40,0)" x2="0" y2="5" style="fill: none; stroke: #888; stroke-width: 1; opacity: 1;"></line><line transform="translate(80,0)" x2="0" y2="5" style="fill: none; stroke: #888; stroke-width: 1; opacity: 1;"></line><line transform="translate(120,0)" x2="0" y2="5" style="fill: none; stroke: #888; stroke-width: 1; opacity: 1;"></line><line transform="translate(160,0)" x2="0" y2="5" style="fill: none; stroke: #888; stroke-width: 1; opacity: 1;"></line><line transform="translate(200,0)" x2="0" y2="5" style="fill: none; stroke: #888; stroke-width: 1; opacity: 1;"></line></g><g class="mark-text role-axis-label" style="pointer-events: none;"><text text-anchor="start" transform="translate(0,15)" style="font: 10px sans-serif; fill: #000; opacity: 1;">0</text><text text-anchor="middle" transform="translate(40,15)" style="font: 10px sans-serif; fill: #000; opacity: 1;">100</text><text text-anchor="middle" transform="translate(80,15)" style="font: 10px sans-serif; fill: #000; opacity: 1;">200</text><text text-anchor="middle" transform="translate(120,15)" style="font: 10px sans-serif; fill: #000; opacity: 1;">300</text><text text-anchor="middle" transform="translate(160,15)" style="font: 10px sans-serif; fill: #000; opacity: 1;">400</text><text text-anchor="end" transform="translate(200,15)" style="font: 10px sans-serif; fill: #000; opacity: 1;">500</text></g><g class="mark-rule role-axis-domain" style="pointer-events: none;"><line transform="translate(0,0)" x2="200" y2="0" style="fill: none; stroke: #888; stroke-width: 1; opacity: 1;"></line></g><g class="mark-text role-axis-title" style="pointer-events: none;"><text text-anchor="middle" transform="translate(100,31)" style="font: bold 11px sans-serif; fill: #000; opacity: 1;">mass</text></g></g></g></g></g></g><g transform="translate(432,641)"><path class="background" d="M0,0h200v0h-200Z" style="fill: none;"></path><g><g class="mark-group role-axis"><g transform="translate(0.5,0.5)"><path class="background" d="M0,0h0v0h0Z" style="pointer-events: none; fill: none;"></path><g><g class="mark-rule role-axis-tick" style="pointer-events: none;"><line transform="translate(0,0)" x2="0" y2="5" style="fill: none; stroke: #888; stroke-width: 1; opacity: 1;"></line><line transform="translate(40,0)" x2="0" y2="5" style="fill: none; stroke: #888; stroke-width: 1; opacity: 1;"></line><line transform="translate(80,0)" x2="0" y2="5" style="fill: none; stroke: #888; stroke-width: 1; opacity: 1;"></line><line transform="translate(120,0)" x2="0" y2="5" style="fill: none; stroke: #888; stroke-width: 1; opacity: 1;"></line><line transform="translate(160,0)" x2="0" y2="5" style="fill: none; stroke: #888; stroke-width: 1; opacity: 1;"></line><line transform="translate(200,0)" x2="0" y2="5" style="fill: none; stroke: #888; stroke-width: 1; opacity: 1;"></line></g><g class="mark-text role-axis-label" style="pointer-events: none;"><text text-anchor="start" transform="translate(0,15)" style="font: 10px sans-serif; fill: #000; opacity: 1;">0</text><text text-anchor="middle" transform="translate(40,15)" style="font: 10px sans-serif; fill: #000; opacity: 1;">100</text><text text-anchor="middle" transform="translate(80,15)" style="font: 10px sans-serif; fill: #000; opacity: 1;">200</text><text text-anchor="middle" transform="translate(120,15)" style="font: 10px sans-serif; fill: #000; opacity: 1;">300</text><text text-anchor="middle" transform="translate(160,15)" style="font: 10px sans-serif; fill: #000; opacity: 1;">400</text><text text-anchor="end" transform="translate(200,15)" style="font: 10px sans-serif; fill: #000; opacity: 1;">500</text></g><g class="mark-rule role-axis-domain" style="pointer-events: none;"><line transform="translate(0,0)" x2="200" y2="0" style="fill: none; stroke: #888; stroke-width: 1; opacity: 1;"></line></g><g class="mark-text role-axis-title" style="pointer-events: none;"><text text-anchor="middle" transform="translate(100,31)" style="font: bold 11px sans-serif; fill: #000; opacity: 1;">mass</text></g></g></g></g></g></g></g><g class="mark-group role-scope cell"><g transform="translate(0,0)"><path class="background" d="M0.5,0.5h200v200h-200Z" style="fill: none; stroke: #ddd;"></path><g><g class="mark-group role-axis"><g transform="translate(0.5,200.5)"><path class="background" d="M0,0h0v0h0Z" style="pointer-events: none; fill: none;"></path><g><g class="mark-rule role-axis-grid" style="pointer-events: none;"><line transform="translate(0,-200)" x2="0" y2="200" style="fill: none; stroke: #ddd; stroke-width: 1; opacity: 1;"></line><line transform="translate(40,-200)" x2="0" y2="200" style="fill: none; stroke: #ddd; stroke-width: 1; opacity: 1;"></line><line transform="translate(80,-200)" x2="0" y2="200" style="fill: none; stroke: #ddd; stroke-width: 1; opacity: 1;"></line><line transform="translate(120,-200)" x2="0" y2="200" style="fill: none; stroke: #ddd; stroke-width: 1; opacity: 1;"></line><line transform="translate(160,-200)" x2="0" y2="200" style="fill: none; stroke: #ddd; stroke-width: 1; opacity: 1;"></line><line transform="translate(200,-200)" x2="0" y2="200" style="fill: none; stroke: #ddd; stroke-width: 1; opacity: 1;"></line></g></g></g></g><g class="mark-group role-axis"><g transform="translate(0.5,0.5)"><path class="background" d="M0,0h0v0h0Z" style="pointer-events: none; fill: none;"></path><g><g class="mark-rule role-axis-grid" style="pointer-events: none;"><line transform="translate(0,200)" x2="200" y2="0" style="fill: none; stroke: #ddd; stroke-width: 1; opacity: 1;"></line><line transform="translate(0,171)" x2="200" y2="0" style="fill: none; stroke: #ddd; stroke-width: 1; opacity: 1;"></line><line transform="translate(0,143)" x2="200" y2="0" style="fill: none; stroke: #ddd; stroke-width: 1; opacity: 1;"></line><line transform="translate(0,114)" x2="200" y2="0" style="fill: none; stroke: #ddd; stroke-width: 1; opacity: 1;"></line><line transform="translate(0,86)" x2="200" y2="0" style="fill: none; stroke: #ddd; stroke-width: 1; opacity: 1;"></line><line transform="translate(0,57)" x2="200" y2="0" style="fill: none; stroke: #ddd; stroke-width: 1; opacity: 1;"></line><line transform="translate(0,29)" x2="200" y2="0" style="fill: none; stroke: #ddd; stroke-width: 1; opacity: 1;"></line><line transform="translate(0,0)" x2="200" y2="0" style="fill: none; stroke: #ddd; stroke-width: 1; opacity: 1;"></line></g></g></g></g><g class="mark-line role-mark child_marks"><path d="M200,165.71428571428572L200,200L198,200L198,200L196,200L196,197.14285714285714L194,197.14285714285714L194,200L192,200L192,200L190,200L190,197.14285714285714L188,197.14285714285714L188,200L186,200L186,200L184,200L184,194.28571428571428L182,194.28571428571428L182,200L180,200L180,200L178,200L178,200L176,200L176,197.14285714285714L174,197.14285714285714L174,197.14285714285714L172,197.14285714285714L172,197.14285714285714L170,197.14285714285714L170,200L168,200L168,200L166,200L166,200L164,200L164,197.14285714285714L162,197.14285714285714L162,200L160,200L160,200L158,200L158,200L156,200L156,194.28571428571428L154,194.28571428571428L154,197.14285714285714L152,197.14285714285714L152,197.14285714285714L150,197.14285714285714L150,197.14285714285714L148,197.14285714285714L148,200L146,200L146,191.42857142857142L144,191.42857142857142L144,200L142,200L142,197.14285714285714L140,197.14285714285714L140,200L138,200L138,194.28571428571428L136,194.28571428571428L136,200L134,200L134,197.14285714285714L132,197.14285714285714L132,188.57142857142858L130,188.57142857142858L130,191.42857142857142L128,191.42857142857142L128,185.71428571428572L126,185.71428571428572L126,194.28571428571428L124,194.28571428571428L124,191.42857142857142L122,191.42857142857142L122,200L120,200L120,194.28571428571428L118,194.28571428571428L118,200L115.99999999999999,200L115.99999999999999,185.71428571428572L113.99999999999999,185.71428571428572L113.99999999999999,188.57142857142858L112.00000000000001,188.57142857142858L112.00000000000001,197.14285714285714L110.00000000000001,197.14285714285714L110.00000000000001,191.42857142857142L108,191.42857142857142L108,182.85714285714286L106,182.85714285714286L106,194.28571428571428L104,194.28571428571428L104,182.85714285714286L102,182.85714285714286L102,177.14285714285714L100,177.14285714285714L100,191.42857142857142L98,191.42857142857142L98,185.71428571428572L96,185.71428571428572L96,182.85714285714286L94,182.85714285714286L94,188.57142857142858L92,188.57142857142858L92,168.57142857142858L90,168.57142857142858L90,180L88,180L88,171.42857142857144L86,171.42857142857144L86,185.71428571428572L84,185.71428571428572L84,162.85714285714286L82,162.85714285714286L82,165.71428571428572L80,165.71428571428572L80,165.71428571428572L78,165.71428571428572L78,168.57142857142858L76,168.57142857142858L76,165.71428571428572L74,165.71428571428572L74,162.85714285714286L72,162.85714285714286L72,174.28571428571428L70,174.28571428571428L70,142.85714285714286L68,142.85714285714286L68,148.57142857142858L66,148.57142857142858L66,148.57142857142858L64,148.57142857142858L64,168.57142857142858L62,168.57142857142858L62,168.57142857142858L60,168.57142857142858L60,157.14285714285714L57.99999999999999,157.14285714285714L57.99999999999999,125.71428571428571L56.00000000000001,125.71428571428571L56.00000000000001,148.57142857142858L54,148.57142857142858L54,142.85714285714286L52,142.85714285714286L52,154.28571428571428L50,154.28571428571428L50,114.28571428571429L48,114.28571428571429L48,60L46,60L46,88.57142857142857L44,88.57142857142857L44,91.42857142857143L42,91.42857142857143L42,91.42857142857143L40,91.42857142857143L40,94.28571428571428L38,94.28571428571428L38,54.285714285714306L36,54.285714285714306L36,28.571428571428584L34,28.571428571428584L34,28.571428571428584L32,28.571428571428584L32,17.14285714285714L30,17.14285714285714L30,37.14285714285714L28.000000000000004,37.14285714285714L28.000000000000004,51.428571428571416L26,51.428571428571416L26,60L24,60L24,40L22,40L22,5.714285714285722L20,5.714285714285722L20,54.285714285714306L18,54.285714285714306L18,22.85714285714286L16,22.85714285714286L16,40L14.000000000000002,40L14.000000000000002,82.85714285714285L12,82.85714285714285L12,108.57142857142857L10,108.57142857142857L10,117.14285714285714L8,117.14285714285714L8,97.14285714285715L6,97.14285714285715L6,151.42857142857144L4,151.42857142857144L4,165.71428571428572L2,165.71428571428572L2,185.71428571428572L0,185.71428571428572" style="fill: none; stroke: #4c78a8; stroke-width: 2;"></path></g></g></g><g transform="translate(216,0)"><path class="background" d="M0.5,0.5h200v200h-200Z" style="fill: none; stroke: #ddd;"></path><g><g class="mark-group role-axis"><g transform="translate(0.5,200.5)"><path class="background" d="M0,0h0v0h0Z" style="pointer-events: none; fill: none;"></path><g><g class="mark-rule role-axis-grid" style="pointer-events: none;"><line transform="translate(0,-200)" x2="0" y2="200" style="fill: none; stroke: #ddd; stroke-width: 1; opacity: 1;"></line><line transform="translate(40,-200)" x2="0" y2="200" style="fill: none; stroke: #ddd; stroke-width: 1; opacity: 1;"></line><line transform="translate(80,-200)" x2="0" y2="200" style="fill: none; stroke: #ddd; stroke-width: 1; opacity: 1;"></line><line transform="translate(120,-200)" x2="0" y2="200" style="fill: none; stroke: #ddd; stroke-width: 1; opacity: 1;"></line><line transform="translate(160,-200)" x2="0" y2="200" style="fill: none; stroke: #ddd; stroke-width: 1; opacity: 1;"></line><line transform="translate(200,-200)" x2="0" y2="200" style="fill: none; stroke: #ddd; stroke-width: 1; opacity: 1;"></line></g></g></g></g><g class="mark-group role-axis"><g transform="translate(0.5,0.5)"><path class="background" d="M0,0h0v0h0Z" style="pointer-events: none; fill: none;"></path><g><g class="mark-rule role-axis-grid" style="pointer-events: none;"><line transform="translate(0,200)" x2="200" y2="0" style="fill: none; stroke: #ddd; stroke-width: 1; opacity: 1;"></line><line transform="translate(0,171)" x2="200" y2="0" style="fill: none; stroke: #ddd; stroke-width: 1; opacity: 1;"></line><line transform="translate(0,143)" x2="200" y2="0" style="fill: none; stroke: #ddd; stroke-width: 1; opacity: 1;"></line><line transform="translate(0,114)" x2="200" y2="0" style="fill: none; stroke: #ddd; stroke-width: 1; opacity: 1;"></line><line transform="translate(0,86)" x2="200" y2="0" style="fill: none; stroke: #ddd; stroke-width: 1; opacity: 1;"></line><line transform="translate(0,57)" x2="200" y2="0" style="fill: none; stroke: #ddd; stroke-width: 1; opacity: 1;"></line><line transform="translate(0,29)" x2="200" y2="0" style="fill: none; stroke: #ddd; stroke-width: 1; opacity: 1;"></line><line transform="translate(0,0)" x2="200" y2="0" style="fill: none; stroke: #ddd; stroke-width: 1; opacity: 1;"></line></g></g></g></g><g class="mark-line role-mark child_marks"><path d="M200,191.42857142857142L200,200L198,200L198,200L196,200L196,200L194,200L194,200L192,200L192,200L190,200L190,200L188,200L188,200L186,200L186,200L184,200L184,200L182,200L182,200L180,200L180,200L178,200L178,200L176,200L176,200L174,200L174,200L172,200L172,200L170,200L170,200L168,200L168,200L166,200L166,200L164,200L164,200L162,200L162,200L160,200L160,200L158,200L158,200L156,200L156,200L154,200L154,200L152,200L152,200L150,200L150,200L148,200L148,200L146,200L146,200L144,200L144,200L142,200L142,200L140,200L140,200L138,200L138,197.14285714285714L136,197.14285714285714L136,200L134,200L134,200L132,200L132,200L130,200L130,200L128,200L128,200L126,200L126,200L124,200L124,200L122,200L122,200L120,200L120,200L118,200L118,197.14285714285714L115.99999999999999,197.14285714285714L115.99999999999999,200L113.99999999999999,200L113.99999999999999,200L112.00000000000001,200L112.00000000000001,200L110.00000000000001,200L110.00000000000001,200L108,200L108,197.14285714285714L106,197.14285714285714L106,200L104,200L104,197.14285714285714L102,197.14285714285714L102,194.28571428571428L100,194.28571428571428L100,200L98,200L98,191.42857142857142L96,191.42857142857142L96,200L94,200L94,200L92,200L92,197.14285714285714L90,197.14285714285714L90,197.14285714285714L88,197.14285714285714L88,200L86,200L86,200L84,200L84,197.14285714285714L82,197.14285714285714L82,200L80,200L80,197.14285714285714L78,197.14285714285714L78,200L76,200L76,197.14285714285714L74,197.14285714285714L74,197.14285714285714L72,197.14285714285714L72,197.14285714285714L70,197.14285714285714L70,197.14285714285714L68,197.14285714285714L68,191.42857142857142L66,191.42857142857142L66,197.14285714285714L64,197.14285714285714L64,191.42857142857142L62,191.42857142857142L62,194.28571428571428L60,194.28571428571428L60,197.14285714285714L57.99999999999999,197.14285714285714L57.99999999999999,191.42857142857142L56.00000000000001,191.42857142857142L56.00000000000001,191.42857142857142L54,191.42857142857142L54,188.57142857142858L52,188.57142857142858L52,197.14285714285714L50,197.14285714285714L50,191.42857142857142L48,191.42857142857142L48,185.71428571428572L46,185.71428571428572L46,194.28571428571428L44,194.28571428571428L44,188.57142857142858L42,188.57142857142858L42,177.14285714285714L40,177.14285714285714L40,171.42857142857144L38,171.42857142857144L38,177.14285714285714L36,177.14285714285714L36,168.57142857142858L34,168.57142857142858L34,180L32,180L32,160L30,160L30,180L28.000000000000004,180L28.000000000000004,165.71428571428572L26,165.71428571428572L26,162.85714285714286L24,162.85714285714286L24,160L22,160L22,165.71428571428572L20,165.71428571428572L20,157.14285714285714L18,157.14285714285714L18,177.14285714285714L16,177.14285714285714L16,148.57142857142858L14.000000000000002,148.57142857142858L14.000000000000002,174.28571428571428L12,174.28571428571428L12,180L10,180L10,180L8,180L8,182.85714285714286L6,182.85714285714286L6,191.42857142857142L4,191.42857142857142L4,194.28571428571428L2,194.28571428571428L2,197.14285714285714L0,197.14285714285714" style="fill: none; stroke: #4c78a8; stroke-width: 2;"></path></g></g></g><g transform="translate(432,0)"><path class="background" d="M0.5,0.5h200v200h-200Z" style="fill: none; stroke: #ddd;"></path><g><g class="mark-group role-axis"><g transform="translate(0.5,200.5)"><path class="background" d="M0,0h0v0h0Z" style="pointer-events: none; fill: none;"></path><g><g class="mark-rule role-axis-grid" style="pointer-events: none;"><line transform="translate(0,-200)" x2="0" y2="200" style="fill: none; stroke: #ddd; stroke-width: 1; opacity: 1;"></line><line transform="translate(40,-200)" x2="0" y2="200" style="fill: none; stroke: #ddd; stroke-width: 1; opacity: 1;"></line><line transform="translate(80,-200)" x2="0" y2="200" style="fill: none; stroke: #ddd; stroke-width: 1; opacity: 1;"></line><line transform="translate(120,-200)" x2="0" y2="200" style="fill: none; stroke: #ddd; stroke-width: 1; opacity: 1;"></line><line transform="translate(160,-200)" x2="0" y2="200" style="fill: none; stroke: #ddd; stroke-width: 1; opacity: 1;"></line><line transform="translate(200,-200)" x2="0" y2="200" style="fill: none; stroke: #ddd; stroke-width: 1; opacity: 1;"></line></g></g></g></g><g class="mark-group role-axis"><g transform="translate(0.5,0.5)"><path class="background" d="M0,0h0v0h0Z" style="pointer-events: none; fill: none;"></path><g><g class="mark-rule role-axis-grid" style="pointer-events: none;"><line transform="translate(0,200)" x2="200" y2="0" style="fill: none; stroke: #ddd; stroke-width: 1; opacity: 1;"></line><line transform="translate(0,171)" x2="200" y2="0" style="fill: none; stroke: #ddd; stroke-width: 1; opacity: 1;"></line><line transform="translate(0,143)" x2="200" y2="0" style="fill: none; stroke: #ddd; stroke-width: 1; opacity: 1;"></line><line transform="translate(0,114)" x2="200" y2="0" style="fill: none; stroke: #ddd; stroke-width: 1; opacity: 1;"></line><line transform="translate(0,86)" x2="200" y2="0" style="fill: none; stroke: #ddd; stroke-width: 1; opacity: 1;"></line><line transform="translate(0,57)" x2="200" y2="0" style="fill: none; stroke: #ddd; stroke-width: 1; opacity: 1;"></line><line transform="translate(0,29)" x2="200" y2="0" style="fill: none; stroke: #ddd; stroke-width: 1; opacity: 1;"></line><line transform="translate(0,0)" x2="200" y2="0" style="fill: none; stroke: #ddd; stroke-width: 1; opacity: 1;"></line></g></g></g></g><g class="mark-line role-mark child_marks"><path d="M200,194.28571428571428L200,200L198,200L198,200L196,200L196,200L194,200L194,200L192,200L192,200L190,200L190,200L188,200L188,200L186,200L186,200L184,200L184,200L182,200L182,200L180,200L180,200L178,200L178,200L176,200L176,194.28571428571428L174,194.28571428571428L174,200L172,200L172,200L170,200L170,200L168,200L168,200L166,200L166,197.14285714285714L164,197.14285714285714L164,200L162,200L162,200L160,200L160,197.14285714285714L158,197.14285714285714L158,194.28571428571428L156,194.28571428571428L156,197.14285714285714L154,197.14285714285714L154,197.14285714285714L152,197.14285714285714L152,200L150,200L150,200L148,200L148,200L146,200L146,200L144,200L144,197.14285714285714L142,197.14285714285714L142,200L140,200L140,200L138,200L138,200L136,200L136,200L134,200L134,197.14285714285714L132,197.14285714285714L132,200L130,200L130,200L128,200L128,197.14285714285714L126,197.14285714285714L126,200L124,200L124,200L122,200L122,200L120,200L120,197.14285714285714L118,197.14285714285714L118,194.28571428571428L115.99999999999999,194.28571428571428L115.99999999999999,194.28571428571428L113.99999999999999,194.28571428571428L113.99999999999999,200L112.00000000000001,200L112.00000000000001,200L110.00000000000001,200L110.00000000000001,200L108,200L108,200L106,200L106,200L104,200L104,200L102,200L102,197.14285714285714L100,197.14285714285714L100,200L98,200L98,194.28571428571428L96,194.28571428571428L96,191.42857142857142L94,191.42857142857142L94,194.28571428571428L92,194.28571428571428L92,200L90,200L90,200L88,200L88,194.28571428571428L86,194.28571428571428L86,200L84,200L84,194.28571428571428L82,194.28571428571428L82,197.14285714285714L80,197.14285714285714L80,197.14285714285714L78,197.14285714285714L78,188.57142857142858L76,188.57142857142858L76,194.28571428571428L74,194.28571428571428L74,188.57142857142858L72,188.57142857142858L72,197.14285714285714L70,197.14285714285714L70,191.42857142857142L68,191.42857142857142L68,197.14285714285714L66,197.14285714285714L66,197.14285714285714L64,197.14285714285714L64,191.42857142857142L62,191.42857142857142L62,185.71428571428572L60,185.71428571428572L60,188.57142857142858L57.99999999999999,188.57142857142858L57.99999999999999,194.28571428571428L56.00000000000001,194.28571428571428L56.00000000000001,191.42857142857142L54,191.42857142857142L54,191.42857142857142L52,191.42857142857142L52,191.42857142857142L50,191.42857142857142L50,188.57142857142858L48,188.57142857142858L48,177.14285714285714L46,177.14285714285714L46,182.85714285714286L44,182.85714285714286L44,194.28571428571428L42,194.28571428571428L42,177.14285714285714L40,177.14285714285714L40,182.85714285714286L38,182.85714285714286L38,182.85714285714286L36,182.85714285714286L36,174.28571428571428L34,174.28571428571428L34,177.14285714285714L32,177.14285714285714L32,177.14285714285714L30,177.14285714285714L30,177.14285714285714L28.000000000000004,177.14285714285714L28.000000000000004,160L26,160L26,142.85714285714286L24,142.85714285714286L24,160L22,160L22,162.85714285714286L20,162.85714285714286L20,154.28571428571428L18,154.28571428571428L18,140L16,140L16,157.14285714285714L14.000000000000002,157.14285714285714L14.000000000000002,160L12,160L12,165.71428571428572L10,165.71428571428572L10,182.85714285714286L8,182.85714285714286L8,174.28571428571428L6,174.28571428571428L6,182.85714285714286L4,182.85714285714286L4,188.57142857142858L2,188.57142857142858L2,200L0,200" style="fill: none; stroke: #4c78a8; stroke-width: 2;"></path></g></g></g><g transform="translate(0,214)"><path class="background" d="M0.5,0.5h200v200h-200Z" style="fill: none; stroke: #ddd;"></path><g><g class="mark-group role-axis"><g transform="translate(0.5,200.5)"><path class="background" d="M0,0h0v0h0Z" style="pointer-events: none; fill: none;"></path><g><g class="mark-rule role-axis-grid" style="pointer-events: none;"><line transform="translate(0,-200)" x2="0" y2="200" style="fill: none; stroke: #ddd; stroke-width: 1; opacity: 1;"></line><line transform="translate(40,-200)" x2="0" y2="200" style="fill: none; stroke: #ddd; stroke-width: 1; opacity: 1;"></line><line transform="translate(80,-200)" x2="0" y2="200" style="fill: none; stroke: #ddd; stroke-width: 1; opacity: 1;"></line><line transform="translate(120,-200)" x2="0" y2="200" style="fill: none; stroke: #ddd; stroke-width: 1; opacity: 1;"></line><line transform="translate(160,-200)" x2="0" y2="200" style="fill: none; stroke: #ddd; stroke-width: 1; opacity: 1;"></line><line transform="translate(200,-200)" x2="0" y2="200" style="fill: none; stroke: #ddd; stroke-width: 1; opacity: 1;"></line></g></g></g></g><g class="mark-group role-axis"><g transform="translate(0.5,0.5)"><path class="background" d="M0,0h0v0h0Z" style="pointer-events: none; fill: none;"></path><g><g class="mark-rule role-axis-grid" style="pointer-events: none;"><line transform="translate(0,200)" x2="200" y2="0" style="fill: none; stroke: #ddd; stroke-width: 1; opacity: 1;"></line><line transform="translate(0,171)" x2="200" y2="0" style="fill: none; stroke: #ddd; stroke-width: 1; opacity: 1;"></line><line transform="translate(0,143)" x2="200" y2="0" style="fill: none; stroke: #ddd; stroke-width: 1; opacity: 1;"></line><line transform="translate(0,114)" x2="200" y2="0" style="fill: none; stroke: #ddd; stroke-width: 1; opacity: 1;"></line><line transform="translate(0,86)" x2="200" y2="0" style="fill: none; stroke: #ddd; stroke-width: 1; opacity: 1;"></line><line transform="translate(0,57)" x2="200" y2="0" style="fill: none; stroke: #ddd; stroke-width: 1; opacity: 1;"></line><line transform="translate(0,29)" x2="200" y2="0" style="fill: none; stroke: #ddd; stroke-width: 1; opacity: 1;"></line><line transform="translate(0,0)" x2="200" y2="0" style="fill: none; stroke: #ddd; stroke-width: 1; opacity: 1;"></line></g></g></g></g><g class="mark-line role-mark child_marks"><path d="M200,194.28571428571428L200,200L198,200L198,200L196,200L196,200L194,200L194,200L192,200L192,200L190,200L190,200L188,200L188,200L186,200L186,200L184,200L184,200L182,200L182,200L180,200L180,200L178,200L178,200L176,200L176,200L174,200L174,200L172,200L172,200L170,200L170,200L168,200L168,200L166,200L166,200L164,200L164,200L162,200L162,200L160,200L160,200L158,200L158,200L156,200L156,197.14285714285714L154,197.14285714285714L154,200L152,200L152,200L150,200L150,200L148,200L148,200L146,200L146,200L144,200L144,200L142,200L142,200L140,200L140,200L138,200L138,200L136,200L136,200L134,200L134,194.28571428571428L132,194.28571428571428L132,197.14285714285714L130,197.14285714285714L130,200L128,200L128,200L126,200L126,200L124,200L124,200L122,200L122,200L120,200L120,200L118,200L118,200L115.99999999999999,200L115.99999999999999,200L113.99999999999999,200L113.99999999999999,200L112.00000000000001,200L112.00000000000001,200L110.00000000000001,200L110.00000000000001,194.28571428571428L108,194.28571428571428L108,200L106,200L106,194.28571428571428L104,194.28571428571428L104,197.14285714285714L102,197.14285714285714L102,197.14285714285714L100,197.14285714285714L100,200L98,200L98,200L96,200L96,197.14285714285714L94,197.14285714285714L94,194.28571428571428L92,194.28571428571428L92,194.28571428571428L90,194.28571428571428L90,197.14285714285714L88,197.14285714285714L88,188.57142857142858L86,188.57142857142858L86,200L84,200L84,197.14285714285714L82,197.14285714285714L82,197.14285714285714L80,197.14285714285714L80,200L78,200L78,194.28571428571428L76,194.28571428571428L76,197.14285714285714L74,197.14285714285714L74,194.28571428571428L72,194.28571428571428L72,197.14285714285714L70,197.14285714285714L70,191.42857142857142L68,191.42857142857142L68,200L66,200L66,191.42857142857142L64,191.42857142857142L64,191.42857142857142L62,191.42857142857142L62,191.42857142857142L60,191.42857142857142L60,188.57142857142858L57.99999999999999,188.57142857142858L57.99999999999999,191.42857142857142L56.00000000000001,191.42857142857142L56.00000000000001,197.14285714285714L54,197.14285714285714L54,197.14285714285714L52,197.14285714285714L52,194.28571428571428L50,194.28571428571428L50,197.14285714285714L48,197.14285714285714L48,185.71428571428572L46,185.71428571428572L46,191.42857142857142L44,191.42857142857142L44,182.85714285714286L42,182.85714285714286L42,180L40,180L40,188.57142857142858L38,188.57142857142858L38,188.57142857142858L36,188.57142857142858L36,188.57142857142858L34,188.57142857142858L34,180L32,180L32,171.42857142857144L30,171.42857142857144L30,185.71428571428572L28.000000000000004,185.71428571428572L28.000000000000004,177.14285714285714L26,177.14285714285714L26,168.57142857142858L24,168.57142857142858L24,174.28571428571428L22,174.28571428571428L22,171.42857142857144L20,171.42857142857144L20,177.14285714285714L18,177.14285714285714L18,174.28571428571428L16,174.28571428571428L16,174.28571428571428L14.000000000000002,174.28571428571428L14.000000000000002,180L12,180L12,188.57142857142858L10,188.57142857142858L10,194.28571428571428L8,194.28571428571428L8,194.28571428571428L6,194.28571428571428L6,194.28571428571428L4,194.28571428571428L4,197.14285714285714L2,197.14285714285714L2,197.14285714285714L0,197.14285714285714" style="fill: none; stroke: #4c78a8; stroke-width: 2;"></path></g></g></g><g transform="translate(216,214)"><path class="background" d="M0.5,0.5h200v200h-200Z" style="fill: none; stroke: #ddd;"></path><g><g class="mark-group role-axis"><g transform="translate(0.5,200.5)"><path class="background" d="M0,0h0v0h0Z" style="pointer-events: none; fill: none;"></path><g><g class="mark-rule role-axis-grid" style="pointer-events: none;"><line transform="translate(0,-200)" x2="0" y2="200" style="fill: none; stroke: #ddd; stroke-width: 1; opacity: 1;"></line><line transform="translate(40,-200)" x2="0" y2="200" style="fill: none; stroke: #ddd; stroke-width: 1; opacity: 1;"></line><line transform="translate(80,-200)" x2="0" y2="200" style="fill: none; stroke: #ddd; stroke-width: 1; opacity: 1;"></line><line transform="translate(120,-200)" x2="0" y2="200" style="fill: none; stroke: #ddd; stroke-width: 1; opacity: 1;"></line><line transform="translate(160,-200)" x2="0" y2="200" style="fill: none; stroke: #ddd; stroke-width: 1; opacity: 1;"></line><line transform="translate(200,-200)" x2="0" y2="200" style="fill: none; stroke: #ddd; stroke-width: 1; opacity: 1;"></line></g></g></g></g><g class="mark-group role-axis"><g transform="translate(0.5,0.5)"><path class="background" d="M0,0h0v0h0Z" style="pointer-events: none; fill: none;"></path><g><g class="mark-rule role-axis-grid" style="pointer-events: none;"><line transform="translate(0,200)" x2="200" y2="0" style="fill: none; stroke: #ddd; stroke-width: 1; opacity: 1;"></line><line transform="translate(0,171)" x2="200" y2="0" style="fill: none; stroke: #ddd; stroke-width: 1; opacity: 1;"></line><line transform="translate(0,143)" x2="200" y2="0" style="fill: none; stroke: #ddd; stroke-width: 1; opacity: 1;"></line><line transform="translate(0,114)" x2="200" y2="0" style="fill: none; stroke: #ddd; stroke-width: 1; opacity: 1;"></line><line transform="translate(0,86)" x2="200" y2="0" style="fill: none; stroke: #ddd; stroke-width: 1; opacity: 1;"></line><line transform="translate(0,57)" x2="200" y2="0" style="fill: none; stroke: #ddd; stroke-width: 1; opacity: 1;"></line><line transform="translate(0,29)" x2="200" y2="0" style="fill: none; stroke: #ddd; stroke-width: 1; opacity: 1;"></line><line transform="translate(0,0)" x2="200" y2="0" style="fill: none; stroke: #ddd; stroke-width: 1; opacity: 1;"></line></g></g></g></g><g class="mark-line role-mark child_marks"><path d="M200,197.14285714285714L200,200L198,200L198,200L196,200L196,200L194,200L194,200L192,200L192,200L190,200L190,200L188,200L188,200L186,200L186,200L184,200L184,200L182,200L182,200L180,200L180,200L178,200L178,200L176,200L176,200L174,200L174,200L172,200L172,200L170,200L170,200L168,200L168,200L166,200L166,200L164,200L164,200L162,200L162,200L160,200L160,200L158,200L158,200L156,200L156,200L154,200L154,200L152,200L152,200L150,200L150,200L148,200L148,200L146,200L146,200L144,200L144,200L142,200L142,200L140,200L140,200L138,200L138,200L136,200L136,200L134,200L134,200L132,200L132,200L130,200L130,200L128,200L128,200L126,200L126,200L124,200L124,200L122,200L122,200L120,200L120,200L118,200L118,200L115.99999999999999,200L115.99999999999999,200L113.99999999999999,200L113.99999999999999,200L112.00000000000001,200L112.00000000000001,200L110.00000000000001,200L110.00000000000001,200L108,200L108,200L106,200L106,200L104,200L104,200L102,200L102,200L100,200L100,200L98,200L98,200L96,200L96,200L94,200L94,200L92,200L92,200L90,200L90,200L88,200L88,200L86,200L86,200L84,200L84,197.14285714285714L82,197.14285714285714L82,200L80,200L80,197.14285714285714L78,197.14285714285714L78,200L76,200L76,200L74,200L74,200L72,200L72,200L70,200L70,200L68,200L68,200L66,200L66,200L64,200L64,200L62,200L62,200L60,200L60,200L57.99999999999999,200L57.99999999999999,194.28571428571428L56.00000000000001,194.28571428571428L56.00000000000001,197.14285714285714L54,197.14285714285714L54,200L52,200L52,200L50,200L50,200L48,200L48,194.28571428571428L46,194.28571428571428L46,200L44,200L44,200L42,200L42,194.28571428571428L40,194.28571428571428L40,200L38,200L38,200L36,200L36,200L34,200L34,197.14285714285714L32,197.14285714285714L32,197.14285714285714L30,197.14285714285714L30,194.28571428571428L28.000000000000004,194.28571428571428L28.000000000000004,197.14285714285714L26,197.14285714285714L26,197.14285714285714L24,197.14285714285714L24,197.14285714285714L22,197.14285714285714L22,197.14285714285714L20,197.14285714285714L20,191.42857142857142L18,191.42857142857142L18,197.14285714285714L16,197.14285714285714L16,194.28571428571428L14.000000000000002,194.28571428571428L14.000000000000002,200L12,200L12,188.57142857142858L10,188.57142857142858L10,200L8,200L8,197.14285714285714L6,197.14285714285714L6,200L4,200L4,200L2,200L2,197.14285714285714L0,197.14285714285714" style="fill: none; stroke: #4c78a8; stroke-width: 2;"></path></g></g></g><g transform="translate(432,214)"><path class="background" d="M0.5,0.5h200v200h-200Z" style="fill: none; stroke: #ddd;"></path><g><g class="mark-group role-axis"><g transform="translate(0.5,200.5)"><path class="background" d="M0,0h0v0h0Z" style="pointer-events: none; fill: none;"></path><g><g class="mark-rule role-axis-grid" style="pointer-events: none;"><line transform="translate(0,-200)" x2="0" y2="200" style="fill: none; stroke: #ddd; stroke-width: 1; opacity: 1;"></line><line transform="translate(40,-200)" x2="0" y2="200" style="fill: none; stroke: #ddd; stroke-width: 1; opacity: 1;"></line><line transform="translate(80,-200)" x2="0" y2="200" style="fill: none; stroke: #ddd; stroke-width: 1; opacity: 1;"></line><line transform="translate(120,-200)" x2="0" y2="200" style="fill: none; stroke: #ddd; stroke-width: 1; opacity: 1;"></line><line transform="translate(160,-200)" x2="0" y2="200" style="fill: none; stroke: #ddd; stroke-width: 1; opacity: 1;"></line><line transform="translate(200,-200)" x2="0" y2="200" style="fill: none; stroke: #ddd; stroke-width: 1; opacity: 1;"></line></g></g></g></g><g class="mark-group role-axis"><g transform="translate(0.5,0.5)"><path class="background" d="M0,0h0v0h0Z" style="pointer-events: none; fill: none;"></path><g><g class="mark-rule role-axis-grid" style="pointer-events: none;"><line transform="translate(0,200)" x2="200" y2="0" style="fill: none; stroke: #ddd; stroke-width: 1; opacity: 1;"></line><line transform="translate(0,171)" x2="200" y2="0" style="fill: none; stroke: #ddd; stroke-width: 1; opacity: 1;"></line><line transform="translate(0,143)" x2="200" y2="0" style="fill: none; stroke: #ddd; stroke-width: 1; opacity: 1;"></line><line transform="translate(0,114)" x2="200" y2="0" style="fill: none; stroke: #ddd; stroke-width: 1; opacity: 1;"></line><line transform="translate(0,86)" x2="200" y2="0" style="fill: none; stroke: #ddd; stroke-width: 1; opacity: 1;"></line><line transform="translate(0,57)" x2="200" y2="0" style="fill: none; stroke: #ddd; stroke-width: 1; opacity: 1;"></line><line transform="translate(0,29)" x2="200" y2="0" style="fill: none; stroke: #ddd; stroke-width: 1; opacity: 1;"></line><line transform="translate(0,0)" x2="200" y2="0" style="fill: none; stroke: #ddd; stroke-width: 1; opacity: 1;"></line></g></g></g></g><g class="mark-line role-mark child_marks"><path d="M200,197.14285714285714L200,200L198,200L198,200L196,200L196,200L194,200L194,200L192,200L192,200L190,200L190,197.14285714285714L188,197.14285714285714L188,200L186,200L186,200L184,200L184,200L182,200L182,200L180,200L180,200L178,200L178,200L176,200L176,200L174,200L174,200L172,200L172,200L170,200L170,200L168,200L168,200L166,200L166,200L164,200L164,200L162,200L162,200L160,200L160,200L158,200L158,200L156,200L156,200L154,200L154,200L152,200L152,200L150,200L150,200L148,200L148,200L146,200L146,200L144,200L144,200L142,200L142,200L140,200L140,200L138,200L138,200L136,200L136,200L134,200L134,200L132,200L132,200L130,200L130,200L128,200L128,200L126,200L126,200L124,200L124,200L122,200L122,200L120,200L120,200L118,200L118,200L115.99999999999999,200L115.99999999999999,200L113.99999999999999,200L113.99999999999999,200L112.00000000000001,200L112.00000000000001,200L110.00000000000001,200L110.00000000000001,200L108,200L108,200L106,200L106,200L104,200L104,200L102,200L102,200L100,200L100,200L98,200L98,200L96,200L96,200L94,200L94,200L92,200L92,197.14285714285714L90,197.14285714285714L90,200L88,200L88,197.14285714285714L86,197.14285714285714L86,200L84,200L84,200L82,200L82,200L80,200L80,200L78,200L78,197.14285714285714L76,197.14285714285714L76,197.14285714285714L74,197.14285714285714L74,200L72,200L72,200L70,200L70,200L68,200L68,200L66,200L66,200L64,200L64,200L62,200L62,200L60,200L60,200L57.99999999999999,200L57.99999999999999,200L56.00000000000001,200L56.00000000000001,197.14285714285714L54,197.14285714285714L54,200L52,200L52,200L50,200L50,197.14285714285714L48,197.14285714285714L48,197.14285714285714L46,197.14285714285714L46,200L44,200L44,194.28571428571428L42,194.28571428571428L42,194.28571428571428L40,194.28571428571428L40,200L38,200L38,197.14285714285714L36,197.14285714285714L36,197.14285714285714L34,197.14285714285714L34,200L32,200L32,200L30,200L30,191.42857142857142L28.000000000000004,191.42857142857142L28.000000000000004,200L26,200L26,200L24,200L24,188.57142857142858L22,188.57142857142858L22,200L20,200L20,197.14285714285714L18,197.14285714285714L18,194.28571428571428L16,194.28571428571428L16,185.71428571428572L14.000000000000002,185.71428571428572L14.000000000000002,191.42857142857142L12,191.42857142857142L12,191.42857142857142L10,191.42857142857142L10,194.28571428571428L8,194.28571428571428L8,194.28571428571428L6,194.28571428571428L6,200L4,200L4,197.14285714285714L2,197.14285714285714L2,197.14285714285714L0,197.14285714285714" style="fill: none; stroke: #4c78a8; stroke-width: 2;"></path></g></g></g><g transform="translate(0,428)"><path class="background" d="M0.5,0.5h200v200h-200Z" style="fill: none; stroke: #ddd;"></path><g><g class="mark-group role-axis"><g transform="translate(0.5,200.5)"><path class="background" d="M0,0h0v0h0Z" style="pointer-events: none; fill: none;"></path><g><g class="mark-rule role-axis-grid" style="pointer-events: none;"><line transform="translate(0,-200)" x2="0" y2="200" style="fill: none; stroke: #ddd; stroke-width: 1; opacity: 1;"></line><line transform="translate(40,-200)" x2="0" y2="200" style="fill: none; stroke: #ddd; stroke-width: 1; opacity: 1;"></line><line transform="translate(80,-200)" x2="0" y2="200" style="fill: none; stroke: #ddd; stroke-width: 1; opacity: 1;"></line><line transform="translate(120,-200)" x2="0" y2="200" style="fill: none; stroke: #ddd; stroke-width: 1; opacity: 1;"></line><line transform="translate(160,-200)" x2="0" y2="200" style="fill: none; stroke: #ddd; stroke-width: 1; opacity: 1;"></line><line transform="translate(200,-200)" x2="0" y2="200" style="fill: none; stroke: #ddd; stroke-width: 1; opacity: 1;"></line></g></g></g></g><g class="mark-group role-axis"><g transform="translate(0.5,0.5)"><path class="background" d="M0,0h0v0h0Z" style="pointer-events: none; fill: none;"></path><g><g class="mark-rule role-axis-grid" style="pointer-events: none;"><line transform="translate(0,200)" x2="200" y2="0" style="fill: none; stroke: #ddd; stroke-width: 1; opacity: 1;"></line><line transform="translate(0,171)" x2="200" y2="0" style="fill: none; stroke: #ddd; stroke-width: 1; opacity: 1;"></line><line transform="translate(0,143)" x2="200" y2="0" style="fill: none; stroke: #ddd; stroke-width: 1; opacity: 1;"></line><line transform="translate(0,114)" x2="200" y2="0" style="fill: none; stroke: #ddd; stroke-width: 1; opacity: 1;"></line><line transform="translate(0,86)" x2="200" y2="0" style="fill: none; stroke: #ddd; stroke-width: 1; opacity: 1;"></line><line transform="translate(0,57)" x2="200" y2="0" style="fill: none; stroke: #ddd; stroke-width: 1; opacity: 1;"></line><line transform="translate(0,29)" x2="200" y2="0" style="fill: none; stroke: #ddd; stroke-width: 1; opacity: 1;"></line><line transform="translate(0,0)" x2="200" y2="0" style="fill: none; stroke: #ddd; stroke-width: 1; opacity: 1;"></line></g></g></g></g><g class="mark-line role-mark child_marks"><path d="M200,191.42857142857142L200,200L198,200L198,200L196,200L196,200L194,200L194,197.14285714285714L192,197.14285714285714L192,200L190,200L190,200L188,200L188,200L186,200L186,200L184,200L184,200L182,200L182,200L180,200L180,200L178,200L178,200L176,200L176,200L174,200L174,200L172,200L172,200L170,200L170,200L168,200L168,200L166,200L166,200L164,200L164,200L162,200L162,200L160,200L160,200L158,200L158,194.28571428571428L156,194.28571428571428L156,200L154,200L154,200L152,200L152,197.14285714285714L150,197.14285714285714L150,200L148,200L148,197.14285714285714L146,197.14285714285714L146,200L144,200L144,200L142,200L142,200L140,200L140,200L138,200L138,197.14285714285714L136,197.14285714285714L136,197.14285714285714L134,197.14285714285714L134,200L132,200L132,194.28571428571428L130,194.28571428571428L130,200L128,200L128,197.14285714285714L126,197.14285714285714L126,200L124,200L124,200L122,200L122,194.28571428571428L120,194.28571428571428L120,194.28571428571428L118,194.28571428571428L118,197.14285714285714L115.99999999999999,197.14285714285714L115.99999999999999,200L113.99999999999999,200L113.99999999999999,194.28571428571428L112.00000000000001,194.28571428571428L112.00000000000001,200L110.00000000000001,200L110.00000000000001,200L108,200L108,200L106,200L106,194.28571428571428L104,194.28571428571428L104,200L102,200L102,200L100,200L100,197.14285714285714L98,197.14285714285714L98,197.14285714285714L96,197.14285714285714L96,194.28571428571428L94,194.28571428571428L94,197.14285714285714L92,197.14285714285714L92,197.14285714285714L90,197.14285714285714L90,197.14285714285714L88,197.14285714285714L88,194.28571428571428L86,194.28571428571428L86,197.14285714285714L84,197.14285714285714L84,200L82,200L82,197.14285714285714L80,197.14285714285714L80,197.14285714285714L78,197.14285714285714L78,188.57142857142858L76,188.57142857142858L76,191.42857142857142L74,191.42857142857142L74,191.42857142857142L72,191.42857142857142L72,194.28571428571428L70,194.28571428571428L70,182.85714285714286L68,182.85714285714286L68,182.85714285714286L66,182.85714285714286L66,191.42857142857142L64,191.42857142857142L64,188.57142857142858L62,188.57142857142858L62,177.14285714285714L60,177.14285714285714L60,188.57142857142858L57.99999999999999,188.57142857142858L57.99999999999999,185.71428571428572L56.00000000000001,185.71428571428572L56.00000000000001,188.57142857142858L54,188.57142857142858L54,174.28571428571428L52,174.28571428571428L52,182.85714285714286L50,182.85714285714286L50,180L48,180L48,177.14285714285714L46,177.14285714285714L46,185.71428571428572L44,185.71428571428572L44,165.71428571428572L42,165.71428571428572L42,185.71428571428572L40,185.71428571428572L40,180L38,180L38,177.14285714285714L36,177.14285714285714L36,162.85714285714286L34,162.85714285714286L34,162.85714285714286L32,162.85714285714286L32,191.42857142857142L30,191.42857142857142L30,162.85714285714286L28.000000000000004,162.85714285714286L28.000000000000004,171.42857142857144L26,171.42857142857144L26,162.85714285714286L24,162.85714285714286L24,174.28571428571428L22,174.28571428571428L22,174.28571428571428L20,174.28571428571428L20,182.85714285714286L18,182.85714285714286L18,185.71428571428572L16,185.71428571428572L16,171.42857142857144L14.000000000000002,171.42857142857144L14.000000000000002,182.85714285714286L12,182.85714285714286L12,191.42857142857142L10,191.42857142857142L10,191.42857142857142L8,191.42857142857142L8,200L6,200L6,197.14285714285714L4,197.14285714285714L4,200L2,200L2,200L0,200" style="fill: none; stroke: #4c78a8; stroke-width: 2;"></path></g></g></g><g transform="translate(216,428)"><path class="background" d="M0.5,0.5h200v200h-200Z" style="fill: none; stroke: #ddd;"></path><g><g class="mark-group role-axis"><g transform="translate(0.5,200.5)"><path class="background" d="M0,0h0v0h0Z" style="pointer-events: none; fill: none;"></path><g><g class="mark-rule role-axis-grid" style="pointer-events: none;"><line transform="translate(0,-200)" x2="0" y2="200" style="fill: none; stroke: #ddd; stroke-width: 1; opacity: 1;"></line><line transform="translate(40,-200)" x2="0" y2="200" style="fill: none; stroke: #ddd; stroke-width: 1; opacity: 1;"></line><line transform="translate(80,-200)" x2="0" y2="200" style="fill: none; stroke: #ddd; stroke-width: 1; opacity: 1;"></line><line transform="translate(120,-200)" x2="0" y2="200" style="fill: none; stroke: #ddd; stroke-width: 1; opacity: 1;"></line><line transform="translate(160,-200)" x2="0" y2="200" style="fill: none; stroke: #ddd; stroke-width: 1; opacity: 1;"></line><line transform="translate(200,-200)" x2="0" y2="200" style="fill: none; stroke: #ddd; stroke-width: 1; opacity: 1;"></line></g></g></g></g><g class="mark-group role-axis"><g transform="translate(0.5,0.5)"><path class="background" d="M0,0h0v0h0Z" style="pointer-events: none; fill: none;"></path><g><g class="mark-rule role-axis-grid" style="pointer-events: none;"><line transform="translate(0,200)" x2="200" y2="0" style="fill: none; stroke: #ddd; stroke-width: 1; opacity: 1;"></line><line transform="translate(0,171)" x2="200" y2="0" style="fill: none; stroke: #ddd; stroke-width: 1; opacity: 1;"></line><line transform="translate(0,143)" x2="200" y2="0" style="fill: none; stroke: #ddd; stroke-width: 1; opacity: 1;"></line><line transform="translate(0,114)" x2="200" y2="0" style="fill: none; stroke: #ddd; stroke-width: 1; opacity: 1;"></line><line transform="translate(0,86)" x2="200" y2="0" style="fill: none; stroke: #ddd; stroke-width: 1; opacity: 1;"></line><line transform="translate(0,57)" x2="200" y2="0" style="fill: none; stroke: #ddd; stroke-width: 1; opacity: 1;"></line><line transform="translate(0,29)" x2="200" y2="0" style="fill: none; stroke: #ddd; stroke-width: 1; opacity: 1;"></line><line transform="translate(0,0)" x2="200" y2="0" style="fill: none; stroke: #ddd; stroke-width: 1; opacity: 1;"></line></g></g></g></g><g class="mark-line role-mark child_marks"><path d="M200,197.14285714285714L200,200L198,200L198,200L196,200L196,200L194,200L194,200L192,200L192,200L190,200L190,200L188,200L188,200L186,200L186,200L184,200L184,200L182,200L182,200L180,200L180,200L178,200L178,200L176,200L176,200L174,200L174,200L172,200L172,200L170,200L170,200L168,200L168,200L166,200L166,200L164,200L164,200L162,200L162,200L160,200L160,200L158,200L158,200L156,200L156,200L154,200L154,200L152,200L152,200L150,200L150,200L148,200L148,200L146,200L146,200L144,200L144,200L142,200L142,200L140,200L140,200L138,200L138,200L136,200L136,200L134,200L134,200L132,200L132,200L130,200L130,200L128,200L128,200L126,200L126,200L124,200L124,200L122,200L122,200L120,200L120,200L118,200L118,200L115.99999999999999,200L115.99999999999999,200L113.99999999999999,200L113.99999999999999,200L112.00000000000001,200L112.00000000000001,200L110.00000000000001,200L110.00000000000001,200L108,200L108,200L106,200L106,200L104,200L104,200L102,200L102,200L100,200L100,200L98,200L98,200L96,200L96,200L94,200L94,200L92,200L92,200L90,200L90,200L88,200L88,200L86,200L86,200L84,200L84,200L82,200L82,200L80,200L80,200L78,200L78,197.14285714285714L76,197.14285714285714L76,200L74,200L74,200L72,200L72,200L70,200L70,197.14285714285714L68,197.14285714285714L68,197.14285714285714L66,197.14285714285714L66,197.14285714285714L64,197.14285714285714L64,200L62,200L62,200L60,200L60,200L57.99999999999999,200L57.99999999999999,197.14285714285714L56.00000000000001,197.14285714285714L56.00000000000001,200L54,200L54,197.14285714285714L52,197.14285714285714L52,200L50,200L50,200L48,200L48,197.14285714285714L46,197.14285714285714L46,200L44,200L44,188.57142857142858L42,188.57142857142858L42,197.14285714285714L40,197.14285714285714L40,197.14285714285714L38,197.14285714285714L38,194.28571428571428L36,194.28571428571428L36,197.14285714285714L34,197.14285714285714L34,194.28571428571428L32,194.28571428571428L32,194.28571428571428L30,194.28571428571428L30,200L28.000000000000004,200L28.000000000000004,197.14285714285714L26,197.14285714285714L26,194.28571428571428L24,194.28571428571428L24,191.42857142857142L22,191.42857142857142L22,197.14285714285714L20,197.14285714285714L20,194.28571428571428L18,194.28571428571428L18,197.14285714285714L16,197.14285714285714L16,191.42857142857142L14.000000000000002,191.42857142857142L14.000000000000002,200L12,200L12,197.14285714285714L10,197.14285714285714L10,200L8,200L8,200L6,200L6,197.14285714285714L4,197.14285714285714L4,197.14285714285714L2,197.14285714285714L2,200L0,200" style="fill: none; stroke: #4c78a8; stroke-width: 2;"></path></g></g></g><g transform="translate(432,428)"><path class="background" d="M0.5,0.5h200v200h-200Z" style="fill: none; stroke: #ddd;"></path><g><g class="mark-group role-axis"><g transform="translate(0.5,200.5)"><path class="background" d="M0,0h0v0h0Z" style="pointer-events: none; fill: none;"></path><g><g class="mark-rule role-axis-grid" style="pointer-events: none;"><line transform="translate(0,-200)" x2="0" y2="200" style="fill: none; stroke: #ddd; stroke-width: 1; opacity: 1;"></line><line transform="translate(40,-200)" x2="0" y2="200" style="fill: none; stroke: #ddd; stroke-width: 1; opacity: 1;"></line><line transform="translate(80,-200)" x2="0" y2="200" style="fill: none; stroke: #ddd; stroke-width: 1; opacity: 1;"></line><line transform="translate(120,-200)" x2="0" y2="200" style="fill: none; stroke: #ddd; stroke-width: 1; opacity: 1;"></line><line transform="translate(160,-200)" x2="0" y2="200" style="fill: none; stroke: #ddd; stroke-width: 1; opacity: 1;"></line><line transform="translate(200,-200)" x2="0" y2="200" style="fill: none; stroke: #ddd; stroke-width: 1; opacity: 1;"></line></g></g></g></g><g class="mark-group role-axis"><g transform="translate(0.5,0.5)"><path class="background" d="M0,0h0v0h0Z" style="pointer-events: none; fill: none;"></path><g><g class="mark-rule role-axis-grid" style="pointer-events: none;"><line transform="translate(0,200)" x2="200" y2="0" style="fill: none; stroke: #ddd; stroke-width: 1; opacity: 1;"></line><line transform="translate(0,171)" x2="200" y2="0" style="fill: none; stroke: #ddd; stroke-width: 1; opacity: 1;"></line><line transform="translate(0,143)" x2="200" y2="0" style="fill: none; stroke: #ddd; stroke-width: 1; opacity: 1;"></line><line transform="translate(0,114)" x2="200" y2="0" style="fill: none; stroke: #ddd; stroke-width: 1; opacity: 1;"></line><line transform="translate(0,86)" x2="200" y2="0" style="fill: none; stroke: #ddd; stroke-width: 1; opacity: 1;"></line><line transform="translate(0,57)" x2="200" y2="0" style="fill: none; stroke: #ddd; stroke-width: 1; opacity: 1;"></line><line transform="translate(0,29)" x2="200" y2="0" style="fill: none; stroke: #ddd; stroke-width: 1; opacity: 1;"></line><line transform="translate(0,0)" x2="200" y2="0" style="fill: none; stroke: #ddd; stroke-width: 1; opacity: 1;"></line></g></g></g></g><g class="mark-line role-mark child_marks"><path d="M200,191.42857142857142L200,200L198,200L198,200L196,200L196,200L194,200L194,200L192,200L192,200L190,200L190,200L188,200L188,200L186,200L186,200L184,200L184,200L182,200L182,200L180,200L180,200L178,200L178,200L176,200L176,200L174,200L174,200L172,200L172,200L170,200L170,200L168,200L168,200L166,200L166,200L164,200L164,200L162,200L162,200L160,200L160,200L158,200L158,200L156,200L156,200L154,200L154,200L152,200L152,200L150,200L150,200L148,200L148,200L146,200L146,197.14285714285714L144,197.14285714285714L144,197.14285714285714L142,197.14285714285714L142,200L140,200L140,200L138,200L138,200L136,200L136,200L134,200L134,194.28571428571428L132,194.28571428571428L132,200L130,200L130,200L128,200L128,200L126,200L126,200L124,200L124,197.14285714285714L122,197.14285714285714L122,200L120,200L120,200L118,200L118,200L115.99999999999999,200L115.99999999999999,194.28571428571428L113.99999999999999,194.28571428571428L113.99999999999999,200L112.00000000000001,200L112.00000000000001,200L110.00000000000001,200L110.00000000000001,200L108,200L108,197.14285714285714L106,197.14285714285714L106,200L104,200L104,200L102,200L102,200L100,200L100,200L98,200L98,197.14285714285714L96,197.14285714285714L96,200L94,200L94,200L92,200L92,200L90,200L90,200L88,200L88,200L86,200L86,197.14285714285714L84,197.14285714285714L84,200L82,200L82,200L80,200L80,200L78,200L78,200L76,200L76,200L74,200L74,197.14285714285714L72,197.14285714285714L72,200L70,200L70,200L68,200L68,200L66,200L66,200L64,200L64,197.14285714285714L62,197.14285714285714L62,197.14285714285714L60,197.14285714285714L60,194.28571428571428L57.99999999999999,194.28571428571428L57.99999999999999,200L56.00000000000001,200L56.00000000000001,200L54,200L54,200L52,200L52,197.14285714285714L50,197.14285714285714L50,200L48,200L48,191.42857142857142L46,191.42857142857142L46,200L44,200L44,200L42,200L42,197.14285714285714L40,197.14285714285714L40,197.14285714285714L38,197.14285714285714L38,197.14285714285714L36,197.14285714285714L36,191.42857142857142L34,191.42857142857142L34,200L32,200L32,197.14285714285714L30,197.14285714285714L30,197.14285714285714L28.000000000000004,197.14285714285714L28.000000000000004,200L26,200L26,194.28571428571428L24,194.28571428571428L24,197.14285714285714L22,197.14285714285714L22,200L20,200L20,194.28571428571428L18,194.28571428571428L18,200L16,200L16,200L14.000000000000002,200L14.000000000000002,197.14285714285714L12,197.14285714285714L12,197.14285714285714L10,197.14285714285714L10,191.42857142857142L8,191.42857142857142L8,194.28571428571428L6,194.28571428571428L6,197.14285714285714L4,197.14285714285714L4,197.14285714285714L2,197.14285714285714L2,197.14285714285714L0,197.14285714285714" style="fill: none; stroke: #4c78a8; stroke-width: 2;"></path></g></g></g></g></g></g></g></g></svg>