<?xml version="1.0" encoding="UTF-8" standalone="no"?>
<svg
   xmlns:dc="http://purl.org/dc/elements/1.1/"
   xmlns:cc="http://creativecommons.org/ns#"
   xmlns:rdf="http://www.w3.org/1999/02/22-rdf-syntax-ns#"
   xmlns:svg="http://www.w3.org/2000/svg"
   xmlns="http://www.w3.org/2000/svg"
   xmlns:sodipodi="http://sodipodi.sourceforge.net/DTD/sodipodi-0.dtd"
   xmlns:inkscape="http://www.inkscape.org/namespaces/inkscape"
   class="marks"
   width="259"
   height="738"
   viewBox="0 0 259 738"
   version="1.1"
   id="svg2"
   inkscape:version="0.48.4 r9939"
   sodipodi:docname="pandhist.svg">
  <metadata
     id="metadata160">
    <rdf:RDF>
      <cc:Work
         rdf:about="">
        <dc:format>image/svg+xml</dc:format>
        <dc:type
           rdf:resource="http://purl.org/dc/dcmitype/StillImage" />
      </cc:Work>
    </rdf:RDF>
  </metadata>
  <defs
     id="defs158" />
  <sodipodi:namedview
     pagecolor="#ffffff"
     bordercolor="#666666"
     borderopacity="1"
     objecttolerance="10"
     gridtolerance="10"
     guidetolerance="10"
     inkscape:pageopacity="0"
     inkscape:pageshadow="2"
     inkscape:window-width="954"
     inkscape:window-height="1027"
     id="namedview156"
     showgrid="false"
     inkscape:zoom="0.94023904"
     inkscape:cx="86.957627"
     inkscape:cy="338.21186"
     inkscape:window-x="960"
     inkscape:window-y="0"
     inkscape:window-maximized="0"
     inkscape:current-layer="svg2" />
  <g
     transform="translate(52,18)"
     id="g4">
    <g
       class="mark-group role-frame root"
       id="g6">
      <g
         id="g8">
        <path
           class="background"
           d="m 0.5,0.5 h 200 v 200 H 0.5 z"
           style="fill:none;stroke:#dddddd"
           id="path10"
           inkscape:connector-curvature="0" />
        <g
           id="g12">
          <g
             class="mark-group role-axis"
             id="g14">
            <g
               transform="translate(0.5,200.5)"
               id="g16">
              <path
                 class="background"
                 d="M 0,0 H 0 V 0 H 0 z"
                 style="fill:none"
                 id="path18"
                 inkscape:connector-curvature="0" />
              <g
                 id="g20">
                <g
                   class="mark-rule role-axis-grid"
                   id="g22">
                  <line
                     transform="translate(0,-200)"
                     x2="0"
                     y2="200"
                     style="fill:none;stroke:#dddddd;stroke-width:1"
                     id="line24"
                     x1="0"
                     y1="0" />
                  <line
                     transform="translate(40,-200)"
                     x2="0"
                     y2="200"
                     style="fill:none;stroke:#dddddd;stroke-width:1"
                     id="line26"
                     x1="0"
                     y1="0" />
                  <line
                     transform="translate(80,-200)"
                     x2="0"
                     y2="200"
                     style="fill:none;stroke:#dddddd;stroke-width:1"
                     id="line28"
                     x1="0"
                     y1="0" />
                  <line
                     transform="translate(120,-200)"
                     x2="0"
                     y2="200"
                     style="fill:none;stroke:#dddddd;stroke-width:1"
                     id="line30"
                     x1="0"
                     y1="0" />
                  <line
                     transform="translate(160,-200)"
                     x2="0"
                     y2="200"
                     style="fill:none;stroke:#dddddd;stroke-width:1"
                     id="line32"
                     x1="0"
                     y1="0" />
                  <line
                     transform="translate(200,-200)"
                     x2="0"
                     y2="200"
                     style="fill:none;stroke:#dddddd;stroke-width:1"
                     id="line34"
                     x1="0"
                     y1="0" />
                </g>
              </g>
            </g>
          </g>
          <g
             class="mark-group role-axis"
             id="g36">
            <g
               transform="translate(0.5,0.5)"
               id="g38">
              <path
                 class="background"
                 d="M 0,0 H 0 V 0 H 0 z"
                 style="fill:none"
                 id="path40"
                 inkscape:connector-curvature="0" />
              <g
                 id="g42">
                <g
                   class="mark-rule role-axis-grid"
                   id="g44">
                  <line
                     transform="translate(0,200)"
                     x2="200"
                     y2="0"
                     style="fill:none;stroke:#dddddd;stroke-width:1"
                     id="line46"
                     x1="0"
                     y1="0" />
                  <line
                     transform="translate(0,167)"
                     x2="200"
                     y2="0"
                     style="fill:none;stroke:#dddddd;stroke-width:1"
                     id="line48"
                     x1="0"
                     y1="0" />
                  <line
                     transform="translate(0,133)"
                     x2="200"
                     y2="0"
                     style="fill:none;stroke:#dddddd;stroke-width:1"
                     id="line50"
                     x1="0"
                     y1="0" />
                  <line
                     transform="translate(0,100)"
                     x2="200"
                     y2="0"
                     style="fill:none;stroke:#dddddd;stroke-width:1"
                     id="line52"
                     x1="0"
                     y1="0" />
                  <line
                     transform="translate(0,67)"
                     x2="200"
                     y2="0"
                     style="fill:none;stroke:#dddddd;stroke-width:1"
                     id="line54"
                     x1="0"
                     y1="0" />
                  <line
                     transform="translate(0,33)"
                     x2="200"
                     y2="0"
                     style="fill:none;stroke:#dddddd;stroke-width:1"
                     id="line56"
                     x1="0"
                     y1="0" />
                  <line
                     x2="200"
                     y2="0"
                     style="fill:none;stroke:#dddddd;stroke-width:1"
                     id="line58"
                     x1="0"
                     y1="0" />
                </g>
              </g>
            </g>
          </g>
          <g
             class="mark-line role-mark layer_0_marks"
             id="g60">
            <path
               d="M 200,153.33333 200,200 l -2,0 0,0 -2,0 0,-1.66667 -2,0 0,0 -2,0 0,1.66667 -2,0 0,-3.33333 -2,0 0,3.33333 -2,0 0,0 -2,0 0,-3.33333 -2,0 0,3.33333 -2,0 0,0 -2,0 0,0 -2,0 0,-5 -2,0 0,3.33333 -2,0 0,0 -2,0 0,1.66667 -2,0 0,0 -2,0 0,-1.66667 -2,0 0,0 -2,0 0,1.66667 -2,0 0,-1.66667 -2,0 0,-5 -2,0 0,0 -2,0 0,3.33334 -2,0 0,0 -2,0 0,1.66666 -2,0 0,0 -2,0 0,-5 -2,0 0,3.33334 -2,0 0,1.66666 -2,0 0,1.66667 -2,0 0,-6.66667 -2,0 0,5 -2,0 0,-8.33333 -2,0 0,-1.66667 -2,0 0,6.66667 -2,0 0,-6.66667 -2,0 0,8.33334 -2,0 0,-3.33334 -2,0 0,3.33334 -2,0 0,-5 -2,0 0,1.66666 -2,0 0,-8.33333 -2,0 0,5 -2,0 0,8.33333 -2,0 0,-6.66666 -2,0 0,-5 -2,0 0,3.33333 -2,0 0,-3.33333 -2,0 0,-6.66667 -2,0 0,13.33333 -2,0 L 98,180 l -2,0 0,0 -2,0 0,5 -2,0 0,-11.66667 -2,0 0,10 -2,0 0,-15 -2,0 0,20 -2,0 L 84,170 l -2,0 0,5 -2,0 0,-1.66667 -2,0 0,-11.66666 -2,0 0,5 -2,0 0,-6.66667 -2,0 0,16.66667 -2,0 0,-33.33334 -2,0 0,8.33334 -2,0 0,3.33333 -2,0 0,3.33333 -2,0 0,-8.33333 -2,0 0,0 -2,0 0,-20 -2,0 0,18.33333 -2,0 0,-11.66666 -2,0 0,15 -2,0 0,-28.33334 -2,0 0,-59.999997 -2,0 0,44.999997 -2,0 0,-21.666663 -2,0 L 42,80 l -2,0 0,10 -2,0 0,-25 -2,0 0,-35 -2,0 0,6.666667 -2,0 0,-8.333334 -2,0 L 30,40 l -2,0 0,-3.333333 -2,0 L 26,15 l -2,0 0,0 -2,0 0,-5 -2,0 0,16.666667 -2,0 0,-8.333334 -2,0 0,-14.9999997 -2,0 L 14,65 l -2,0 0,23.333333 -2,0 0,24.999997 -2,0 0,-10 -2,0 0,45 -2,0 0,15 -2,0 0,20 -2,0"
               style="fill:none;stroke:#4c78a8;stroke-width:2"
               id="path62"
               inkscape:connector-curvature="0" />
          </g>
          <g
             class="mark-group role-axis"
             id="g64">
            <g
               transform="translate(0.5,200.5)"
               id="g66">
              <path
                 class="background"
                 d="M 0,0 H 0 V 0 H 0 z"
                 style="fill:none"
                 id="path68"
                 inkscape:connector-curvature="0" />
              <g
                 id="g70">
                <g
                   class="mark-rule role-axis-tick"
                   id="g72">
                  <line
                     x2="0"
                     y2="5"
                     style="fill:none;stroke:#888888;stroke-width:1"
                     id="line74"
                     x1="0"
                     y1="0" />
                  <line
                     transform="translate(40,0)"
                     x2="0"
                     y2="5"
                     style="fill:none;stroke:#888888;stroke-width:1"
                     id="line76"
                     x1="0"
                     y1="0" />
                  <line
                     transform="translate(80,0)"
                     x2="0"
                     y2="5"
                     style="fill:none;stroke:#888888;stroke-width:1"
                     id="line78"
                     x1="0"
                     y1="0" />
                  <line
                     transform="translate(120,0)"
                     x2="0"
                     y2="5"
                     style="fill:none;stroke:#888888;stroke-width:1"
                     id="line80"
                     x1="0"
                     y1="0" />
                  <line
                     transform="translate(160,0)"
                     x2="0"
                     y2="5"
                     style="fill:none;stroke:#888888;stroke-width:1"
                     id="line82"
                     x1="0"
                     y1="0" />
                  <line
                     transform="translate(200,0)"
                     x2="0"
                     y2="5"
                     style="fill:none;stroke:#888888;stroke-width:1"
                     id="line84"
                     x1="0"
                     y1="0" />
                </g>
                <g
                   class="mark-text role-axis-label"
                   id="g86">
                  <text
                     transform="translate(0,15)"
                     style="text-anchor:start;fill:#000000"
                     id="text88">0</text>
                  <text
                     transform="translate(40,15)"
                     style="text-anchor:middle;fill:#000000"
                     id="text90">100</text>
                  <text
                     transform="translate(80,15)"
                     style="text-anchor:middle;fill:#000000"
                     id="text92">200</text>
                  <text
                     transform="translate(120,15)"
                     style="text-anchor:middle;fill:#000000"
                     id="text94">300</text>
                  <text
                     transform="translate(160,15)"
                     style="text-anchor:middle;fill:#000000"
                     id="text96">400</text>
                  <text
                     transform="translate(200,15)"
                     style="text-anchor:end;fill:#000000"
                     id="text98">500</text>
                </g>
                <g
                   class="mark-rule role-axis-domain"
                   id="g100">
                  <line
                     x2="200"
                     y2="0"
                     style="fill:none;stroke:#888888;stroke-width:1"
                     id="line102"
                     x1="0"
                     y1="0" />
                </g>
                <g
                   class="mark-text role-axis-title"
                   id="g104">
                  <text
                     transform="translate(100,31)"
                     style="text-anchor:middle;fill:#000000"
                     id="text106">mass</text>
                </g>
              </g>
            </g>
          </g>
          <g
             class="mark-group role-axis"
             id="g108">
            <g
               transform="translate(0.5,0.5)"
               id="g110">
              <path
                 class="background"
                 d="M 0,0 H 0 V 0 H 0 z"
                 style="fill:none"
                 id="path112"
                 inkscape:connector-curvature="0" />
              <g
                 id="g114">
                <g
                   class="mark-rule role-axis-tick"
                   id="g116">
                  <line
                     transform="translate(0,200)"
                     x2="-5"
                     y2="0"
                     style="fill:none;stroke:#888888;stroke-width:1"
                     id="line118"
                     x1="0"
                     y1="0" />
                  <line
                     transform="translate(0,167)"
                     x2="-5"
                     y2="0"
                     style="fill:none;stroke:#888888;stroke-width:1"
                     id="line120"
                     x1="0"
                     y1="0" />
                  <line
                     transform="translate(0,133)"
                     x2="-5"
                     y2="0"
                     style="fill:none;stroke:#888888;stroke-width:1"
                     id="line122"
                     x1="0"
                     y1="0" />
                  <line
                     transform="translate(0,100)"
                     x2="-5"
                     y2="0"
                     style="fill:none;stroke:#888888;stroke-width:1"
                     id="line124"
                     x1="0"
                     y1="0" />
                  <line
                     transform="translate(0,67)"
                     x2="-5"
                     y2="0"
                     style="fill:none;stroke:#888888;stroke-width:1"
                     id="line126"
                     x1="0"
                     y1="0" />
                  <line
                     transform="translate(0,33)"
                     x2="-5"
                     y2="0"
                     style="fill:none;stroke:#888888;stroke-width:1"
                     id="line128"
                     x1="0"
                     y1="0" />
                  <line
                     x2="-5"
                     y2="0"
                     style="fill:none;stroke:#888888;stroke-width:1"
                     id="line130"
                     x1="0"
                     y1="0" />
                </g>
                <g
                   class="mark-text role-axis-label"
                   id="g132">
                  <text
                     transform="translate(-7,203)"
                     style="text-anchor:end;fill:#000000"
                     id="text134">0</text>
                  <text
                     transform="translate(-7,169.66667)"
                     style="text-anchor:end;fill:#000000"
                     id="text136">20</text>
                  <text
                     transform="translate(-7,136.33333)"
                     style="text-anchor:end;fill:#000000"
                     id="text138">40</text>
                  <text
                     transform="translate(-7,103)"
                     style="text-anchor:end;fill:#000000"
                     id="text140">60</text>
                  <text
                     transform="translate(-7,69.666667)"
                     style="text-anchor:end;fill:#000000"
                     id="text142">80</text>
                  <text
                     transform="translate(-7,36.333333)"
                     style="text-anchor:end;fill:#000000"
                     id="text144">100</text>
                  <text
                     transform="translate(-7,3)"
                     style="text-anchor:end;fill:#000000"
                     id="text146">120</text>
                </g>
                <g
                   class="mark-rule role-axis-domain"
                   id="g148">
                  <line
                     transform="translate(0,200)"
                     x2="0"
                     y2="-200"
                     style="fill:none;stroke:#888888;stroke-width:1"
                     id="line150"
                     x1="0"
                     y1="0" />
                </g>
                <g
                   class="mark-text role-axis-title"
                   id="g152">
                  <text
                     transform="matrix(0,-1,1,0,-36,100)"
                     style="text-anchor:middle;fill:#000000"
                     id="text154">count</text>
                </g>
              </g>
            </g>
          </g>
        </g>
      </g>
    </g>
  </g>
</svg>
