<?xml version="1.0" encoding="UTF-8" standalone="no"?>
<svg
   xmlns:dc="http://purl.org/dc/elements/1.1/"
   xmlns:cc="http://creativecommons.org/ns#"
   xmlns:rdf="http://www.w3.org/1999/02/22-rdf-syntax-ns#"
   xmlns:svg="http://www.w3.org/2000/svg"
   xmlns="http://www.w3.org/2000/svg"
   xmlns:sodipodi="http://sodipodi.sourceforge.net/DTD/sodipodi-0.dtd"
   xmlns:inkscape="http://www.inkscape.org/namespaces/inkscape"
   class="marks"
   width="489"
   height="738"
   viewBox="0 0 489 738"
   version="1.1"
   id="svg5191"
   inkscape:version="0.48.4 r9939"
   sodipodi:docname="pandhist_trellis.svg">
  <metadata
     id="metadata5497">
    <rdf:RDF>
      <cc:Work
         rdf:about="">
        <dc:format>image/svg+xml</dc:format>
        <dc:type
           rdf:resource="http://purl.org/dc/dcmitype/StillImage" />
      </cc:Work>
    </rdf:RDF>
  </metadata>
  <defs
     id="defs5495" />
  <sodipodi:namedview
     pagecolor="#ffffff"
     bordercolor="#666666"
     borderopacity="1"
     objecttolerance="10"
     gridtolerance="10"
     guidetolerance="10"
     inkscape:pageopacity="0"
     inkscape:pageshadow="2"
     inkscape:window-width="954"
     inkscape:window-height="1027"
     id="namedview5493"
     showgrid="false"
     inkscape:zoom="0.68711656"
     inkscape:cx="186.28571"
     inkscape:cy="271.42857"
     inkscape:window-x="960"
     inkscape:window-y="0"
     inkscape:window-maximized="0"
     inkscape:current-layer="svg5191" />
  <g
     transform="translate(65,65)"
     id="g5193">
    <g
       class="mark-group role-frame root"
       id="g5195">
      <g
         id="g5197">
        <path
           class="background"
           d="M 0,0 H 0 V 0 H 0 z"
           style="fill:none"
           id="path5199"
           inkscape:connector-curvature="0" />
        <g
           id="g5201">
          <g
             class="mark-group role-column-title column_title"
             id="g5203">
            <g
               transform="translate(208,-42)"
               id="g5205">
              <path
                 class="background"
                 d="M 0,0 H 0 V 0 H 0 z"
                 style="fill:none"
                 id="path5207"
                 inkscape:connector-curvature="0" />
              <g
                 id="g5209">
                <g
                   class="mark-text role-column-title-text"
                   id="g5211">
                  <text
                     style="text-anchor:middle;fill:#000000"
                     id="text5213">q1*q2 &lt; 0</text>
                </g>
              </g>
            </g>
          </g>
          <g
             class="mark-group role-row-header row_header"
             id="g5215">
            <g
               transform="translate(-13,0)"
               id="g5217">
              <path
                 class="background"
                 d="M 0,0 H 0 V 200 H 0 z"
                 style="fill:none"
                 id="path5219"
                 inkscape:connector-curvature="0" />
              <g
                 id="g5221">
                <g
                   class="mark-group role-axis"
                   id="g5223">
                  <g
                     transform="translate(0.5,0.5)"
                     id="g5225">
                    <path
                       class="background"
                       d="M 0,0 H 0 V 0 H 0 z"
                       style="fill:none"
                       id="path5227"
                       inkscape:connector-curvature="0" />
                    <g
                       id="g5229">
                      <g
                         class="mark-rule role-axis-tick"
                         id="g5231">
                        <line
                           transform="translate(0,200)"
                           x2="-5"
                           y2="0"
                           style="fill:none;stroke:#888888;stroke-width:1"
                           id="line5233"
                           x1="0"
                           y1="0" />
                        <line
                           transform="translate(0,156)"
                           x2="-5"
                           y2="0"
                           style="fill:none;stroke:#888888;stroke-width:1"
                           id="line5235"
                           x1="0"
                           y1="0" />
                        <line
                           transform="translate(0,111)"
                           x2="-5"
                           y2="0"
                           style="fill:none;stroke:#888888;stroke-width:1"
                           id="line5237"
                           x1="0"
                           y1="0" />
                        <line
                           transform="translate(0,67)"
                           x2="-5"
                           y2="0"
                           style="fill:none;stroke:#888888;stroke-width:1"
                           id="line5239"
                           x1="0"
                           y1="0" />
                        <line
                           transform="translate(0,22)"
                           x2="-5"
                           y2="0"
                           style="fill:none;stroke:#888888;stroke-width:1"
                           id="line5241"
                           x1="0"
                           y1="0" />
                      </g>
                      <g
                         class="mark-text role-axis-label"
                         id="g5243">
                        <text
                           transform="translate(-7,203)"
                           style="text-anchor:end;fill:#000000"
                           id="text5245">0</text>
                        <text
                           transform="translate(-7,158.55556)"
                           style="text-anchor:end;fill:#000000"
                           id="text5247">20</text>
                        <text
                           transform="translate(-7,114.11111)"
                           style="text-anchor:end;fill:#000000"
                           id="text5249">40</text>
                        <text
                           transform="translate(-7,69.666667)"
                           style="text-anchor:end;fill:#000000"
                           id="text5251">60</text>
                        <text
                           transform="translate(-7,25.222222)"
                           style="text-anchor:end;fill:#000000"
                           id="text5253">80</text>
                      </g>
                      <g
                         class="mark-rule role-axis-domain"
                         id="g5255">
                        <line
                           transform="translate(0,200)"
                           x2="0"
                           y2="-200"
                           style="fill:none;stroke:#888888;stroke-width:1"
                           id="line5257"
                           x1="0"
                           y1="0" />
                      </g>
                      <g
                         class="mark-text role-axis-title"
                         id="g5259">
                        <text
                           transform="matrix(0,-1,1,0,-36,100)"
                           style="text-anchor:middle;fill:#000000"
                           id="text5261">count</text>
                      </g>
                    </g>
                  </g>
                </g>
              </g>
            </g>
          </g>
          <g
             class="mark-group role-column-header column_header"
             id="g5263">
            <g
               transform="translate(0,-11)"
               id="g5265">
              <path
                 class="background"
                 d="M 0,0 H 200 V 0 H 0 z"
                 style="fill:none"
                 id="path5267"
                 inkscape:connector-curvature="0" />
              <g
                 id="g5269">
                <g
                   class="mark-text role-title"
                   id="g5271">
                  <text
                     transform="translate(100,-12)"
                     style="text-anchor:middle;fill:#000000"
                     id="text5273">fail</text>
                </g>
              </g>
            </g>
            <g
               transform="translate(216,-11)"
               id="g5275">
              <path
                 class="background"
                 d="M 0,0 H 200 V 0 H 0 z"
                 style="fill:none"
                 id="path5277"
                 inkscape:connector-curvature="0" />
              <g
                 id="g5279">
                <g
                   class="mark-text role-title"
                   id="g5281">
                  <text
                     transform="translate(100,-12)"
                     style="text-anchor:middle;fill:#000000"
                     id="text5283">pass</text>
                </g>
              </g>
            </g>
          </g>
          <g
             class="mark-group role-column-footer column_footer"
             id="g5285">
            <g
               transform="translate(0,213)"
               id="g5287">
              <path
                 class="background"
                 d="M 0,0 H 200 V 0 H 0 z"
                 style="fill:none"
                 id="path5289"
                 inkscape:connector-curvature="0" />
              <g
                 id="g5291">
                <g
                   class="mark-group role-axis"
                   id="g5293">
                  <g
                     transform="translate(0.5,0.5)"
                     id="g5295">
                    <path
                       class="background"
                       d="M 0,0 H 0 V 0 H 0 z"
                       style="fill:none"
                       id="path5297"
                       inkscape:connector-curvature="0" />
                    <g
                       id="g5299">
                      <g
                         class="mark-rule role-axis-tick"
                         id="g5301">
                        <line
                           x2="0"
                           y2="5"
                           style="fill:none;stroke:#888888;stroke-width:1"
                           id="line5303"
                           x1="0"
                           y1="0" />
                        <line
                           transform="translate(40,0)"
                           x2="0"
                           y2="5"
                           style="fill:none;stroke:#888888;stroke-width:1"
                           id="line5305"
                           x1="0"
                           y1="0" />
                        <line
                           transform="translate(80,0)"
                           x2="0"
                           y2="5"
                           style="fill:none;stroke:#888888;stroke-width:1"
                           id="line5307"
                           x1="0"
                           y1="0" />
                        <line
                           transform="translate(120,0)"
                           x2="0"
                           y2="5"
                           style="fill:none;stroke:#888888;stroke-width:1"
                           id="line5309"
                           x1="0"
                           y1="0" />
                        <line
                           transform="translate(160,0)"
                           x2="0"
                           y2="5"
                           style="fill:none;stroke:#888888;stroke-width:1"
                           id="line5311"
                           x1="0"
                           y1="0" />
                        <line
                           transform="translate(200,0)"
                           x2="0"
                           y2="5"
                           style="fill:none;stroke:#888888;stroke-width:1"
                           id="line5313"
                           x1="0"
                           y1="0" />
                      </g>
                      <g
                         class="mark-text role-axis-label"
                         id="g5315">
                        <text
                           transform="translate(0,15)"
                           style="text-anchor:start;fill:#000000"
                           id="text5317">0</text>
                        <text
                           transform="translate(40,15)"
                           style="text-anchor:middle;fill:#000000"
                           id="text5319">100</text>
                        <text
                           transform="translate(80,15)"
                           style="text-anchor:middle;fill:#000000"
                           id="text5321">200</text>
                        <text
                           transform="translate(120,15)"
                           style="text-anchor:middle;fill:#000000"
                           id="text5323">300</text>
                        <text
                           transform="translate(160,15)"
                           style="text-anchor:middle;fill:#000000"
                           id="text5325">400</text>
                        <text
                           transform="translate(200,15)"
                           style="text-anchor:end;fill:#000000"
                           id="text5327">500</text>
                      </g>
                      <g
                         class="mark-rule role-axis-domain"
                         id="g5329">
                        <line
                           x2="200"
                           y2="0"
                           style="fill:none;stroke:#888888;stroke-width:1"
                           id="line5331"
                           x1="0"
                           y1="0" />
                      </g>
                      <g
                         class="mark-text role-axis-title"
                         id="g5333">
                        <text
                           transform="translate(100,31)"
                           style="text-anchor:middle;fill:#000000"
                           id="text5335">mass</text>
                      </g>
                    </g>
                  </g>
                </g>
              </g>
            </g>
            <g
               transform="translate(216,213)"
               id="g5337">
              <path
                 class="background"
                 d="M 0,0 H 200 V 0 H 0 z"
                 style="fill:none"
                 id="path5339"
                 inkscape:connector-curvature="0" />
              <g
                 id="g5341">
                <g
                   class="mark-group role-axis"
                   id="g5343">
                  <g
                     transform="translate(0.5,0.5)"
                     id="g5345">
                    <path
                       class="background"
                       d="M 0,0 H 0 V 0 H 0 z"
                       style="fill:none"
                       id="path5347"
                       inkscape:connector-curvature="0" />
                    <g
                       id="g5349">
                      <g
                         class="mark-rule role-axis-tick"
                         id="g5351">
                        <line
                           x2="0"
                           y2="5"
                           style="fill:none;stroke:#888888;stroke-width:1"
                           id="line5353"
                           x1="0"
                           y1="0" />
                        <line
                           transform="translate(40,0)"
                           x2="0"
                           y2="5"
                           style="fill:none;stroke:#888888;stroke-width:1"
                           id="line5355"
                           x1="0"
                           y1="0" />
                        <line
                           transform="translate(80,0)"
                           x2="0"
                           y2="5"
                           style="fill:none;stroke:#888888;stroke-width:1"
                           id="line5357"
                           x1="0"
                           y1="0" />
                        <line
                           transform="translate(120,0)"
                           x2="0"
                           y2="5"
                           style="fill:none;stroke:#888888;stroke-width:1"
                           id="line5359"
                           x1="0"
                           y1="0" />
                        <line
                           transform="translate(160,0)"
                           x2="0"
                           y2="5"
                           style="fill:none;stroke:#888888;stroke-width:1"
                           id="line5361"
                           x1="0"
                           y1="0" />
                        <line
                           transform="translate(200,0)"
                           x2="0"
                           y2="5"
                           style="fill:none;stroke:#888888;stroke-width:1"
                           id="line5363"
                           x1="0"
                           y1="0" />
                      </g>
                      <g
                         class="mark-text role-axis-label"
                         id="g5365">
                        <text
                           transform="translate(0,15)"
                           style="text-anchor:start;fill:#000000"
                           id="text5367">0</text>
                        <text
                           transform="translate(40,15)"
                           style="text-anchor:middle;fill:#000000"
                           id="text5369">100</text>
                        <text
                           transform="translate(80,15)"
                           style="text-anchor:middle;fill:#000000"
                           id="text5371">200</text>
                        <text
                           transform="translate(120,15)"
                           style="text-anchor:middle;fill:#000000"
                           id="text5373">300</text>
                        <text
                           transform="translate(160,15)"
                           style="text-anchor:middle;fill:#000000"
                           id="text5375">400</text>
                        <text
                           transform="translate(200,15)"
                           style="text-anchor:end;fill:#000000"
                           id="text5377">500</text>
                      </g>
                      <g
                         class="mark-rule role-axis-domain"
                         id="g5379">
                        <line
                           x2="200"
                           y2="0"
                           style="fill:none;stroke:#888888;stroke-width:1"
                           id="line5381"
                           x1="0"
                           y1="0" />
                      </g>
                      <g
                         class="mark-text role-axis-title"
                         id="g5383">
                        <text
                           transform="translate(100,31)"
                           style="text-anchor:middle;fill:#000000"
                           id="text5385">mass</text>
                      </g>
                    </g>
                  </g>
                </g>
              </g>
            </g>
          </g>
          <g
             class="mark-group role-scope cell"
             id="g5387">
            <g
               id="g5389">
              <path
                 class="background"
                 d="m 0.5,0.5 h 200 v 200 H 0.5 z"
                 style="fill:none;stroke:#dddddd"
                 id="path5391"
                 inkscape:connector-curvature="0" />
              <g
                 id="g5393">
                <g
                   class="mark-group role-axis"
                   id="g5395">
                  <g
                     transform="translate(0.5,200.5)"
                     id="g5397">
                    <path
                       class="background"
                       d="M 0,0 H 0 V 0 H 0 z"
                       style="fill:none"
                       id="path5399"
                       inkscape:connector-curvature="0" />
                    <g
                       id="g5401">
                      <g
                         class="mark-rule role-axis-grid"
                         id="g5403">
                        <line
                           transform="translate(0,-200)"
                           x2="0"
                           y2="200"
                           style="fill:none;stroke:#dddddd;stroke-width:1"
                           id="line5405"
                           x1="0"
                           y1="0" />
                        <line
                           transform="translate(40,-200)"
                           x2="0"
                           y2="200"
                           style="fill:none;stroke:#dddddd;stroke-width:1"
                           id="line5407"
                           x1="0"
                           y1="0" />
                        <line
                           transform="translate(80,-200)"
                           x2="0"
                           y2="200"
                           style="fill:none;stroke:#dddddd;stroke-width:1"
                           id="line5409"
                           x1="0"
                           y1="0" />
                        <line
                           transform="translate(120,-200)"
                           x2="0"
                           y2="200"
                           style="fill:none;stroke:#dddddd;stroke-width:1"
                           id="line5411"
                           x1="0"
                           y1="0" />
                        <line
                           transform="translate(160,-200)"
                           x2="0"
                           y2="200"
                           style="fill:none;stroke:#dddddd;stroke-width:1"
                           id="line5413"
                           x1="0"
                           y1="0" />
                        <line
                           transform="translate(200,-200)"
                           x2="0"
                           y2="200"
                           style="fill:none;stroke:#dddddd;stroke-width:1"
                           id="line5415"
                           x1="0"
                           y1="0" />
                      </g>
                    </g>
                  </g>
                </g>
                <g
                   class="mark-group role-axis"
                   id="g5417">
                  <g
                     transform="translate(0.5,0.5)"
                     id="g5419">
                    <path
                       class="background"
                       d="M 0,0 H 0 V 0 H 0 z"
                       style="fill:none"
                       id="path5421"
                       inkscape:connector-curvature="0" />
                    <g
                       id="g5423">
                      <g
                         class="mark-rule role-axis-grid"
                         id="g5425">
                        <line
                           transform="translate(0,200)"
                           x2="200"
                           y2="0"
                           style="fill:none;stroke:#dddddd;stroke-width:1"
                           id="line5427"
                           x1="0"
                           y1="0" />
                        <line
                           transform="translate(0,156)"
                           x2="200"
                           y2="0"
                           style="fill:none;stroke:#dddddd;stroke-width:1"
                           id="line5429"
                           x1="0"
                           y1="0" />
                        <line
                           transform="translate(0,111)"
                           x2="200"
                           y2="0"
                           style="fill:none;stroke:#dddddd;stroke-width:1"
                           id="line5431"
                           x1="0"
                           y1="0" />
                        <line
                           transform="translate(0,67)"
                           x2="200"
                           y2="0"
                           style="fill:none;stroke:#dddddd;stroke-width:1"
                           id="line5433"
                           x1="0"
                           y1="0" />
                        <line
                           transform="translate(0,22)"
                           x2="200"
                           y2="0"
                           style="fill:none;stroke:#dddddd;stroke-width:1"
                           id="line5435"
                           x1="0"
                           y1="0" />
                      </g>
                    </g>
                  </g>
                </g>
                <g
                   class="mark-line role-mark child_marks"
                   id="g5437">
                  <path
                     d="M 200,175.55556 200,200 l -2,0 0,0 -2,0 0,-2.22222 -2,0 0,0 -2,0 0,2.22222 -2,0 0,0 -2,0 0,0 -2,0 0,0 -2,0 0,0 -2,0 0,0 -2,0 0,0 -2,0 0,0 -2,0 0,-6.66667 -2,0 0,6.66667 -2,0 0,0 -2,0 0,0 -2,0 0,0 -2,0 0,0 -2,0 0,0 -2,0 0,0 -2,0 0,0 -2,0 0,0 -2,0 0,-4.44444 -2,0 0,2.22222 -2,0 0,2.22222 -2,0 0,-2.22222 -2,0 0,0 -2,0 0,-2.22222 -2,0 0,2.22222 -2,0 0,2.22222 -2,0 0,0 -2,0 0,-4.44444 -2,0 0,4.44444 -2,0 0,-6.66667 -2,0 0,-2.22222 -2,0 0,8.88889 -2,0 0,-6.66667 -2,0 0,2.22223 -2,0 0,0 -2,0 0,2.22222 -2,0 0,0 -2,0 0,0 -2,0 0,-4.44445 -2,0 0,2.22223 -2,0 0,2.22222 -2,0 0,-4.44445 -2,0 0,-2.22222 -2,0 0,6.66667 -2,0 0,-4.44445 -2,0 0,-2.22222 -2,0 0,8.88889 -2,0 0,-15.55556 -2,0 0,2.22223 -2,0 0,0 -2,0 0,-6.66667 -2,0 0,4.44444 -2,0 0,6.66667 -2,0 0,-2.22222 -2,0 0,-6.66667 -2,0 0,4.44445 -2,0 0,0 -2,0 0,-6.66667 -2,0 0,2.22222 -2,0 0,-6.66666 -2,0 0,13.33333 -2,0 0,-11.11111 -2,0 0,-4.44445 -2,0 0,8.88889 -2,0 0,2.22222 -2,0 0,-20 -2,0 0,13.33334 -2,0 0,-6.66667 -2,0 0,0 -2,0 0,0 -2,0 0,8.88889 -2,0 0,-13.33333 -2,0 0,-15.55556 -2,0 0,-8.88889 -2,0 0,2.22222 -2,0 0,-11.11111 -2,0 0,13.33334 -2,0 0,-4.44445 -2,0 0,-8.88889 -2,0 0,2.22223 -2,0 0,-26.66667 -2,0 0,8.88889 -2,0 0,4.44444 -2,0 0,6.66667 -2,0 0,-11.11111 -2,0 0,11.11111 -2,0 0,2.22222 -2,0 0,0 -2,0 0,-35.555554 -2,0 0,26.666664 -2,0 0,33.33334 -2,0 0,6.66666 -2,0 0,2.22222 -2,0 0,8.88889 -2,0 0,15.55556 -2,0 0,4.44444 -2,0"
                     style="fill:none;stroke:#4c78a8;stroke-width:2"
                     id="path5439"
                     inkscape:connector-curvature="0" />
                </g>
              </g>
            </g>
            <g
               transform="translate(216,0)"
               id="g5441">
              <path
                 class="background"
                 d="m 0.5,0.5 h 200 v 200 H 0.5 z"
                 style="fill:none;stroke:#dddddd"
                 id="path5443"
                 inkscape:connector-curvature="0" />
              <g
                 id="g5445">
                <g
                   class="mark-group role-axis"
                   id="g5447">
                  <g
                     transform="translate(0.5,200.5)"
                     id="g5449">
                    <path
                       class="background"
                       d="M 0,0 H 0 V 0 H 0 z"
                       style="fill:none"
                       id="path5451"
                       inkscape:connector-curvature="0" />
                    <g
                       id="g5453">
                      <g
                         class="mark-rule role-axis-grid"
                         id="g5455">
                        <line
                           transform="translate(0,-200)"
                           x2="0"
                           y2="200"
                           style="fill:none;stroke:#dddddd;stroke-width:1"
                           id="line5457"
                           x1="0"
                           y1="0" />
                        <line
                           transform="translate(40,-200)"
                           x2="0"
                           y2="200"
                           style="fill:none;stroke:#dddddd;stroke-width:1"
                           id="line5459"
                           x1="0"
                           y1="0" />
                        <line
                           transform="translate(80,-200)"
                           x2="0"
                           y2="200"
                           style="fill:none;stroke:#dddddd;stroke-width:1"
                           id="line5461"
                           x1="0"
                           y1="0" />
                        <line
                           transform="translate(120,-200)"
                           x2="0"
                           y2="200"
                           style="fill:none;stroke:#dddddd;stroke-width:1"
                           id="line5463"
                           x1="0"
                           y1="0" />
                        <line
                           transform="translate(160,-200)"
                           x2="0"
                           y2="200"
                           style="fill:none;stroke:#dddddd;stroke-width:1"
                           id="line5465"
                           x1="0"
                           y1="0" />
                        <line
                           transform="translate(200,-200)"
                           x2="0"
                           y2="200"
                           style="fill:none;stroke:#dddddd;stroke-width:1"
                           id="line5467"
                           x1="0"
                           y1="0" />
                      </g>
                    </g>
                  </g>
                </g>
                <g
                   class="mark-group role-axis"
                   id="g5469">
                  <g
                     transform="translate(0.5,0.5)"
                     id="g5471">
                    <path
                       class="background"
                       d="M 0,0 H 0 V 0 H 0 z"
                       style="fill:none"
                       id="path5473"
                       inkscape:connector-curvature="0" />
                    <g
                       id="g5475">
                      <g
                         class="mark-rule role-axis-grid"
                         id="g5477">
                        <line
                           transform="translate(0,200)"
                           x2="200"
                           y2="0"
                           style="fill:none;stroke:#dddddd;stroke-width:1"
                           id="line5479"
                           x1="0"
                           y1="0" />
                        <line
                           transform="translate(0,156)"
                           x2="200"
                           y2="0"
                           style="fill:none;stroke:#dddddd;stroke-width:1"
                           id="line5481"
                           x1="0"
                           y1="0" />
                        <line
                           transform="translate(0,111)"
                           x2="200"
                           y2="0"
                           style="fill:none;stroke:#dddddd;stroke-width:1"
                           id="line5483"
                           x1="0"
                           y1="0" />
                        <line
                           transform="translate(0,67)"
                           x2="200"
                           y2="0"
                           style="fill:none;stroke:#dddddd;stroke-width:1"
                           id="line5485"
                           x1="0"
                           y1="0" />
                        <line
                           transform="translate(0,22)"
                           x2="200"
                           y2="0"
                           style="fill:none;stroke:#dddddd;stroke-width:1"
                           id="line5487"
                           x1="0"
                           y1="0" />
                      </g>
                    </g>
                  </g>
                </g>
                <g
                   class="mark-line role-mark child_marks"
                   id="g5489">
                  <path
                     d="M 200,162.22222 200,200 l -2,0 0,0 -2,0 0,0 -2,0 0,0 -2,0 0,0 -2,0 0,-4.44444 -2,0 0,4.44444 -2,0 0,0 -2,0 0,-4.44444 -2,0 0,4.44444 -2,0 0,0 -2,0 0,0 -2,0 0,0 -2,0 0,-2.22222 -2,0 0,0 -2,0 0,2.22222 -2,0 0,0 -2,0 0,-2.22222 -2,0 0,0 -2,0 0,2.22222 -2,0 0,-2.22222 -2,0 0,-6.66667 -2,0 0,4.44445 -2,0 0,2.22222 -2,0 0,-2.22222 -2,0 0,4.44444 -2,0 0,0 -2,0 0,-4.44444 -2,0 0,2.22222 -2,0 0,0 -2,0 0,2.22222 -2,0 0,-4.44444 -2,0 0,2.22222 -2,0 0,-4.44445 -2,0 0,0 -2,0 0,0 -2,0 0,-2.22222 -2,0 0,8.88889 -2,0 0,-4.44444 -2,0 0,2.22222 -2,0 0,-6.66667 -2,0 0,2.22222 -2,0 0,-6.66666 -2,0 0,4.44444 -2,0 0,8.88889 -2,0 0,-4.44444 -2,0 0,-4.44445 -2,0 0,-2.22222 -2,0 0,0 -2,0 0,-6.66667 -2,0 0,8.88889 -2,0 0,-2.22222 -2,0 0,-2.22222 -2,0 0,6.66666 -2,0 0,-8.88889 -2,0 0,8.88889 -2,0 0,-26.66666 -2,0 0,28.88889 -2,0 0,-17.77778 -2,0 0,2.22222 -2,0 0,-2.22222 -2,0 0,-8.88889 -2,0 0,4.44444 -2,0 0,-2.22222 -2,0 0,8.88889 -2,0 0,-33.33333 -2,0 0,15.55555 -2,0 0,-4.44444 -2,0 0,2.22222 -2,0 0,8.88889 -2,0 0,-13.33333 -2,0 0,-20 -2,0 0,24.44444 -2,0 0,-15.55556 -2,0 0,11.11112 -2,0 0,-24.44445 -2,0 0,-64.444443 -2,0 0,68.888893 -2,0 0,-31.11112 -2,0 0,2.22223 -2,0 0,0 -2,0 0,-28.888892 -2,0 L 36,40 l -2,0 0,6.666667 -2,0 0,15.555555 -2,0 0,6.666667 -2,0 L 28,60 l -2,0 0,-35.555556 -2,0 0,11.111112 -2,0 0,-17.777778 -2,0 0,20 -2,0 0,-11.111111 -2,0 0,15.555555 -2,0 0,55.555556 -2,0 0,-2.222222 -2,0 0,26.666664 -2,0 0,-15.55555 -2,0 0,51.11111 -2,0 0,4.44444 -2,0 0,22.22222 -2,0"
                     style="fill:none;stroke:#4c78a8;stroke-width:2"
                     id="path5491"
                     inkscape:connector-curvature="0" />
                </g>
              </g>
            </g>
          </g>
        </g>
      </g>
    </g>
  </g>
</svg>
