<?xml version="1.0" encoding="UTF-8" standalone="no"?>
<svg
   xmlns:dc="http://purl.org/dc/elements/1.1/"
   xmlns:cc="http://creativecommons.org/ns#"
   xmlns:rdf="http://www.w3.org/1999/02/22-rdf-syntax-ns#"
   xmlns:svg="http://www.w3.org/2000/svg"
   xmlns="http://www.w3.org/2000/svg"
   xmlns:sodipodi="http://sodipodi.sourceforge.net/DTD/sodipodi-0.dtd"
   xmlns:inkscape="http://www.inkscape.org/namespaces/inkscape"
   class="marks"
   width="340"
   height="738"
   viewBox="0 0 340 738"
   version="1.1"
   id="svg5185"
   inkscape:version="0.48.4 r9939"
   sodipodi:docname="pandhist_stack.svg">
  <metadata
     id="metadata5393">
    <rdf:RDF>
      <cc:Work
         rdf:about="">
        <dc:format>image/svg+xml</dc:format>
        <dc:type
           rdf:resource="http://purl.org/dc/dcmitype/StillImage" />
      </cc:Work>
    </rdf:RDF>
  </metadata>
  <defs
     id="defs5391" />
  <sodipodi:namedview
     pagecolor="#ffffff"
     bordercolor="#666666"
     borderopacity="1"
     objecttolerance="10"
     gridtolerance="10"
     guidetolerance="10"
     inkscape:pageopacity="0"
     inkscape:pageshadow="2"
     inkscape:window-width="954"
     inkscape:window-height="1027"
     id="namedview5389"
     showgrid="false"
     inkscape:zoom="0.94023904"
     inkscape:cx="119.95763"
     inkscape:cy="338.21186"
     inkscape:window-x="960"
     inkscape:window-y="0"
     inkscape:window-maximized="0"
     inkscape:current-layer="svg5185" />
  <g
     transform="translate(52,18)"
     id="g5187">
    <g
       class="mark-group role-frame root"
       id="g5189">
      <g
         id="g5191">
        <path
           class="background"
           d="m 0.5,0.5 h 200 v 200 H 0.5 z"
           style="fill:none;stroke:#dddddd"
           id="path5193"
           inkscape:connector-curvature="0" />
        <g
           id="g5195">
          <g
             class="mark-group role-axis"
             id="g5197">
            <g
               transform="translate(0.5,200.5)"
               id="g5199">
              <path
                 class="background"
                 d="M 0,0 H 0 V 0 H 0 z"
                 style="fill:none"
                 id="path5201"
                 inkscape:connector-curvature="0" />
              <g
                 id="g5203">
                <g
                   class="mark-rule role-axis-grid"
                   id="g5205">
                  <line
                     transform="translate(0,-200)"
                     x2="0"
                     y2="200"
                     style="fill:none;stroke:#dddddd;stroke-width:1"
                     id="line5207"
                     x1="0"
                     y1="0" />
                  <line
                     transform="translate(40,-200)"
                     x2="0"
                     y2="200"
                     style="fill:none;stroke:#dddddd;stroke-width:1"
                     id="line5209"
                     x1="0"
                     y1="0" />
                  <line
                     transform="translate(80,-200)"
                     x2="0"
                     y2="200"
                     style="fill:none;stroke:#dddddd;stroke-width:1"
                     id="line5211"
                     x1="0"
                     y1="0" />
                  <line
                     transform="translate(120,-200)"
                     x2="0"
                     y2="200"
                     style="fill:none;stroke:#dddddd;stroke-width:1"
                     id="line5213"
                     x1="0"
                     y1="0" />
                  <line
                     transform="translate(160,-200)"
                     x2="0"
                     y2="200"
                     style="fill:none;stroke:#dddddd;stroke-width:1"
                     id="line5215"
                     x1="0"
                     y1="0" />
                  <line
                     transform="translate(200,-200)"
                     x2="0"
                     y2="200"
                     style="fill:none;stroke:#dddddd;stroke-width:1"
                     id="line5217"
                     x1="0"
                     y1="0" />
                </g>
              </g>
            </g>
          </g>
          <g
             class="mark-group role-axis"
             id="g5219">
            <g
               transform="translate(0.5,0.5)"
               id="g5221">
              <path
                 class="background"
                 d="M 0,0 H 0 V 0 H 0 z"
                 style="fill:none"
                 id="path5223"
                 inkscape:connector-curvature="0" />
              <g
                 id="g5225">
                <g
                   class="mark-rule role-axis-grid"
                   id="g5227">
                  <line
                     transform="translate(0,200)"
                     x2="200"
                     y2="0"
                     style="fill:none;stroke:#dddddd;stroke-width:1"
                     id="line5229"
                     x1="0"
                     y1="0" />
                  <line
                     transform="translate(0,167)"
                     x2="200"
                     y2="0"
                     style="fill:none;stroke:#dddddd;stroke-width:1"
                     id="line5231"
                     x1="0"
                     y1="0" />
                  <line
                     transform="translate(0,133)"
                     x2="200"
                     y2="0"
                     style="fill:none;stroke:#dddddd;stroke-width:1"
                     id="line5233"
                     x1="0"
                     y1="0" />
                  <line
                     transform="translate(0,100)"
                     x2="200"
                     y2="0"
                     style="fill:none;stroke:#dddddd;stroke-width:1"
                     id="line5235"
                     x1="0"
                     y1="0" />
                  <line
                     transform="translate(0,67)"
                     x2="200"
                     y2="0"
                     style="fill:none;stroke:#dddddd;stroke-width:1"
                     id="line5237"
                     x1="0"
                     y1="0" />
                  <line
                     transform="translate(0,33)"
                     x2="200"
                     y2="0"
                     style="fill:none;stroke:#dddddd;stroke-width:1"
                     id="line5239"
                     x1="0"
                     y1="0" />
                  <line
                     x2="200"
                     y2="0"
                     style="fill:none;stroke:#dddddd;stroke-width:1"
                     id="line5241"
                     x1="0"
                     y1="0" />
                </g>
              </g>
            </g>
          </g>
          <g
             class="mark-group role-scope layer_0_pathgroup"
             id="g5243">
            <g
               id="g5245">
              <path
                 class="background"
                 d="M 0,0 H 200 V 200 H 0 z"
                 style="fill:none"
                 id="path5247"
                 inkscape:connector-curvature="0" />
              <g
                 id="g5249">
                <g
                   class="mark-area role-mark layer_0_marks"
                   id="g5251">
                  <path
                     d="M 200,153.33333 200,200 l -2,0 0,0 -2,0 0,-1.66667 -2,0 0,0 -2,0 0,1.66667 -2,0 0,-3.33333 -2,0 0,3.33333 -2,0 0,0 -2,0 0,-3.33333 -2,0 0,3.33333 -2,0 0,0 -2,0 0,0 -2,0 0,-5 -2,0 0,3.33333 -2,0 0,0 -2,0 0,1.66667 -2,0 0,0 -2,0 0,-1.66667 -2,0 0,0 -2,0 0,1.66667 -2,0 0,-1.66667 -2,0 0,-5 -2,0 0,0 -2,0 0,3.33334 -2,0 0,0 -2,0 0,1.66666 -2,0 0,0 -2,0 0,-5 -2,0 0,3.33334 -2,0 0,1.66666 -2,0 0,1.66667 -2,0 0,-6.66667 -2,0 0,5 -2,0 0,-8.33333 -2,0 0,-1.66667 -2,0 0,6.66667 -2,0 0,-6.66667 -2,0 0,8.33334 -2,0 0,-3.33334 -2,0 0,3.33334 -2,0 0,-5 -2,0 0,1.66666 -2,0 0,-8.33333 -2,0 0,5 -2,0 0,8.33333 -2,0 0,-6.66666 -2,0 0,-5 -2,0 0,3.33333 -2,0 0,-3.33333 -2,0 0,-6.66667 -2,0 0,13.33333 -2,0 L 98,180 l -2,0 0,0 -2,0 0,5 -2,0 0,-11.66667 -2,0 0,10 -2,0 0,-15 -2,0 0,20 -2,0 L 84,170 l -2,0 0,5 -2,0 0,-1.66667 -2,0 0,-11.66666 -2,0 0,5 -2,0 0,-6.66667 -2,0 0,16.66667 -2,0 0,-33.33334 -2,0 0,8.33334 -2,0 0,3.33333 -2,0 0,3.33333 -2,0 0,-8.33333 -2,0 0,0 -2,0 0,-20 -2,0 0,18.33333 -2,0 0,-11.66666 -2,0 0,15 -2,0 0,-28.33334 -2,0 0,-59.999997 -2,0 0,44.999997 -2,0 0,-21.666663 -2,0 L 42,80 l -2,0 0,10 -2,0 0,-25 -2,0 0,-35 -2,0 0,6.666667 -2,0 0,-8.333334 -2,0 L 30,40 l -2,0 0,-3.333333 -2,0 L 26,15 l -2,0 0,0 -2,0 0,-5 -2,0 0,16.666667 -2,0 0,-8.333334 -2,0 0,-14.9999997 -2,0 L 14,65 l -2,0 0,23.333333 -2,0 0,24.999997 -2,0 0,-10 -2,0 0,45 -2,0 0,15 -2,0 0,20 -2,0 0,5 2,0 0,-16.66666 2,0 0,-3.33334 2,0 L 6,130 l 2,0 0,11.66667 2,0 0,-20 2,0 0,1.66666 2,0 0,-41.666663 2,0 L 16,70 l 2,0 0,8.333333 2,0 0,-15 2,0 0,13.333334 2,0 0,-8.333334 2,0 L 26,95 l 2,0 0,6.66667 2,0 0,-5.000003 2,0 L 32,85 l 2,0 0,-5 2,0 0,28.33333 2,0 0,21.66667 2,0 0,0 2,0 0,-1.66667 2,0 0,23.33334 2,0 L 46,100 l 2,0 0,48.33333 2,0 0,18.33334 2,0 0,-8.33334 2,0 0,11.66667 2,0 0,-18.33333 2,0 0,15 2,0 0,10 2,0 0,-6.66667 2,0 0,-1.66667 2,0 0,3.33334 2,0 L 68,160 l 2,0 0,25 2,0 0,-6.66667 2,0 0,1.66667 2,0 0,-3.33333 2,0 0,6.66666 2,0 0,1.66667 2,0 0,-1.66667 2,0 0,13.33334 2,0 L 86,175 l 2,0 0,20 2,0 0,-6.66667 2,0 0,6.66667 2,0 0,-5 2,0 0,1.66667 2,0 0,1.66666 2,0 0,-6.66666 2,0 0,5 2,0 0,0 2,0 0,1.66666 2,0 0,3.33334 2,0 0,3.33333 2,0 0,-6.66667 2,0 0,-3.33333 2,0 0,5 2,0 0,-1.66667 2,0 0,5 2,0 0,-1.66666 2,0 0,3.33333 2,0 0,-6.66667 2,0 0,1.66667 2,0 0,0 2,0 0,0 2,0 0,3.33333 2,0 0,-1.66666 2,0 0,3.33333 2,0 0,-1.66667 2,0 0,0 2,0 0,-1.66666 2,0 0,3.33333 2,0 0,0 2,0 0,-3.33333 2,0 0,1.66666 2,0 0,-1.66666 2,0 0,-3.33334 2,0 0,5 2,0 0,1.66667 2,0 0,-1.66667 2,0 0,0 2,0 0,1.66667 2,0 0,0 2,0 0,-1.66667 2,0 0,0 2,0 0,1.66667 2,0 0,0 2,0 0,0 2,0 0,0 2,0 0,-3.33333 2,0 0,3.33333 2,0 0,0 2,0 0,-3.33333 2,0 0,3.33333 2,0 0,0 2,0 0,0 2,0 0,0 2,0 0,0 2,0 0,-28.33333 z"
                     style="fill:#4c78a8"
                     id="path5253"
                     inkscape:connector-curvature="0" />
                </g>
              </g>
            </g>
            <g
               id="g5255">
              <path
                 class="background"
                 d="M 0,0 H 200 V 200 H 0 z"
                 style="fill:none"
                 id="path5257"
                 inkscape:connector-curvature="0" />
              <g
                 id="g5259">
                <g
                   class="mark-area role-mark layer_0_marks"
                   id="g5261">
                  <path
                     d="M 200,171.66667 200,200 l -2,0 0,0 -2,0 0,0 -2,0 0,0 -2,0 0,0 -2,0 0,-3.33333 -2,0 0,3.33333 -2,0 0,0 -2,0 0,-3.33333 -2,0 0,3.33333 -2,0 0,0 -2,0 0,0 -2,0 0,0 -2,0 0,-1.66667 -2,0 0,0 -2,0 0,1.66667 -2,0 0,0 -2,0 0,-1.66667 -2,0 0,0 -2,0 0,1.66667 -2,0 0,-1.66667 -2,0 0,-5 -2,0 0,3.33334 -2,0 0,1.66666 -2,0 0,-1.66666 -2,0 0,3.33333 -2,0 0,0 -2,0 0,-3.33333 -2,0 0,1.66666 -2,0 0,0 -2,0 0,1.66667 -2,0 0,-3.33333 -2,0 0,1.66666 -2,0 0,-3.33333 -2,0 0,0 -2,0 0,0 -2,0 0,-1.66667 -2,0 0,6.66667 -2,0 0,-3.33333 -2,0 0,1.66666 -2,0 0,-5 -2,0 0,1.66667 -2,0 0,-5 -2,0 0,3.33333 -2,0 0,6.66667 -2,0 0,-3.33333 -2,0 0,-3.33334 -2,0 0,-1.66666 -2,0 0,0 -2,0 0,-5 -2,0 0,6.66666 -2,0 0,-1.66666 -2,0 0,-1.66667 -2,0 0,5 -2,0 0,-6.66667 -2,0 0,6.66667 -2,0 0,-20 -2,0 0,21.66667 -2,0 0,-13.33334 -2,0 0,1.66667 -2,0 0,-1.66667 -2,0 0,-6.66666 -2,0 0,3.33333 -2,0 0,-1.66667 -2,0 0,6.66667 -2,0 0,-25 -2,0 0,11.66667 -2,0 0,-3.33334 -2,0 0,1.66667 -2,0 0,6.66667 -2,0 0,-10 -2,0 0,-15 -2,0 0,18.33333 -2,0 0,-11.66667 -2,0 0,8.33334 -2,0 0,-18.33334 -2,0 L 48,100 l -2,0 0,51.66667 -2,0 0,-23.33334 -2,0 0,1.66667 -2,0 0,0 -2,0 0,-21.66667 -2,0 L 36,80 l -2,0 0,5 -2,0 0,11.666667 -2,0 0,5.000003 -2,0 L 28,95 l -2,0 0,-26.666667 -2,0 0,8.333334 -2,0 0,-13.333334 -2,0 0,15 -2,0 L 18,70 l -2,0 0,11.666667 -2,0 0,41.666663 -2,0 0,-1.66666 -2,0 0,20 -2,0 L 8,130 l -2,0 0,38.33333 -2,0 0,3.33334 -2,0 0,16.66666 -2,0 L 0,200 l 2,0 0,0 2,0 0,0 2,0 0,0 2,0 0,0 2,0 0,0 2,0 0,0 2,0 0,0 2,0 0,0 2,0 0,0 2,0 0,0 2,0 0,0 2,0 0,0 2,0 0,0 2,0 0,0 2,0 0,0 2,0 0,0 2,0 0,0 2,0 0,0 2,0 0,0 2,0 0,0 2,0 0,0 2,0 0,0 2,0 0,0 2,0 0,0 2,0 0,0 2,0 0,0 2,0 0,0 2,0 0,0 2,0 0,0 2,0 0,0 2,0 0,0 2,0 0,0 2,0 0,0 2,0 0,0 2,0 0,0 2,0 0,0 2,0 0,0 2,0 0,0 2,0 0,0 2,0 0,0 2,0 0,0 2,0 0,0 2,0 0,0 2,0 0,0 2,0 0,0 2,0 0,0 2,0 0,0 2,0 0,0 2,0 0,0 2,0 0,0 2,0 0,0 2,0 0,0 2,0 0,0 2,0 0,0 2,0 0,0 2,0 0,0 2,0 0,0 2,0 0,0 2,0 0,0 2,0 0,0 2,0 0,0 2,0 0,0 2,0 0,0 2,0 0,0 2,0 0,0 2,0 0,0 2,0 0,0 2,0 0,0 2,0 0,0 2,0 0,0 2,0 0,0 2,0 0,0 2,0 0,0 2,0 0,0 2,0 0,0 2,0 0,0 2,0 0,0 2,0 0,0 2,0 0,0 2,0 0,0 2,0 0,0 2,0 0,0 2,0 0,0 2,0 0,0 2,0 0,0 2,0 0,0 2,0 0,0 2,0 0,0 2,0 0,0 2,0 0,0 2,0 0,0 2,0 0,0 2,0 0,0 2,0 0,0 2,0 0,0 2,0 0,0 2,0 0,0 2,0 0,0 2,0 0,0 2,0 0,0 z"
                     style="fill:#f58518"
                     id="path5263"
                     inkscape:connector-curvature="0" />
                </g>
              </g>
            </g>
          </g>
          <g
             class="mark-group role-legend"
             id="g5265">
            <g
               transform="translate(218,0)"
               id="g5267">
              <path
                 class="background"
                 d="M 0,0 H 50 V 42 H 0 z"
                 style="fill:none"
                 id="path5269"
                 inkscape:connector-curvature="0" />
              <g
                 id="g5271">
                <g
                   class="mark-group role-legend-entry"
                   id="g5273">
                  <g
                     transform="translate(0,16)"
                     id="g5275">
                    <path
                       class="background"
                       d="M 0,0 H 0 V 0 H 0 z"
                       style="fill:none"
                       id="path5277"
                       inkscape:connector-curvature="0" />
                    <g
                       id="g5279">
                      <g
                         class="mark-symbol role-legend-symbol"
                         id="g5281">
                        <path
                           transform="translate(5,5)"
                           d="M 5,0 A 5,5 0 1 1 -5,0 5,5 0 1 1 5,0"
                           style="fill:#4c78a8;stroke-width:1.5"
                           id="path5283"
                           inkscape:connector-curvature="0" />
                        <path
                           transform="translate(5,20)"
                           d="M 5,0 A 5,5 0 1 1 -5,0 5,5 0 1 1 5,0"
                           style="fill:#f58518;stroke-width:1.5"
                           id="path5285"
                           inkscape:connector-curvature="0" />
                      </g>
                      <g
                         class="mark-text role-legend-label"
                         id="g5287">
                        <text
                           transform="translate(18,8)"
                           style="text-anchor:start;fill:#000000"
                           id="text5289">fail</text>
                        <text
                           transform="translate(18,23)"
                           style="text-anchor:start;fill:#000000"
                           id="text5291">pass</text>
                      </g>
                    </g>
                  </g>
                </g>
                <g
                   class="mark-text role-legend-title"
                   id="g5293">
                  <text
                     transform="translate(0,9)"
                     style="text-anchor:start;fill:#000000"
                     id="text5295">q1*q2 &lt; 0</text>
                </g>
              </g>
            </g>
          </g>
          <g
             class="mark-group role-axis"
             id="g5297">
            <g
               transform="translate(0.5,200.5)"
               id="g5299">
              <path
                 class="background"
                 d="M 0,0 H 0 V 0 H 0 z"
                 style="fill:none"
                 id="path5301"
                 inkscape:connector-curvature="0" />
              <g
                 id="g5303">
                <g
                   class="mark-rule role-axis-tick"
                   id="g5305">
                  <line
                     x2="0"
                     y2="5"
                     style="fill:none;stroke:#888888;stroke-width:1"
                     id="line5307"
                     x1="0"
                     y1="0" />
                  <line
                     transform="translate(40,0)"
                     x2="0"
                     y2="5"
                     style="fill:none;stroke:#888888;stroke-width:1"
                     id="line5309"
                     x1="0"
                     y1="0" />
                  <line
                     transform="translate(80,0)"
                     x2="0"
                     y2="5"
                     style="fill:none;stroke:#888888;stroke-width:1"
                     id="line5311"
                     x1="0"
                     y1="0" />
                  <line
                     transform="translate(120,0)"
                     x2="0"
                     y2="5"
                     style="fill:none;stroke:#888888;stroke-width:1"
                     id="line5313"
                     x1="0"
                     y1="0" />
                  <line
                     transform="translate(160,0)"
                     x2="0"
                     y2="5"
                     style="fill:none;stroke:#888888;stroke-width:1"
                     id="line5315"
                     x1="0"
                     y1="0" />
                  <line
                     transform="translate(200,0)"
                     x2="0"
                     y2="5"
                     style="fill:none;stroke:#888888;stroke-width:1"
                     id="line5317"
                     x1="0"
                     y1="0" />
                </g>
                <g
                   class="mark-text role-axis-label"
                   id="g5319">
                  <text
                     transform="translate(0,15)"
                     style="text-anchor:start;fill:#000000"
                     id="text5321">0</text>
                  <text
                     transform="translate(40,15)"
                     style="text-anchor:middle;fill:#000000"
                     id="text5323">100</text>
                  <text
                     transform="translate(80,15)"
                     style="text-anchor:middle;fill:#000000"
                     id="text5325">200</text>
                  <text
                     transform="translate(120,15)"
                     style="text-anchor:middle;fill:#000000"
                     id="text5327">300</text>
                  <text
                     transform="translate(160,15)"
                     style="text-anchor:middle;fill:#000000"
                     id="text5329">400</text>
                  <text
                     transform="translate(200,15)"
                     style="text-anchor:end;fill:#000000"
                     id="text5331">500</text>
                </g>
                <g
                   class="mark-rule role-axis-domain"
                   id="g5333">
                  <line
                     x2="200"
                     y2="0"
                     style="fill:none;stroke:#888888;stroke-width:1"
                     id="line5335"
                     x1="0"
                     y1="0" />
                </g>
                <g
                   class="mark-text role-axis-title"
                   id="g5337">
                  <text
                     transform="translate(100,31)"
                     style="text-anchor:middle;fill:#000000"
                     id="text5339">mass</text>
                </g>
              </g>
            </g>
          </g>
          <g
             class="mark-group role-axis"
             id="g5341">
            <g
               transform="translate(0.5,0.5)"
               id="g5343">
              <path
                 class="background"
                 d="M 0,0 H 0 V 0 H 0 z"
                 style="fill:none"
                 id="path5345"
                 inkscape:connector-curvature="0" />
              <g
                 id="g5347">
                <g
                   class="mark-rule role-axis-tick"
                   id="g5349">
                  <line
                     transform="translate(0,200)"
                     x2="-5"
                     y2="0"
                     style="fill:none;stroke:#888888;stroke-width:1"
                     id="line5351"
                     x1="0"
                     y1="0" />
                  <line
                     transform="translate(0,167)"
                     x2="-5"
                     y2="0"
                     style="fill:none;stroke:#888888;stroke-width:1"
                     id="line5353"
                     x1="0"
                     y1="0" />
                  <line
                     transform="translate(0,133)"
                     x2="-5"
                     y2="0"
                     style="fill:none;stroke:#888888;stroke-width:1"
                     id="line5355"
                     x1="0"
                     y1="0" />
                  <line
                     transform="translate(0,100)"
                     x2="-5"
                     y2="0"
                     style="fill:none;stroke:#888888;stroke-width:1"
                     id="line5357"
                     x1="0"
                     y1="0" />
                  <line
                     transform="translate(0,67)"
                     x2="-5"
                     y2="0"
                     style="fill:none;stroke:#888888;stroke-width:1"
                     id="line5359"
                     x1="0"
                     y1="0" />
                  <line
                     transform="translate(0,33)"
                     x2="-5"
                     y2="0"
                     style="fill:none;stroke:#888888;stroke-width:1"
                     id="line5361"
                     x1="0"
                     y1="0" />
                  <line
                     x2="-5"
                     y2="0"
                     style="fill:none;stroke:#888888;stroke-width:1"
                     id="line5363"
                     x1="0"
                     y1="0" />
                </g>
                <g
                   class="mark-text role-axis-label"
                   id="g5365">
                  <text
                     transform="translate(-7,203)"
                     style="text-anchor:end;fill:#000000"
                     id="text5367">0</text>
                  <text
                     transform="translate(-7,169.66667)"
                     style="text-anchor:end;fill:#000000"
                     id="text5369">20</text>
                  <text
                     transform="translate(-7,136.33333)"
                     style="text-anchor:end;fill:#000000"
                     id="text5371">40</text>
                  <text
                     transform="translate(-7,103)"
                     style="text-anchor:end;fill:#000000"
                     id="text5373">60</text>
                  <text
                     transform="translate(-7,69.666667)"
                     style="text-anchor:end;fill:#000000"
                     id="text5375">80</text>
                  <text
                     transform="translate(-7,36.333333)"
                     style="text-anchor:end;fill:#000000"
                     id="text5377">100</text>
                  <text
                     transform="translate(-7,3)"
                     style="text-anchor:end;fill:#000000"
                     id="text5379">120</text>
                </g>
                <g
                   class="mark-rule role-axis-domain"
                   id="g5381">
                  <line
                     transform="translate(0,200)"
                     x2="0"
                     y2="-200"
                     style="fill:none;stroke:#888888;stroke-width:1"
                     id="line5383"
                     x1="0"
                     y1="0" />
                </g>
                <g
                   class="mark-text role-axis-title"
                   id="g5385">
                  <text
                     transform="matrix(0,-1,1,0,-36,100)"
                     style="text-anchor:middle;fill:#000000"
                     id="text5387">stacked count</text>
                </g>
              </g>
            </g>
          </g>
        </g>
      </g>
    </g>
  </g>
</svg>
